<svg width="75" height="75" viewBox="0 0 75 75" fill="none" xmlns="http://www.w3.org/2000/svg">
<path fill-rule="evenodd" clip-rule="evenodd" d="M69.9826 29.5085L72.3251 32.0107C74.9871 34.8856 74.9871 39.4642 72.2719 42.2858L69.9294 44.7881C68.4387 46.4385 67.6934 48.7277 68.0128 51.017L68.4919 54.4776C69.0776 58.4705 66.4689 62.144 62.6889 62.8361L59.3881 63.4217C57.2053 63.7944 55.3419 65.2318 54.3304 67.2549L52.7332 70.3428C50.9231 73.9098 46.7704 75.294 43.3099 73.5371L40.2753 71.9932C38.3054 70.9816 35.9629 70.9816 33.9931 71.9932L30.9585 73.5371C27.4979 75.294 23.3453 73.8565 21.5352 70.3428L19.938 67.2549C18.9265 65.2318 17.0631 63.7944 14.8803 63.4217L11.5795 62.8361C7.79951 62.144 5.24404 58.4172 5.77643 54.4776L6.25558 51.017C6.57501 48.7277 5.88291 46.4385 4.33898 44.7881L1.99646 42.2858C-0.665487 39.4109 -0.665487 34.8324 1.99646 31.9575L4.33898 29.4552C5.82967 27.8581 6.57501 25.5688 6.25558 23.2795L5.77643 19.819C5.1908 15.8261 7.79951 12.1526 11.5795 11.4605L14.9335 10.8748C17.1163 10.5022 18.9797 9.06471 19.9912 7.04163L21.5884 3.95377C23.3985 0.386755 27.5512 -0.997458 31.0117 0.759428L34.0463 2.30336C36.0162 3.3149 38.3587 3.3149 40.3285 2.30336L43.3631 0.759428C46.8237 -0.997458 50.9763 0.439994 52.7864 3.95377L54.3836 7.04163C55.3951 9.06471 57.2585 10.5022 59.4413 10.8748L62.7421 11.4605C66.5221 12.1526 69.0776 15.8793 68.5452 19.819L68.066 23.2795C67.7466 25.5688 68.4387 27.8581 69.9826 29.5085ZM9.12891 56.4476C9.12891 57.9383 10.3002 59.1095 11.6844 59.1095C13.0686 59.1095 14.2398 57.9383 14.2398 56.4476C14.2398 54.9569 13.1218 53.7856 11.6844 53.7856C10.2469 53.7856 9.12891 54.9569 9.12891 56.4476Z" fill="#D0D0D0"/>
<path fill-rule="evenodd" clip-rule="evenodd" d="M19.082 40.3703V33.5557H21.531C22.4361 33.5557 23.075 33.7154 23.5541 34.0348C24.0333 34.3542 24.2462 34.8334 24.2462 35.419C24.2462 35.7917 24.1397 36.0579 23.98 36.3241C23.8203 36.5903 23.5541 36.75 23.2347 36.8565C23.6073 36.963 23.8735 37.1227 24.0333 37.3889C24.2462 37.6551 24.2995 37.9745 24.2995 38.3472C24.2995 38.986 24.0865 39.5184 23.6606 39.8379C23.2347 40.1573 22.5958 40.317 21.7972 40.3703H19.082ZM20.729 36.3775H21.5808C21.9535 36.3775 22.2197 36.3242 22.3262 36.1645C22.4859 36.058 22.5391 35.8451 22.5391 35.5789C22.5391 35.3127 22.4327 35.0997 22.273 34.94C22.1132 34.8335 21.847 34.7271 21.4744 34.7271H20.6758V36.3775H20.729ZM20.7344 39.1455V37.4951H21.9056C22.4913 37.4951 22.7575 37.7613 22.7575 38.3469C22.7575 38.6131 22.651 38.7729 22.4913 38.9326C22.3315 39.0923 22.1186 39.1455 21.7992 39.1455H20.7344Z" fill="white"/>
<path fill-rule="evenodd" clip-rule="evenodd" d="M26.9121 37.9745H27.8172L29.0949 40.3703H30.8518V40.2105L29.4144 37.4953C29.8403 37.3356 30.1065 37.0694 30.3194 36.75C30.4791 36.4306 30.5856 36.0579 30.5856 35.5787C30.5856 34.9399 30.3727 34.4607 29.8935 34.0881C29.4144 33.7154 28.7755 33.5557 27.9769 33.5557H25.2617V40.3703H26.9121V37.9745ZM27.9735 36.6969H26.9087C26.9087 36.6969 26.9087 34.8335 26.8555 34.7803H27.9202C28.2397 34.7803 28.4526 34.8868 28.6124 35.0465C28.7721 35.2062 28.8785 35.4191 28.8785 35.7386C28.8785 36.058 28.8253 36.271 28.6656 36.4307C28.5059 36.5904 28.2929 36.6969 27.9735 36.6969Z" fill="white"/>
<path fill-rule="evenodd" clip-rule="evenodd" d="M36.969 38.8796C37.2352 38.3472 37.3417 37.7615 37.3417 37.1227V36.9097C37.3417 36.2176 37.2352 35.6852 36.969 35.1528C36.7028 34.6204 36.3834 34.2478 35.9042 33.9816C35.4783 33.7154 34.9459 33.5557 34.3603 33.5557C33.7747 33.5557 33.2955 33.7154 32.8164 33.9816C32.3372 34.2478 32.0178 34.6204 31.7516 35.1528C31.4854 35.6852 31.3789 36.2709 31.3789 36.9097V37.2824C31.3789 37.9213 31.4854 38.5069 31.7516 38.986C32.0178 39.4652 32.3904 39.8379 32.8164 40.1041C33.2423 40.3703 33.7747 40.4767 34.3603 40.4767C34.9459 40.4767 35.4251 40.317 35.9042 40.0508C36.3834 39.7846 36.7028 39.412 36.969 38.8796ZM35.3752 35.2594C35.5882 35.6321 35.6946 36.1113 35.6946 36.8034V37.1228C35.6946 37.7617 35.5882 38.2408 35.3752 38.6135C35.1623 38.9862 34.8428 39.1459 34.4169 39.1459C33.9378 39.1459 33.6183 38.9862 33.4054 38.6135C33.1924 38.2408 33.0859 37.7084 33.0859 37.0696V36.5904C33.1392 35.3659 33.5651 34.7271 34.4169 34.7271C34.8428 34.7271 35.1623 34.8868 35.3752 35.2594Z" fill="white"/>
<path d="M43.949 40.3698H42.2986L39.8496 36.1106V40.3698H38.1992V33.5552H39.8496L42.2454 37.7611V33.5552H43.8958C43.949 33.5552 43.949 40.3698 43.949 40.3698Z" fill="white"/>
<path d="M46.8249 39.092H50.0724V40.3698H44.7486V39.5179L47.9961 34.8329H44.6953V33.5552H50.0192V34.407L46.8249 39.092Z" fill="white"/>
<path d="M55.0755 37.4949H52.4668V39.092H55.5547V40.3698H50.8164V33.5552H55.5547V34.8329H52.4668V36.2704H55.0755V37.4949Z" fill="white"/>
<path fill-rule="evenodd" clip-rule="evenodd" d="M46.8794 15.8792C46.4535 16.6246 44.8563 16.7843 43.7383 16.5181C44.2707 16.039 45.4952 15.5598 46.5067 15.7728L46.8794 15.8792L46.5599 15.6663C45.6549 15.1339 45.1757 13.9626 45.1225 13.2173C46.0808 13.8562 47.0923 15.1339 46.8794 15.8792ZM37.1389 60.0146C37.5115 60.0146 37.7777 60.2808 37.7777 60.6535C37.7777 60.9729 37.5115 61.2924 37.1389 61.2924C36.7662 61.2924 36.5 61.0262 36.5 60.6535C36.5532 60.2808 36.8194 60.0146 37.1389 60.0146ZM45.4433 15.2401L45.1771 14.9739C44.3786 14.2818 43.1008 14.1753 42.3555 14.3883C43.2605 15.1336 44.7512 15.7193 45.4433 15.2401ZM28.9375 15.2397C29.6296 15.7189 31.1736 15.1332 32.0254 14.3879C31.2801 14.1749 30.0023 14.3346 29.2037 14.9735L28.9375 15.2397ZM35.5429 60.653C35.3299 61.4516 33.8392 62.0904 32.668 62.0904C33.0939 61.4516 34.1054 60.7062 35.117 60.653H35.5429C35.5429 59.8012 34.2119 58.8429 33.1471 58.5767C33.3601 59.2688 34.1587 60.2803 35.1702 60.5465L35.5429 60.653ZM33.2001 60.3342C33.3066 59.4824 32.0821 58.4176 31.0173 57.9917C31.1771 58.737 31.8692 59.8018 32.8275 60.1745L33.2001 60.3342L32.8275 60.281C31.7627 60.2277 30.6979 60.8666 30.2188 61.4522C31.3368 61.5587 32.8807 61.1328 33.2001 60.3342ZM30.8574 59.8016C30.4847 60.5469 28.8876 60.8663 27.7695 60.6534C28.3019 60.121 29.4199 59.5354 30.4847 59.7483L30.8574 59.8016C31.0171 59.003 29.9523 57.7785 28.9408 57.2461C29.0473 57.9914 29.5797 59.1095 30.538 59.5886L30.8574 59.8016ZM28.6177 59.0023C28.8839 58.2037 27.9256 56.926 26.9673 56.2871C26.9673 57.0325 27.4464 58.2037 28.2982 58.7893L28.6177 59.0023L28.245 58.8958C27.2334 58.6296 26.009 59.0555 25.4766 59.5347C26.5413 59.8541 28.1917 59.6944 28.6177 59.0023ZM26.4365 57.9921C25.9574 58.6842 24.307 58.631 23.2422 58.205C23.8811 57.7791 25.1056 57.4597 26.0639 57.8324L26.4365 57.9921C26.756 57.2467 25.9574 55.8625 25.0523 55.1172C24.9991 55.8625 25.3185 57.087 26.1171 57.7259L26.4365 57.9921ZM24.3625 56.8205C24.7884 56.0752 24.0963 54.6377 23.2977 53.8391C23.138 54.5845 23.3509 55.809 24.0963 56.5543L24.3625 56.8205L24.043 56.6608C23.0847 56.1817 21.8602 56.3946 21.1681 56.714C22.1797 57.1932 23.8301 57.4062 24.3625 56.8205ZM22.4446 55.3823C21.8057 55.9147 20.2085 55.5953 19.2502 54.9564C19.9423 54.637 21.2201 54.5838 22.1251 55.1694L22.4446 55.3823L22.1784 55.1161C21.4863 54.3176 21.433 53.0398 21.646 52.3477C22.3913 53.1995 22.9237 54.6902 22.4446 55.3823ZM20.6841 53.7856C19.992 54.2648 18.448 53.7856 17.543 53.0403C18.2351 52.8273 19.566 52.8806 20.3646 53.5194L20.6841 53.7856C21.2165 53.1468 20.8438 51.6028 20.2049 50.6445C19.9387 51.3366 19.8855 52.6144 20.4711 53.4662L20.6841 53.7856ZM19.0932 52.0278C18.3479 52.4537 16.8572 51.7616 16.0586 50.9631C16.8039 50.8033 18.0817 51.0163 18.827 51.7616L19.0932 52.0278C19.7321 51.4422 19.4659 49.845 18.9335 48.8335C18.5608 49.4724 18.4011 50.7501 18.8803 51.6552L19.0932 52.0278ZM17.7055 50.1118C16.9069 50.4845 15.5227 49.6327 14.7773 48.7808C15.5227 48.7276 16.7472 49.047 17.4393 49.8456L17.7055 50.1118L17.5458 49.7391C17.1731 48.7808 17.4393 47.5563 17.8652 46.9175C18.2911 47.9823 18.3444 49.6327 17.7055 50.1118ZM16.4794 48.0889L16.3729 47.7162C16.0535 46.7046 16.4794 45.5334 17.0118 44.9478C17.3312 46.0125 17.1715 47.6629 16.4794 48.0889L16.2664 47.7694C15.6808 46.9176 14.4563 46.4384 13.7109 46.4384C14.3498 47.3967 15.6808 48.355 16.4794 48.0889ZM15.4695 45.9062C14.6709 46.1192 13.4465 45.0012 12.9141 44.0429C13.6594 44.0961 14.8307 44.6817 15.3098 45.5868L15.4695 45.9062C16.2149 45.5335 16.4811 43.9364 16.2681 42.8184C15.7357 43.3507 15.2033 44.4688 15.3631 45.5335L15.4695 45.9062ZM14.7239 43.6699L14.6706 43.2972C14.5642 42.2324 15.2563 41.1676 15.8419 40.6885C15.9484 41.8065 15.5225 43.4037 14.7239 43.6699L14.5642 43.2972C14.1382 42.3389 13.0735 41.6468 12.3281 41.4871C12.754 42.6051 13.8721 43.7763 14.7239 43.6699ZM14.1921 41.3803V41.0076C14.1921 39.9428 14.9906 38.9313 15.6295 38.5586C15.5763 39.6234 14.9906 41.1673 14.1921 41.3803L14.0856 41.0076C13.7661 39.996 12.7546 39.2507 12.0625 38.9845C12.3819 40.1025 13.3402 41.3803 14.1921 41.3803ZM13.8736 39.0381C13.0218 38.9848 12.17 37.6006 11.957 36.4826C12.6491 36.7488 13.5542 37.6539 13.7672 38.6654L13.8736 39.0381C14.7255 38.9316 15.4708 37.4942 15.5773 36.3229C14.8852 36.6423 14.0334 37.6006 13.9269 38.6122L13.8736 39.0381ZM13.8198 36.6429C12.968 36.4832 12.2759 35.0458 12.2227 33.9277C12.8615 34.3004 13.7133 35.2587 13.8198 36.2702V36.6429C14.6716 36.5897 15.5235 35.2587 15.7897 34.1407C15.0976 34.4069 14.1393 35.2587 13.9263 36.2702L13.8198 36.6429ZM13.9833 34.3002C13.1847 34.034 12.6523 32.5433 12.6523 31.3721C13.2912 31.798 13.9833 32.8628 13.9833 33.8743V34.3002C14.8351 34.3535 15.8467 33.0757 16.2194 32.0109C15.474 32.2239 14.4625 32.9692 14.143 33.9275L13.9833 34.3002ZM14.4082 31.9575L14.5679 31.638C14.9938 30.6797 16.1118 30.0409 16.8572 29.9344C16.378 30.8927 15.26 32.0639 14.4082 31.9575L14.4614 31.5848C14.5679 30.52 13.929 29.4552 13.3967 28.9761C13.2369 30.0409 13.6629 31.638 14.4082 31.9575ZM15.101 29.6674C14.3556 29.2948 14.1427 27.6976 14.3556 26.5796C14.888 27.112 15.3672 28.2832 15.1542 29.2948L15.101 29.6674C15.8995 29.8804 17.1773 28.8156 17.7097 27.8573C16.9643 27.9106 15.7931 28.443 15.2607 29.348L15.101 29.6674ZM15.9502 27.4849C15.2581 27.0058 15.2049 25.4086 15.5243 24.3438C16.0034 24.9295 16.3761 26.1539 16.0567 27.1122L15.9502 27.4849C16.7488 27.8044 18.0798 26.8461 18.7719 25.941C18.0265 25.941 16.802 26.3137 16.1632 27.1655L15.9502 27.4849ZM17.0685 25.3562C17.8138 25.7289 19.2513 24.9303 19.9966 24.1317C19.2513 24.0253 17.9735 24.2915 17.2814 25.09L17.0685 25.3562L17.2282 25.0368C17.6541 24.0785 17.3879 22.854 17.0152 22.2151C16.5361 23.2267 16.3764 24.8239 17.0685 25.3562ZM18.3437 23.3857C17.7581 22.8001 18.0243 21.2029 18.6099 20.1914C18.9293 20.8835 19.0891 22.108 18.5567 23.0131L18.3437 23.3857L18.6099 23.1195C19.4085 22.4274 20.633 22.2677 21.3783 22.4274C20.5797 23.1728 19.0891 23.8117 18.3437 23.3857ZM19.8896 21.5224L20.209 21.3095C21.0608 20.6706 22.3386 20.6706 23.0307 20.8836C22.0724 21.5757 20.5285 22.0548 19.8896 21.5224L20.1025 21.203C20.7414 20.3512 20.6882 19.0735 20.422 18.3813C19.7831 19.3396 19.3572 20.8836 19.8896 21.5224ZM21.5371 19.873C21.058 19.1809 21.6436 17.6902 22.389 16.8384C22.6019 17.5305 22.4422 18.8082 21.7501 19.6068L21.5371 19.873C22.1228 20.4586 23.7732 20.1392 24.7315 19.5536C24.0394 19.2341 22.7616 19.1277 21.8566 19.66L21.5371 19.873ZM23.4034 18.3283C23.0307 17.583 23.776 16.1455 24.5746 15.4002C24.6811 16.1455 24.4681 17.37 23.6695 18.1154L23.4034 18.3283L23.7228 18.1686C24.6811 17.7427 25.9588 17.9557 26.5977 18.3283C25.5861 18.8075 23.9357 18.9672 23.4034 18.3283ZM25.3741 17.0507L25.7468 16.9442C26.7583 16.5715 27.9828 16.9442 28.5685 17.3701C27.5037 17.7428 25.8533 17.6895 25.3741 17.0507L25.6935 16.8377C26.5454 16.1988 26.918 14.9743 26.8648 14.229C25.9597 14.8679 25.0547 16.2521 25.3741 17.0507ZM27.5013 15.9325C27.2884 15.1339 28.2999 13.8561 29.2582 13.2705C29.205 14.0159 28.7258 15.1871 27.8208 15.7195L27.5013 15.9325L27.874 15.826C28.8855 15.5598 30.11 16.0389 30.6424 16.5713C29.5244 16.8375 27.874 16.6246 27.5013 15.9325ZM38.793 60.653C39.0059 61.4516 40.4966 62.0904 41.6679 62.0904C41.2952 61.4516 40.2304 60.7062 39.2189 60.653H38.793C38.793 59.8012 40.1239 58.8429 41.1887 58.5767C40.9758 59.2688 40.1772 60.2803 39.1656 60.5465L38.793 60.653ZM41.1315 60.3342C41.025 59.4824 42.2495 58.4176 43.3143 57.9917C43.1546 58.737 42.4625 59.8018 41.5042 60.1745L41.1315 60.3342L41.5042 60.281C42.5689 60.2277 43.6337 60.8666 44.1129 61.4522C42.9949 61.5587 41.3977 61.1328 41.1315 60.3342ZM43.4756 59.8011L43.795 59.6413C44.7533 59.1622 45.2857 58.0442 45.3922 57.2988C44.3806 57.778 43.2626 58.9492 43.4756 59.8011L43.8482 59.7478C44.913 59.5881 46.031 60.1205 46.5634 60.6529C45.4454 60.8126 43.795 60.5464 43.4756 59.8011ZM45.7131 59.0023C45.4469 58.2037 46.4052 56.926 47.3635 56.2871C47.3635 57.0325 46.8843 58.2037 46.0325 58.7893L45.7131 59.0023L46.0858 58.8958C47.0973 58.6296 48.3218 59.0555 48.8542 59.5347C47.7894 59.8541 46.139 59.6944 45.7131 59.0023ZM47.8959 57.9921C48.3751 58.6842 50.0255 58.631 51.0903 58.205C50.4514 57.7791 49.2269 57.4597 48.2686 57.8324L47.8959 57.9921C47.5765 57.2467 48.3751 55.8625 49.2802 55.1172C49.3334 55.8625 49.014 57.087 48.2154 57.7259L47.8959 57.9921ZM49.9149 56.767C49.489 56.0217 50.1811 54.5842 50.9797 53.7856C51.1394 54.531 50.9265 55.7555 50.1811 56.5008L49.9149 56.767L50.2344 56.6073C51.1927 56.1282 52.4172 56.3411 53.1093 56.6605C52.151 57.1929 50.5006 57.4059 49.9149 56.767ZM51.8349 55.3823C52.4738 55.9147 54.0709 55.5952 55.0292 54.9564C54.3371 54.6369 53.0594 54.5837 52.1543 55.1693L51.8349 55.3823L52.1011 55.1161C52.7932 54.3175 52.8464 53.0398 52.6335 52.3477C51.9414 53.1462 51.3557 54.6902 51.8349 55.3823ZM53.6417 53.7858L53.8546 53.4664C54.4403 52.6145 54.387 51.3368 54.1208 50.6447C53.4287 51.5498 53.056 53.1469 53.6417 53.7858L53.9611 53.5728C54.7597 52.934 56.0907 52.8275 56.7828 53.0937C55.8777 53.7326 54.2805 54.2649 53.6417 53.7858ZM55.2367 52.0278C55.9821 52.4537 57.4728 51.7616 58.2713 50.9631C57.526 50.8033 56.2483 51.0163 55.5029 51.7616L55.2367 52.0278C54.5978 51.4422 54.864 49.845 55.3964 48.8335C55.7691 49.4724 55.9288 50.7501 55.4497 51.6552L55.2367 52.0278ZM56.6247 50.1118C57.37 50.4845 58.8075 49.6327 59.5528 48.7808C58.8075 48.7276 57.583 49.047 56.8909 49.8456L56.6247 50.1118L56.7844 49.7391C57.1571 48.7808 56.8909 47.5563 56.465 46.9175C56.0391 47.9823 55.9858 49.5794 56.6247 50.1118ZM57.8465 48.0351C58.6451 48.3013 59.9761 47.343 60.6149 46.3847C59.8696 46.3847 58.6451 46.8106 58.0595 47.7157L57.8465 48.0351C57.1544 47.6092 57.0479 45.9588 57.3674 44.894C57.8465 45.4797 58.2724 46.6509 57.953 47.6625L57.8465 48.0351ZM58.8579 45.9062C59.6564 46.1192 60.8809 45.0012 61.4133 43.9896C60.668 44.0429 59.4967 44.6285 59.0176 45.5335L58.8579 45.9062C58.1125 45.5335 57.8463 43.9364 58.0593 42.8184C58.5917 43.3507 59.124 44.4688 58.9643 45.5335L58.8579 45.9062ZM59.6068 43.6699C60.4586 43.7763 61.5234 42.5518 62.0026 41.5403C61.2572 41.7 60.1924 42.3389 59.7665 43.3504L59.6068 43.6699C58.8082 43.4037 58.3823 41.8065 58.4888 40.6885C59.0744 41.1676 59.7133 42.2324 59.66 43.2972L59.6068 43.6699ZM60.1367 41.3275C60.9885 41.3275 61.9468 40.0498 62.2662 38.985C61.5741 39.198 60.5093 39.9965 60.2431 41.0081L60.1367 41.3275C59.3381 41.1146 58.7525 39.6239 58.6992 38.5059C59.3381 38.9318 60.0834 39.9433 60.1367 40.9549V41.3275ZM60.4576 38.9847C61.3094 38.9315 62.1612 37.5473 62.3742 36.4292C61.682 36.6954 60.7237 37.6005 60.564 38.612L60.4576 38.9847C59.6057 38.8782 58.8604 37.4408 58.7539 36.2695C59.446 36.589 60.2978 37.5473 60.4043 38.5588L60.4576 38.9847ZM60.5089 36.6429L60.4024 36.2702C60.1895 35.2587 59.2312 34.4069 58.5391 34.1407C58.8053 35.2055 59.6571 36.5897 60.5089 36.6429L60.5621 36.2702C60.6686 35.2055 61.5204 34.2472 62.1593 33.9277C62.0528 34.9925 61.3607 36.4832 60.5089 36.6429ZM60.3493 34.247C61.1479 34.034 61.6803 32.4901 61.6803 31.3721C61.0414 31.798 60.3493 32.8628 60.3493 33.8743V34.247C59.4975 34.3002 58.486 33.0225 58.1133 31.9577C58.8586 32.1707 59.8702 32.916 60.1896 33.8743L60.3493 34.247ZM59.9216 31.9037C60.7202 31.5843 61.0929 30.0404 60.9332 28.9224C60.3476 29.4015 59.7087 30.5195 59.8684 31.5311L59.9216 31.9037C59.0698 32.0102 57.9518 30.8922 57.4727 29.8274C58.218 29.9339 59.336 30.5728 59.7619 31.5311L59.9216 31.9037ZM59.2845 29.6674C60.0298 29.2948 60.2428 27.6976 60.0298 26.5796C59.4974 27.112 59.0183 28.2832 59.2313 29.2948L59.2845 29.6674C58.4859 29.8804 57.2082 28.8156 56.6758 27.8573C57.4211 27.9106 58.5924 28.443 59.1248 29.348L59.2845 29.6674ZM58.3817 27.4326L58.1688 27.1132C57.5299 26.2613 56.3586 25.8354 55.6133 25.8887C56.2521 26.847 57.5831 27.752 58.3817 27.4326L58.2752 27.0599C57.9558 26.0484 58.3285 24.8771 58.8076 24.2915C59.1271 25.3563 59.0738 27.0067 58.3817 27.4326ZM57.3188 25.3564C56.5734 25.7291 55.136 24.9305 54.3906 24.1319C55.136 24.0255 56.3605 24.2917 57.1058 25.0902L57.3188 25.3564L57.159 25.037C56.7331 24.0787 56.9993 22.8542 57.372 22.2153C57.8512 23.1736 57.9576 24.824 57.3188 25.3564ZM55.9838 23.3335C56.5695 22.7479 56.3033 21.1507 55.7709 20.1392C55.4515 20.8313 55.2917 22.0558 55.8241 22.9608L55.9838 23.3335L55.7176 23.0673C54.9191 22.3752 53.6946 22.2155 52.9492 22.3752C53.7478 23.1738 55.2917 23.8126 55.9838 23.3335ZM54.4964 21.5225L54.177 21.3095C53.3252 20.6707 52.0474 20.6707 51.3553 20.8836C52.2604 21.5757 53.8043 22.0549 54.4964 21.5225L54.2835 21.2031C53.6978 20.3512 53.6978 19.0735 53.964 18.3814C54.6029 19.2865 55.0288 20.8836 54.4964 21.5225ZM52.7881 19.8193C53.2672 19.1272 52.6816 17.6365 51.9363 16.7847C51.7233 17.53 51.883 18.7545 52.5751 19.5531L52.7881 19.8193C52.2025 20.4049 50.5521 20.0855 49.5938 19.4999C50.2859 19.1804 51.5636 19.0739 52.4687 19.6063L52.7881 19.8193ZM50.9795 18.3285C51.3522 17.5832 50.6601 16.1457 49.8082 15.4004C49.7018 16.1457 49.9147 17.3702 50.7133 18.1156L50.9795 18.3285L50.6601 18.1688C49.7018 17.7429 48.424 17.9559 47.7852 18.3285C48.7967 18.8077 50.3939 18.9674 50.9795 18.3285ZM48.9558 16.9971C49.2753 16.2517 48.3702 14.8675 47.4651 14.1754C47.4119 14.9208 47.7846 16.1453 48.6364 16.7841L48.9558 16.9971C48.4767 17.6892 46.8263 17.6892 45.7615 17.3165C46.3471 16.8906 47.5716 16.5179 48.5831 16.8906L48.9558 16.9971Z" fill="white"/>
<path fill-rule="evenodd" clip-rule="evenodd" d="M46.8794 15.8792C46.4535 16.6246 44.8563 16.7843 43.7383 16.5181C44.2707 16.039 45.4952 15.5598 46.5067 15.7728L46.8794 15.8792L46.5599 15.6663C45.6549 15.1339 45.1757 13.9626 45.1225 13.2173C46.0808 13.8562 47.0923 15.1339 46.8794 15.8792ZM37.1389 60.0146C37.5115 60.0146 37.7777 60.2808 37.7777 60.6535C37.7777 60.9729 37.5115 61.2924 37.1389 61.2924C36.7662 61.2924 36.5 61.0262 36.5 60.6535C36.5532 60.2808 36.8194 60.0146 37.1389 60.0146ZM45.4433 15.2401L45.1771 14.9739C44.3786 14.2818 43.1008 14.1753 42.3555 14.3883C43.2605 15.1336 44.7512 15.7193 45.4433 15.2401ZM28.9375 15.2397C29.6296 15.7189 31.1736 15.1332 32.0254 14.3879C31.2801 14.1749 30.0023 14.3346 29.2037 14.9735L28.9375 15.2397ZM35.5429 60.653C35.3299 61.4516 33.8392 62.0904 32.668 62.0904C33.0939 61.4516 34.1054 60.7062 35.117 60.653H35.5429C35.5429 59.8012 34.2119 58.8429 33.1471 58.5767C33.3601 59.2688 34.1587 60.2803 35.1702 60.5465L35.5429 60.653ZM33.2001 60.3342C33.3066 59.4824 32.0821 58.4176 31.0173 57.9917C31.1771 58.737 31.8692 59.8018 32.8275 60.1745L33.2001 60.3342L32.8275 60.281C31.7627 60.2277 30.6979 60.8666 30.2188 61.4522C31.3368 61.5587 32.8807 61.1328 33.2001 60.3342ZM30.8574 59.8016C30.4847 60.5469 28.8876 60.8663 27.7695 60.6534C28.3019 60.121 29.4199 59.5354 30.4847 59.7483L30.8574 59.8016C31.0171 59.003 29.9523 57.7785 28.9408 57.2461C29.0473 57.9914 29.5797 59.1095 30.538 59.5886L30.8574 59.8016ZM28.6177 59.0023C28.8839 58.2037 27.9256 56.926 26.9673 56.2871C26.9673 57.0325 27.4464 58.2037 28.2982 58.7893L28.6177 59.0023L28.245 58.8958C27.2334 58.6296 26.009 59.0555 25.4766 59.5347C26.5413 59.8541 28.1917 59.6944 28.6177 59.0023ZM26.4365 57.9921C25.9574 58.6842 24.307 58.631 23.2422 58.205C23.8811 57.7791 25.1056 57.4597 26.0639 57.8324L26.4365 57.9921C26.756 57.2467 25.9574 55.8625 25.0523 55.1172C24.9991 55.8625 25.3185 57.087 26.1171 57.7259L26.4365 57.9921ZM24.3625 56.8205C24.7884 56.0752 24.0963 54.6377 23.2977 53.8391C23.138 54.5845 23.3509 55.809 24.0963 56.5543L24.3625 56.8205L24.043 56.6608C23.0847 56.1817 21.8602 56.3946 21.1681 56.714C22.1797 57.1932 23.8301 57.4062 24.3625 56.8205ZM22.4446 55.3823C21.8057 55.9147 20.2085 55.5953 19.2502 54.9564C19.9423 54.637 21.2201 54.5838 22.1251 55.1694L22.4446 55.3823L22.1784 55.1161C21.4863 54.3176 21.433 53.0398 21.646 52.3477C22.3913 53.1995 22.9237 54.6902 22.4446 55.3823ZM20.6841 53.7856C19.992 54.2648 18.448 53.7856 17.543 53.0403C18.2351 52.8273 19.566 52.8806 20.3646 53.5194L20.6841 53.7856C21.2165 53.1468 20.8438 51.6028 20.2049 50.6445C19.9387 51.3366 19.8855 52.6144 20.4711 53.4662L20.6841 53.7856ZM19.0932 52.0278C18.3479 52.4537 16.8572 51.7616 16.0586 50.9631C16.8039 50.8033 18.0817 51.0163 18.827 51.7616L19.0932 52.0278C19.7321 51.4422 19.4659 49.845 18.9335 48.8335C18.5608 49.4724 18.4011 50.7501 18.8803 51.6552L19.0932 52.0278ZM17.7055 50.1118C16.9069 50.4845 15.5227 49.6327 14.7773 48.7808C15.5227 48.7276 16.7472 49.047 17.4393 49.8456L17.7055 50.1118L17.5458 49.7391C17.1731 48.7808 17.4393 47.5563 17.8652 46.9175C18.2911 47.9823 18.3444 49.6327 17.7055 50.1118ZM16.4794 48.0889L16.3729 47.7162C16.0535 46.7046 16.4794 45.5334 17.0118 44.9478C17.3312 46.0125 17.1715 47.6629 16.4794 48.0889L16.2664 47.7694C15.6808 46.9176 14.4563 46.4384 13.7109 46.4384C14.3498 47.3967 15.6808 48.355 16.4794 48.0889ZM15.4695 45.9062C14.6709 46.1192 13.4465 45.0012 12.9141 44.0429C13.6594 44.0961 14.8307 44.6817 15.3098 45.5868L15.4695 45.9062C16.2149 45.5335 16.4811 43.9364 16.2681 42.8184C15.7357 43.3507 15.2033 44.4688 15.3631 45.5335L15.4695 45.9062ZM14.7239 43.6699L14.6706 43.2972C14.5642 42.2324 15.2563 41.1676 15.8419 40.6885C15.9484 41.8065 15.5225 43.4037 14.7239 43.6699L14.5642 43.2972C14.1382 42.3389 13.0735 41.6468 12.3281 41.4871C12.754 42.6051 13.8721 43.7763 14.7239 43.6699ZM14.1921 41.3803V41.0076C14.1921 39.9428 14.9906 38.9313 15.6295 38.5586C15.5763 39.6234 14.9906 41.1673 14.1921 41.3803L14.0856 41.0076C13.7661 39.996 12.7546 39.2507 12.0625 38.9845C12.3819 40.1025 13.3402 41.3803 14.1921 41.3803ZM13.8736 39.0381C13.0218 38.9848 12.17 37.6006 11.957 36.4826C12.6491 36.7488 13.5542 37.6539 13.7672 38.6654L13.8736 39.0381C14.7255 38.9316 15.4708 37.4942 15.5773 36.3229C14.8852 36.6423 14.0334 37.6006 13.9269 38.6122L13.8736 39.0381ZM13.8198 36.6429C12.968 36.4832 12.2759 35.0458 12.2227 33.9277C12.8615 34.3004 13.7133 35.2587 13.8198 36.2702V36.6429C14.6716 36.5897 15.5235 35.2587 15.7897 34.1407C15.0976 34.4069 14.1393 35.2587 13.9263 36.2702L13.8198 36.6429ZM13.9833 34.3002C13.1847 34.034 12.6523 32.5433 12.6523 31.3721C13.2912 31.798 13.9833 32.8628 13.9833 33.8743V34.3002C14.8351 34.3535 15.8467 33.0757 16.2194 32.0109C15.474 32.2239 14.4625 32.9692 14.143 33.9275L13.9833 34.3002ZM14.4082 31.9575L14.5679 31.638C14.9938 30.6797 16.1118 30.0409 16.8572 29.9344C16.378 30.8927 15.26 32.0639 14.4082 31.9575L14.4614 31.5848C14.5679 30.52 13.929 29.4552 13.3967 28.9761C13.2369 30.0409 13.6629 31.638 14.4082 31.9575ZM15.101 29.6674C14.3556 29.2948 14.1427 27.6976 14.3556 26.5796C14.888 27.112 15.3672 28.2832 15.1542 29.2948L15.101 29.6674C15.8995 29.8804 17.1773 28.8156 17.7097 27.8573C16.9643 27.9106 15.7931 28.443 15.2607 29.348L15.101 29.6674ZM15.9502 27.4849C15.2581 27.0058 15.2049 25.4086 15.5243 24.3438C16.0034 24.9295 16.3761 26.1539 16.0567 27.1122L15.9502 27.4849C16.7488 27.8044 18.0798 26.8461 18.7719 25.941C18.0265 25.941 16.802 26.3137 16.1632 27.1655L15.9502 27.4849ZM17.0685 25.3562C17.8138 25.7289 19.2513 24.9303 19.9966 24.1317C19.2513 24.0253 17.9735 24.2915 17.2814 25.09L17.0685 25.3562L17.2282 25.0368C17.6541 24.0785 17.3879 22.854 17.0152 22.2151C16.5361 23.2267 16.3764 24.8239 17.0685 25.3562ZM18.3437 23.3857C17.7581 22.8001 18.0243 21.2029 18.6099 20.1914C18.9293 20.8835 19.0891 22.108 18.5567 23.0131L18.3437 23.3857L18.6099 23.1195C19.4085 22.4274 20.633 22.2677 21.3783 22.4274C20.5797 23.1728 19.0891 23.8117 18.3437 23.3857ZM19.8896 21.5224L20.209 21.3095C21.0608 20.6706 22.3386 20.6706 23.0307 20.8836C22.0724 21.5757 20.5285 22.0548 19.8896 21.5224L20.1025 21.203C20.7414 20.3512 20.6882 19.0735 20.422 18.3813C19.7831 19.3396 19.3572 20.8836 19.8896 21.5224ZM21.5371 19.873C21.058 19.1809 21.6436 17.6902 22.389 16.8384C22.6019 17.5305 22.4422 18.8082 21.7501 19.6068L21.5371 19.873C22.1228 20.4586 23.7732 20.1392 24.7315 19.5536C24.0394 19.2341 22.7616 19.1277 21.8566 19.66L21.5371 19.873ZM23.4034 18.3283C23.0307 17.583 23.776 16.1455 24.5746 15.4002C24.6811 16.1455 24.4681 17.37 23.6695 18.1154L23.4034 18.3283L23.7228 18.1686C24.6811 17.7427 25.9588 17.9557 26.5977 18.3283C25.5861 18.8075 23.9357 18.9672 23.4034 18.3283ZM25.3741 17.0507L25.7468 16.9442C26.7583 16.5715 27.9828 16.9442 28.5685 17.3701C27.5037 17.7428 25.8533 17.6895 25.3741 17.0507L25.6935 16.8377C26.5454 16.1988 26.918 14.9743 26.8648 14.229C25.9597 14.8679 25.0547 16.2521 25.3741 17.0507ZM27.5013 15.9325C27.2884 15.1339 28.2999 13.8561 29.2582 13.2705C29.205 14.0159 28.7258 15.1871 27.8208 15.7195L27.5013 15.9325L27.874 15.826C28.8855 15.5598 30.11 16.0389 30.6424 16.5713C29.5244 16.8375 27.874 16.6246 27.5013 15.9325ZM38.793 60.653C39.0059 61.4516 40.4966 62.0904 41.6679 62.0904C41.2952 61.4516 40.2304 60.7062 39.2189 60.653H38.793C38.793 59.8012 40.1239 58.8429 41.1887 58.5767C40.9758 59.2688 40.1772 60.2803 39.1656 60.5465L38.793 60.653ZM41.1315 60.3342C41.025 59.4824 42.2495 58.4176 43.3143 57.9917C43.1546 58.737 42.4625 59.8018 41.5042 60.1745L41.1315 60.3342L41.5042 60.281C42.5689 60.2277 43.6337 60.8666 44.1129 61.4522C42.9949 61.5587 41.3977 61.1328 41.1315 60.3342ZM43.4756 59.8011L43.795 59.6413C44.7533 59.1622 45.2857 58.0442 45.3922 57.2988C44.3806 57.778 43.2626 58.9492 43.4756 59.8011L43.8482 59.7478C44.913 59.5881 46.031 60.1205 46.5634 60.6529C45.4454 60.8126 43.795 60.5464 43.4756 59.8011ZM45.7131 59.0023C45.4469 58.2037 46.4052 56.926 47.3635 56.2871C47.3635 57.0325 46.8843 58.2037 46.0325 58.7893L45.7131 59.0023L46.0858 58.8958C47.0973 58.6296 48.3218 59.0555 48.8542 59.5347C47.7894 59.8541 46.139 59.6944 45.7131 59.0023ZM47.8959 57.9921C48.3751 58.6842 50.0255 58.631 51.0903 58.205C50.4514 57.7791 49.2269 57.4597 48.2686 57.8324L47.8959 57.9921C47.5765 57.2467 48.3751 55.8625 49.2802 55.1172C49.3334 55.8625 49.014 57.087 48.2154 57.7259L47.8959 57.9921ZM49.9149 56.767C49.489 56.0217 50.1811 54.5842 50.9797 53.7856C51.1394 54.531 50.9265 55.7555 50.1811 56.5008L49.9149 56.767L50.2344 56.6073C51.1927 56.1282 52.4172 56.3411 53.1093 56.6605C52.151 57.1929 50.5006 57.4059 49.9149 56.767ZM51.8349 55.3823C52.4738 55.9147 54.0709 55.5952 55.0292 54.9564C54.3371 54.6369 53.0594 54.5837 52.1543 55.1693L51.8349 55.3823L52.1011 55.1161C52.7932 54.3175 52.8464 53.0398 52.6335 52.3477C51.9414 53.1462 51.3557 54.6902 51.8349 55.3823ZM53.6417 53.7858L53.8546 53.4664C54.4403 52.6145 54.387 51.3368 54.1208 50.6447C53.4287 51.5498 53.056 53.1469 53.6417 53.7858L53.9611 53.5728C54.7597 52.934 56.0907 52.8275 56.7828 53.0937C55.8777 53.7326 54.2805 54.2649 53.6417 53.7858ZM55.2367 52.0278C55.9821 52.4537 57.4728 51.7616 58.2713 50.9631C57.526 50.8033 56.2483 51.0163 55.5029 51.7616L55.2367 52.0278C54.5978 51.4422 54.864 49.845 55.3964 48.8335C55.7691 49.4724 55.9288 50.7501 55.4497 51.6552L55.2367 52.0278ZM56.6247 50.1118C57.37 50.4845 58.8075 49.6327 59.5528 48.7808C58.8075 48.7276 57.583 49.047 56.8909 49.8456L56.6247 50.1118L56.7844 49.7391C57.1571 48.7808 56.8909 47.5563 56.465 46.9175C56.0391 47.9823 55.9858 49.5794 56.6247 50.1118ZM57.8465 48.0351C58.6451 48.3013 59.9761 47.343 60.6149 46.3847C59.8696 46.3847 58.6451 46.8106 58.0595 47.7157L57.8465 48.0351C57.1544 47.6092 57.0479 45.9588 57.3674 44.894C57.8465 45.4797 58.2724 46.6509 57.953 47.6625L57.8465 48.0351ZM58.8579 45.9062C59.6564 46.1192 60.8809 45.0012 61.4133 43.9896C60.668 44.0429 59.4967 44.6285 59.0176 45.5335L58.8579 45.9062C58.1125 45.5335 57.8463 43.9364 58.0593 42.8184C58.5917 43.3507 59.124 44.4688 58.9643 45.5335L58.8579 45.9062ZM59.6068 43.6699C60.4586 43.7763 61.5234 42.5518 62.0026 41.5403C61.2572 41.7 60.1924 42.3389 59.7665 43.3504L59.6068 43.6699C58.8082 43.4037 58.3823 41.8065 58.4888 40.6885C59.0744 41.1676 59.7133 42.2324 59.66 43.2972L59.6068 43.6699ZM60.1367 41.3275C60.9885 41.3275 61.9468 40.0498 62.2662 38.985C61.5741 39.198 60.5093 39.9965 60.2431 41.0081L60.1367 41.3275C59.3381 41.1146 58.7525 39.6239 58.6992 38.5059C59.3381 38.9318 60.0834 39.9433 60.1367 40.9549V41.3275ZM60.4576 38.9847C61.3094 38.9315 62.1612 37.5473 62.3742 36.4292C61.682 36.6954 60.7237 37.6005 60.564 38.612L60.4576 38.9847C59.6057 38.8782 58.8604 37.4408 58.7539 36.2695C59.446 36.589 60.2978 37.5473 60.4043 38.5588L60.4576 38.9847ZM60.5089 36.6429L60.4024 36.2702C60.1895 35.2587 59.2312 34.4069 58.5391 34.1407C58.8053 35.2055 59.6571 36.5897 60.5089 36.6429L60.5621 36.2702C60.6686 35.2055 61.5204 34.2472 62.1593 33.9277C62.0528 34.9925 61.3607 36.4832 60.5089 36.6429ZM60.3493 34.247C61.1479 34.034 61.6803 32.4901 61.6803 31.3721C61.0414 31.798 60.3493 32.8628 60.3493 33.8743V34.247C59.4975 34.3002 58.486 33.0225 58.1133 31.9577C58.8586 32.1707 59.8702 32.916 60.1896 33.8743L60.3493 34.247ZM59.9216 31.9037C60.7202 31.5843 61.0929 30.0404 60.9332 28.9224C60.3476 29.4015 59.7087 30.5195 59.8684 31.5311L59.9216 31.9037C59.0698 32.0102 57.9518 30.8922 57.4727 29.8274C58.218 29.9339 59.336 30.5728 59.7619 31.5311L59.9216 31.9037ZM59.2845 29.6674C60.0298 29.2948 60.2428 27.6976 60.0298 26.5796C59.4974 27.112 59.0183 28.2832 59.2313 29.2948L59.2845 29.6674C58.4859 29.8804 57.2082 28.8156 56.6758 27.8573C57.4211 27.9106 58.5924 28.443 59.1248 29.348L59.2845 29.6674ZM58.3817 27.4326L58.1688 27.1132C57.5299 26.2613 56.3586 25.8354 55.6133 25.8887C56.2521 26.847 57.5831 27.752 58.3817 27.4326L58.2752 27.0599C57.9558 26.0484 58.3285 24.8771 58.8076 24.2915C59.1271 25.3563 59.0738 27.0067 58.3817 27.4326ZM57.3188 25.3564C56.5734 25.7291 55.136 24.9305 54.3906 24.1319C55.136 24.0255 56.3605 24.2917 57.1058 25.0902L57.3188 25.3564L57.159 25.037C56.7331 24.0787 56.9993 22.8542 57.372 22.2153C57.8512 23.1736 57.9576 24.824 57.3188 25.3564ZM55.9838 23.3335C56.5695 22.7479 56.3033 21.1507 55.7709 20.1392C55.4515 20.8313 55.2917 22.0558 55.8241 22.9608L55.9838 23.3335L55.7176 23.0673C54.9191 22.3752 53.6946 22.2155 52.9492 22.3752C53.7478 23.1738 55.2917 23.8126 55.9838 23.3335ZM54.4964 21.5225L54.177 21.3095C53.3252 20.6707 52.0474 20.6707 51.3553 20.8836C52.2604 21.5757 53.8043 22.0549 54.4964 21.5225L54.2835 21.2031C53.6978 20.3512 53.6978 19.0735 53.964 18.3814C54.6029 19.2865 55.0288 20.8836 54.4964 21.5225ZM52.7881 19.8193C53.2672 19.1272 52.6816 17.6365 51.9363 16.7847C51.7233 17.53 51.883 18.7545 52.5751 19.5531L52.7881 19.8193C52.2025 20.4049 50.5521 20.0855 49.5938 19.4999C50.2859 19.1804 51.5636 19.0739 52.4687 19.6063L52.7881 19.8193ZM50.9795 18.3285C51.3522 17.5832 50.6601 16.1457 49.8082 15.4004C49.7018 16.1457 49.9147 17.3702 50.7133 18.1156L50.9795 18.3285L50.6601 18.1688C49.7018 17.7429 48.424 17.9559 47.7852 18.3285C48.7967 18.8077 50.3939 18.9674 50.9795 18.3285ZM48.9558 16.9971C49.2753 16.2517 48.3702 14.8675 47.4651 14.1754C47.4119 14.9208 47.7846 16.1453 48.6364 16.7841L48.9558 16.9971C48.4767 17.6892 46.8263 17.6892 45.7615 17.3165C46.3471 16.8906 47.5716 16.5179 48.5831 16.8906L48.9558 16.9971Z" fill="white"/>
<path fill-rule="evenodd" clip-rule="evenodd" d="M59.602 30.413V30.0403C59.6552 28.9756 58.9631 27.9108 58.3242 27.4849C58.3242 28.6029 58.8034 30.2001 59.602 30.413Z" fill="white"/>
<path fill-rule="evenodd" clip-rule="evenodd" d="M14.7724 30.413V30.0403C14.7192 28.9756 15.4113 27.9108 16.0502 27.4849C16.0502 28.6029 15.571 30.2001 14.7724 30.413Z" fill="white"/>
</svg>
