<svg width="109" height="22" viewBox="0 0 109 22" fill="none" xmlns="http://www.w3.org/2000/svg">
<path d="M56.9505 6.22952V13.431C56.9505 15.4765 55.9355 16.568 54.0912 16.568C52.2364 16.568 51.2153 15.445 51.2153 13.3437V6.23741H48.6636V13.431C48.6636 16.9705 50.6297 18.9988 54.0575 18.9988C57.5178 18.9988 59.5022 16.9316 59.5022 13.3272V6.22952H56.9505ZM66.3388 6.22952L60.7967 18.8027H63.4014L64.4711 16.3677L64.5477 16.1852H70.3051L71.4343 18.8027H74.1098L68.6193 6.30395L68.5699 6.22949L66.3388 6.22952ZM81.5109 6.22952L78.655 14.8807L75.8751 6.23598H73.1595L77.543 18.8106H79.6561L82.5177 10.5501L85.377 18.8106H87.508L91.8808 6.23598H89.2347L86.449 14.8807L83.5924 6.22952H81.5109ZM106.482 6.22952V18.792H109V6.22952H106.482ZM34.2571 6.23027V18.8099H36.8096V13.7008H42.5727V18.8099H45.1258V6.23027H42.5727V11.3051H36.8096V6.23027H34.2571ZM93.9388 6.23877V18.8013H103.439V16.5107H96.4569V13.3959H101.099V11.1046H96.4569V8.52933H103.195V6.23877H93.9388ZM67.42 9.41303L69.2397 13.6248H69.2333L69.3571 13.9154H65.4966L65.6189 13.6248H65.6168L67.42 9.41303Z" fill="black"/>
<path d="M12.411 6.22487e-05C12.0226 0.0344119 10.9732 0.273278 10.9732 0.273278H10.9728C8.6074 0.884661 8.04833 3.03118 8.04833 3.03118C7.93282 3.39212 7.88035 3.76204 7.86492 4.11054V4.58488C7.8963 5.31773 8.05929 5.86496 8.05929 5.86496C8.8494 9.36844 12.7342 15.1252 13.5692 16.3345C13.6284 16.3932 13.6758 16.372 13.6758 16.372C13.766 16.3471 13.7589 16.2607 13.7589 16.2607L13.7606 16.2611C15.0466 3.40721 12.411 7.46985e-05 12.411 7.46985e-05L12.411 6.22487e-05ZM16.6602 6.22487e-05C16.6602 6.22487e-05 14.013 3.40902 15.3 16.2704H15.3017C15.3116 16.352 15.3696 16.3691 15.3696 16.3691C15.4557 16.4024 15.4999 16.3197 15.4999 16.3197L15.5003 16.3205C16.3566 15.0803 20.2193 9.35493 21.0059 5.86489C21.0059 5.86489 21.4324 4.1757 21.0207 3.03111C21.0207 3.03111 20.436 0.851356 18.0676 0.275326C18.0676 0.275326 17.3851 0.102062 16.6602 0L16.6602 6.22487e-05ZM4.45014 3.85883C4.45014 3.85883 2.19638 5.99794 2.08436 8.26573H2.08526V8.60935C2.08697 8.63522 2.08828 8.66141 2.08991 8.68776C2.18699 10.5164 3.56267 11.5987 3.56267 11.5987C5.77917 13.759 11.1462 16.4864 12.3933 17.1052C12.4108 17.1117 12.4752 17.1328 12.5131 17.085C12.5131 17.085 12.5327 17.07 12.5417 17.0432V16.9862C12.5408 16.983 12.5391 16.9797 12.5375 16.9761H12.5379C9.12256 9.51509 4.45019 3.85875 4.45019 3.85875L4.45014 3.85883ZM24.6155 3.85883C24.6155 3.85883 19.9572 9.4974 16.5434 16.9433L16.5447 16.9429C16.5447 16.9429 16.5044 17.0292 16.5695 17.085C16.5695 17.085 16.589 17.0997 16.6159 17.1056H16.6631C16.6716 17.1032 16.6807 17.0999 16.6897 17.0938V17.0946C17.9707 16.4588 23.2962 13.7493 25.5022 11.5991C25.5022 11.5991 26.8993 10.4772 26.9725 8.6759C27.1338 6.17411 24.6155 3.85875 24.6155 3.85875L24.6155 3.85883ZM28.8082 11.2661C28.8082 11.2661 21.2138 15.3416 17.2871 17.9902L17.2876 17.9907L17.2884 17.9915C17.2884 17.9915 17.2172 18.0381 17.2421 18.1218C17.2421 18.1218 17.2793 18.1892 17.3336 18.1892V18.1897C18.74 18.1921 24.0622 18.1981 24.1956 18.1732C24.1956 18.1732 24.8838 18.1457 25.7341 17.819C25.7341 17.819 27.6272 17.2172 28.6105 15.0679C28.6105 15.0679 29.0598 14.1692 29.0663 12.9066V12.8531C29.063 12.3662 28.9944 11.8271 28.8083 11.2661H28.8082ZM0.255326 11.2851C-0.435651 13.4242 0.494577 15.1478 0.496079 15.1506C1.46549 17.1989 3.31595 17.8195 3.31595 17.8195C4.17029 18.1705 5.02482 18.1948 5.02482 18.1948C5.15825 18.2192 10.3386 18.1972 11.7266 18.1907C11.7854 18.1902 11.8177 18.1312 11.8177 18.1312C11.8218 18.1247 11.8254 18.1181 11.827 18.1122V18.0587C11.8155 18.0228 11.7848 17.9976 11.7848 17.9976L11.7857 17.9971C7.86104 15.3493 0.255388 11.2852 0.255388 11.2852L0.255326 11.2851ZM11.5681 18.8483L2.63417 19.1616C3.60302 20.8887 5.23467 22.2309 6.93439 21.8187C8.10736 21.5254 10.7647 19.6719 11.6419 19.0456L11.639 19.0432C11.7072 18.9819 11.6828 18.9327 11.6828 18.9327C11.6604 18.8525 11.5681 18.8526 11.5681 18.8526L11.5681 18.8483ZM17.4853 18.8548L17.4844 18.8581C17.4844 18.8581 17.406 18.868 17.384 18.9268C17.384 18.9268 17.365 19.0071 17.4178 19.0469L17.4169 19.0477C18.2722 19.6611 20.8651 21.4739 22.1143 21.8259C22.1143 21.8259 22.3035 21.8902 22.6206 21.9018H22.8112C23.6481 21.8724 25.1061 21.4424 26.4309 19.1662L17.4853 18.8548Z" fill="black"/>
</svg>
