<svg width="248" height="69" viewBox="0 0 248 69" fill="none" xmlns="http://www.w3.org/2000/svg">
<g clip-path="url(#clip0_1_718)">
<path fill-rule="evenodd" clip-rule="evenodd" d="M0 23.9702H13.885C23.9833 23.9702 29.7748 28.8795 29.7748 37.5652V37.7918C29.7748 46.3264 24.0575 51.1602 14.0336 51.1602H8.5389V67.3985H0V23.9702ZM13.885 44.6648C18.7856 44.6648 21.3844 42.2479 21.3844 37.7918V37.5652C21.3844 33.0335 19.0084 30.9187 13.885 30.9187H8.61318V44.6648H13.885Z" fill="#2A2A2A"/>
<path fill-rule="evenodd" clip-rule="evenodd" d="M43.66 41.0395H50.6397C60.4408 41.0395 65.8614 45.6467 65.8614 53.9547V54.1813C65.8614 62.5651 60.2178 67.3985 50.4912 67.3985H35.1211V23.9702H62.2229V30.9943H43.66V41.0395ZM49.8972 47.5349H43.5858V60.5255H50.1941C55.0947 60.5255 57.5451 58.3354 57.5451 54.1058V53.8792C57.5451 49.5742 55.0947 47.5349 49.8972 47.5349Z" fill="#2A2A2A"/>
<path d="M86.9485 44.7338L104.62 23.9636H95.1906L79.6721 42.619V24.0391H71.207V67.4677H79.7462V48.208L95.2647 67.3923H105.437L86.9485 44.7338Z" fill="#2A2A2A"/>
<path d="M135.688 22.4292L114.052 44.275H114.023C114.023 42.5919 114.115 40.9391 114.48 39.3692C114.525 39.1669 114.682 38.9929 114.728 38.7987L130.189 23.3771C130.36 23.3326 130.421 23.0838 130.595 23.0454C131.984 22.714 133.402 22.5142 134.83 22.4486C135.094 22.412 135.327 22.4289 135.688 22.4292Z" fill="black"/>
<path d="M144.241 24.1493L124.002 44.85H119.156L140.517 23C141.79 23.2672 143.037 23.6519 144.241 24.1493Z" fill="black"/>
<path d="M151.652 28.4668L133.998 44.85H128.848L148.676 26.45C149.724 27.0485 150.719 27.7229 151.652 28.4668Z" fill="black"/>
<path d="M156.213 33.2756L143.617 44.8501H139.427H138.539L154.039 30.4751C154.841 31.3538 155.568 32.2902 156.213 33.2756Z" fill="black"/>
<path d="M159.063 40.0597L154.044 44.8487H150.184L149.371 44.8501L157.922 36.2251C158.419 37.4655 158.8 38.7491 159.063 40.0597Z" fill="black"/>
<path d="M135.688 0H114.023V22.4804V44.85C114.023 38.6679 116.553 33.1813 120.476 29.1381C123.29 26.2002 126.829 24.1144 130.71 23.1068C132.334 22.6908 134.014 22.4264 135.688 22.425V0Z" fill="black"/>
<path d="M158.492 0H135.688V22.425H158.492V0Z" fill="#FFCC66"/>
<path d="M136.828 67.2751C139.748 67.2751 142.64 66.6949 145.338 65.5679C148.035 64.4409 150.486 62.789 152.551 60.7069C154.616 58.6242 156.254 56.1524 157.37 53.4316C158.488 50.7109 159.062 47.7949 159.062 44.8501H136.83L136.828 67.2751Z" fill="#FFCC66"/>
<path d="M226.04 62.1001L226.334 62.586V66.7932L226.04 67.2751C224.416 67.2808 222.795 67.125 221.203 66.8105L226.04 62.1001Z" fill="black"/>
<path d="M225.765 51.75V52.8406V56.8232L217.109 65.55C215.96 65.0981 214.851 64.5541 213.793 63.9239L225.765 51.75Z" fill="black"/>
<path d="M226.07 43.9805L226.338 44.321V46.0554L226.07 46.5094L211.1 62.1C210.224 61.322 209.409 60.4721 208.664 59.5579L223.622 43.9805L224.046 43.7H225.762L226.07 43.9805Z" fill="black"/>
<path d="M218.355 44.5423L206.878 56.3499C206.243 55.2808 205.695 54.159 205.242 52.9963L213.456 44.553L214.039 44.2749H217.789L218.355 44.5423Z" fill="black"/>
<path d="M208.092 44.5716L203.953 49.4499C203.671 47.845 203.53 46.2104 203.531 44.5716L203.824 44.2749H207.684L208.092 44.5716Z" fill="black"/>
<path d="M229.756 22.898L224.917 27.5998L224.625 27.0198V22.7519L224.921 22.4248C226.545 22.4231 228.165 22.5816 229.756 22.898Z" fill="#FFCC66"/>
<path d="M237.168 25.8004L224.912 37.3749L224.625 36.6672V32.8188L224.916 32.4338L233.688 24.1499L237.168 25.8004Z" fill="#FFCC66"/>
<path d="M227.676 44.8501L242.869 30.1977C242.068 29.2652 241.195 28.3966 240.257 27.6001L225.195 42.4923V44.8501H227.676Z" fill="#FFCC66"/>
<path d="M246.859 36.8628L238.287 45.7089L237.747 46.0001H233.589L233.176 45.7089L245.148 33.3501C245.814 34.4691 246.385 35.6442 246.859 36.8628Z" fill="#FFCC66"/>
<path d="M248.002 45.2607L247.615 46H242.914L242.301 45.7034L247.478 40.825C247.827 42.4302 248.003 43.622 248.002 45.2607Z" fill="#FFCC66"/>
<path d="M185.858 22.8704L181.297 27.6001V22.4251C182.741 22.4235 184.444 22.5727 185.858 22.8704Z" fill="black"/>
<path d="M193.27 25.7785L181.297 37.3749V32.7036L189.947 24.1499C189.947 24.1499 191.024 24.5173 191.773 24.8846C192.522 25.252 193.27 25.7785 193.27 25.7785Z" fill="black"/>
<path d="M198.401 30.0799L183.629 44.8501H181.902H181.297V44.158V42.3786L181.569 42.1048L195.955 27.6001C196.833 28.3605 197.651 29.1897 198.401 30.0799Z" fill="black"/>
<path d="M202.39 36.1279L193.409 44.8499H189.312H188.707L200.704 32.7749C201.36 33.843 201.923 34.9647 202.39 36.1279Z" fill="black"/>
<path d="M203.533 44.8493H203.206H199.228L198.402 44.85L203.09 40.25C203.386 41.6767 203.534 43.393 203.533 44.8493Z" fill="black"/>
<path d="M225.766 22.425C219.871 22.4245 214.218 24.7864 210.049 28.9915C205.88 33.1967 203.535 38.9009 203.531 44.85H225.766V22.425Z" fill="#FFCC66"/>
<path d="M225.766 67.2751C231.66 67.2757 237.313 64.9136 241.483 60.7086C245.652 56.5035 247.996 50.7993 248 44.8501H225.774V67.2751H225.766Z" fill="black"/>
<path d="M176.734 66.7996L181.295 62.1001C181.295 62.1001 181.295 66.5356 181.293 67.2751C179.775 67.2751 178.255 67.2009 176.734 66.7996Z" fill="black"/>
<path d="M181.297 52.325V57.2661L173.133 65.55C172.01 65.0928 170.927 64.5408 169.895 63.8997L181.297 52.325Z" fill="black"/>
<path d="M173.886 44.8501L162.411 56.9251C161.775 55.8318 161.227 54.6843 160.773 53.4946L168.991 44.8501H173.886Z" fill="black"/>
<path d="M164.194 44.8501L159.532 49.4501C159.218 47.9364 159.061 46.3952 159.063 44.8501H164.194Z" fill="black"/>
<path d="M181.299 44.8501V47.3635L166.695 62.1001C165.797 61.3279 164.962 60.4855 164.195 59.5804L178.791 44.8501H181.299Z" fill="black"/>
<path d="M181.297 22.425C175.403 22.425 169.749 24.7872 165.58 28.9923C161.411 33.1974 159.066 38.9012 159.062 44.85H181.297V22.425Z" fill="#FFCC66"/>
<path d="M181.297 67.2751C187.192 67.2757 192.845 64.9136 197.014 60.7086C201.183 56.5035 203.528 50.7993 203.532 44.8501H181.297V67.2751Z" fill="#FFCC66"/>
</g>
<defs>
<clipPath id="clip0_1_718">
<rect width="248" height="69" fill="white"/>
</clipPath>
</defs>
</svg>
