<svg width="40" height="33" viewBox="0 0 40 33" fill="none" xmlns="http://www.w3.org/2000/svg">
<path fill-rule="evenodd" clip-rule="evenodd" d="M2.74974 14.2062C13.4869 9.54899 20.6469 6.47866 24.2298 4.99517C34.4585 0.760346 36.5838 0.0247039 37.9694 0.000291022C38.2743 -0.00540532 38.9553 0.0702733 39.3967 0.426702C39.7694 0.727794 39.8716 1.13468 39.9207 1.41949C39.9697 1.70431 40.031 2.35532 39.982 2.86311C39.4277 8.66117 37.0294 22.7303 35.8097 29.2242C35.2931 31.9722 34.2762 32.8934 33.292 32.9837C31.1535 33.1791 29.5293 31.5759 27.4571 30.2251C24.2159 28.1093 22.384 26.7918 19.2376 24.7281C15.6008 22.3422 17.9583 21.0312 20.0306 18.8886C20.5733 18.3271 29.9977 9.79393 30.18 9.02004C30.2029 8.92239 30.2241 8.56189 30.0083 8.37147C29.7933 8.18105 29.4753 8.24615 29.2456 8.29823C28.9211 8.37147 23.7418 11.7795 13.7101 18.5207C12.2395 19.5257 10.9087 20.0148 9.7152 19.9896C8.39993 19.9611 5.87075 19.249 3.98981 18.6404C1.68298 17.8941 -0.149736 17.4995 0.00966559 16.2316C0.0930451 15.5717 1.00613 14.897 2.74974 14.2062Z" fill="black"/>
</svg>
