<svg width="95" height="18" viewBox="0 0 95 18" fill="none" xmlns="http://www.w3.org/2000/svg">
<g clip-path="url(#clip0_271_98)">
<path d="M9.46877 0.219727V8.90723C9.46877 9.31348 9.15627 9.59473 8.78127 9.59473H7.75002C7.68752 9.59473 7.65627 9.65723 7.65627 9.68848V16.9697C7.90627 16.9697 8.15627 17.0322 8.43752 17.0322C13.0938 17.0322 16.875 13.251 16.875 8.59473C16.875 4.31348 13.6563 0.719727 9.46877 0.219727ZM9.28127 13.2197C8.68752 13.2197 8.25002 12.7197 8.25002 12.1885C8.25002 11.5947 8.75002 11.1572 9.28127 11.1572C9.87502 11.1572 10.3125 11.6572 10.3125 12.1885C10.375 12.751 9.87502 13.2197 9.28127 13.2197ZM11.75 13.2197C11.1563 13.2197 10.7188 12.7197 10.7188 12.1885C10.7188 11.5947 11.2188 11.1572 11.75 11.1572C12.3438 11.1572 12.7813 11.6572 12.7813 12.1885C12.7813 12.7197 12.375 13.2197 11.75 13.2197ZM14.25 13.2197C13.6563 13.2197 13.2188 12.7197 13.2188 12.1885C13.2188 11.5947 13.7188 11.1572 14.25 11.1572C14.8438 11.1572 15.2813 11.6572 15.2813 12.1885C15.2813 12.7197 14.8438 13.2197 14.25 13.2197Z" fill="black"/>
<path d="M8.4375 0.188477C3.78125 0.188477 0 3.96973 0 8.62598C0 12.7197 2.84375 16.0635 6.65625 16.8447V9.25098C6.65625 8.90723 6.96875 8.62598 7.28125 8.56348H8.3125C8.375 8.56348 8.40625 8.50098 8.40625 8.46973L8.4375 0.188477ZM6.8125 7.12598C6.21875 7.12598 5.78125 6.62598 5.78125 6.09473C5.78125 5.50098 6.28125 5.06348 6.8125 5.06348C7.40625 5.06348 7.84375 5.56348 7.84375 6.09473C7.84375 6.62598 7.375 7.12598 6.8125 7.12598Z" fill="black"/>
<path d="M92.9061 4.78223V7.96973H88.6561V4.78223H86.4999V13.2197H88.6561V9.81348H92.9061V13.2197H94.9999V4.78223H92.9061ZM57.7811 5.75098C57.4374 5.00098 56.7499 4.59473 56.0624 4.59473C55.3749 4.59473 54.6561 5.00098 54.3436 5.75098L50.9374 13.251H53.1874L53.9374 11.4697H58.3124L59.0624 13.251H61.3124L57.7811 5.75098V5.75098ZM54.5311 9.78223L55.8124 6.68848C55.8749 6.59473 55.9061 6.59473 55.9686 6.59473C56.0311 6.59473 56.1249 6.59473 56.1249 6.68848L57.4061 9.78223H54.5311ZM32.6561 3.28223C31.6561 3.28223 31.0311 3.81348 30.5624 4.87598L27.8436 11.2197L25.0936 4.84473C24.6561 3.81348 23.9999 3.25098 22.9999 3.25098C22.0624 3.25098 21.1249 3.87598 21.1249 5.34473V13.1885H23.2186V5.62598L25.9999 11.9072C26.3436 12.8135 26.9999 13.3447 27.8436 13.3447C28.7499 13.3447 29.3436 12.8135 29.6874 11.9072L32.4686 5.62598V13.2822H34.5624V5.43848C34.5311 3.96973 33.5936 3.28223 32.6561 3.28223V3.28223ZM38.2499 11.4385C38.1561 11.4385 38.0311 11.3447 38.0311 11.2197V9.71973H43.2811V8.00098H38.0311V6.71973C38.0311 6.62598 38.1249 6.50098 38.2499 6.50098H43.4686V4.71973H37.2186C36.4686 4.71973 35.9686 5.31348 35.9686 5.96973V11.876C35.9686 12.501 36.4999 13.126 37.2186 13.126H43.4686V11.3447H38.2499V11.4385V11.4385ZM46.9999 13.2197V6.78223C46.9999 6.68848 47.0936 6.56348 47.2186 6.56348H52.4374V4.78223H46.1874C45.4374 4.78223 44.9374 5.37598 44.9374 6.03223V13.1885L46.9999 13.2197V13.2197ZM85.1249 9.03223C85.1249 6.09473 83.8436 4.71973 80.6561 4.71973H79.9061C76.7186 4.71973 75.4374 6.12598 75.4374 9.03223C75.4374 11.9072 76.7186 13.3447 79.9061 13.3447H80.5936C83.8436 13.2822 85.1249 11.9072 85.1249 9.03223V9.03223ZM80.5936 11.5635H79.9061C78.1874 11.5635 77.4686 10.7822 77.4686 9.03223C77.4686 7.34473 78.0624 6.50098 79.9061 6.50098H80.5936C82.3749 6.50098 83.0311 7.34473 83.0311 9.03223C83.0311 10.751 82.3749 11.5635 80.5936 11.5635ZM69.5936 3.46973H65.4061C62.2811 3.46973 61.0311 5.06348 61.0311 7.78223C61.0311 8.21973 61.0936 8.62598 61.1249 8.96973C61.4686 10.9072 62.6249 12.0947 65.5311 12.0947H66.4686V13.1885H68.5624V12.0947H69.4686C72.4061 12.0947 73.5624 10.9072 73.8749 8.96973C73.9374 8.62598 73.9686 8.21973 73.9686 7.78223C73.9374 5.06348 72.6561 3.46973 69.5936 3.46973V3.46973ZM66.4061 10.3447H65.4686C64.0311 10.3447 63.5311 9.81348 63.2186 8.93848C63.1249 8.62598 63.1249 8.18848 63.1249 7.75098C63.1249 5.96973 63.9686 5.21973 65.1561 5.21973H66.4374V10.3447H66.4061ZM71.7811 9.03223C71.4686 9.87598 70.9374 10.4385 69.5311 10.4385H68.5936V5.28223H69.8749C71.0624 5.28223 71.9061 6.03223 71.9061 7.81348C71.8749 8.28223 71.8749 8.65723 71.7811 9.03223V9.03223Z" fill="black"/>
</g>
<defs>
<clipPath id="clip0_271_98">
<rect width="95" height="17.1875" fill="white"/>
</clipPath>
</defs>
</svg>
