<svg width="48" height="13" viewBox="0 0 48 13" fill="none" xmlns="http://www.w3.org/2000/svg">
<g clip-path="url(#clip0_271_107)">
<path fill-rule="evenodd" clip-rule="evenodd" d="M2.02327 0.00769106C1.81945 -0.00769237 1.25329 0.176908 0.951337 0.961453L0.000183105 3.06126H4.86918L4.90693 12.6912H9.91181L9.87407 3.06126H13.6787V0.00769106H2.02327ZM21.4389 0.00769106V3.09203H19.8612V4.77649H21.4389V7.50702H19.8385V9.92988H21.4389V12.6758H14.8563V1.23835C14.9544 0.446114 15.4828 0 16.1471 0L21.4389 0.00769106ZM21.4389 3.09203V0.00769106H28.1272C27.3043 1.78445 27.1232 3.0305 25.9078 3.09203H21.4389ZM28.2706 7.19936V10.3145C27.8328 11.6143 26.6249 12.6758 23.3185 12.6758H21.4389V9.92988H21.7182C22.609 9.92219 22.8883 9.46069 23.0543 8.77613C23.0543 8.05312 22.6391 7.50702 21.6352 7.50702H21.4389V4.77649H23.7413C26.5796 4.77649 27.8177 5.82256 28.2706 7.19936ZM28.2706 12.0605L28.0366 12.6296H28.2706V12.0605ZM28.2706 10.3145V7.19936C28.4367 7.707 28.5046 8.2608 28.5046 8.82229C28.4895 9.32224 28.4291 9.83758 28.2706 10.3145ZM44.1005 0H41.7679H41.7377C41.0961 0.00769171 40.6582 0.323047 40.4469 0.95376L38.771 5.72256V0H36.4233H34.0907H34.0605C33.4189 0.00769171 32.9886 0.323047 32.7697 0.95376L28.2706 12.0605V12.6296H30.8523C31.5619 12.6296 32.0903 12.3604 32.3545 11.722L34.7399 5.79179V12.6681H38.5672C39.2768 12.6681 39.8052 12.3604 40.0694 11.722L42.2359 5.77641V12.6219H47.1804V0H44.1005Z" fill="black"/>
</g>
<defs>
<clipPath id="clip0_271_107">
<rect width="47.2746" height="12.6912" fill="white"/>
</clipPath>
</defs>
</svg>
