<svg width="128" height="128" viewBox="0 0 128 128" fill="none" xmlns="http://www.w3.org/2000/svg">
<path fill-rule="evenodd" clip-rule="evenodd" d="M120.538 50.8253L124.573 55.1352C129.158 60.0869 129.158 67.973 124.481 72.833L120.446 77.1429C117.879 79.9855 116.595 83.9286 117.145 87.8716L117.97 93.832C118.979 100.709 114.486 107.037 107.975 108.229L102.29 109.237C98.5303 109.879 95.3208 112.355 93.5785 115.84L90.8276 121.158C87.7098 127.302 80.5573 129.686 74.5969 126.66L69.3701 124.001C65.9772 122.259 61.9425 122.259 58.5496 124.001L53.3228 126.66C47.3624 129.686 40.2099 127.21 37.0921 121.158L34.3412 115.84C32.5989 112.355 29.3894 109.879 25.6298 109.237L19.9445 108.229C13.4339 107.037 9.03232 100.618 9.94931 93.832L10.7746 87.8716C11.3248 83.9286 10.1327 79.9855 7.47344 77.1429L3.4387 72.833C-1.14623 67.8813 -1.14623 59.9952 3.4387 55.0435L7.47344 50.7336C10.041 47.9827 11.3248 44.0396 10.7746 40.0966L9.94931 34.1362C8.94062 27.2588 13.4339 20.9316 19.9445 19.7395L25.7215 18.7308C29.4811 18.0889 32.6906 15.613 34.4329 12.1285L37.1838 6.80996C40.3016 0.666146 47.4541 -1.71802 53.4145 1.30804L58.6413 3.9673C62.0342 5.70957 66.0689 5.70957 69.4618 3.9673L74.6886 1.30804C80.649 -1.71802 87.8015 0.757845 90.9193 6.80996L93.6702 12.1285C95.4125 15.613 98.622 18.0889 102.382 18.7308L108.067 19.7395C114.578 20.9316 118.979 27.3505 118.062 34.1362L117.237 40.0966C116.687 44.0396 117.879 47.9827 120.538 50.8253ZM15.7266 97.2256C15.7266 99.7931 17.7439 101.81 20.1281 101.81C22.5123 101.81 24.5296 99.7931 24.5296 97.2256C24.5296 94.658 22.604 92.6406 20.1281 92.6406C17.6522 92.6406 15.7266 94.658 15.7266 97.2256Z" fill="#B9AF79"/>
<path fill-rule="evenodd" clip-rule="evenodd" d="M32.875 69.5324V57.7949H37.0931C38.652 57.7949 39.7524 58.07 40.5777 58.6202C41.403 59.1704 41.7698 59.9957 41.7698 61.0044C41.7698 61.6463 41.5864 62.1048 41.3113 62.5633C41.0362 63.0217 40.5777 63.2968 40.0275 63.4802C40.6694 63.6636 41.1279 63.9387 41.403 64.3972C41.7698 64.8557 41.8615 65.4059 41.8615 66.0478C41.8615 67.1482 41.4947 68.0652 40.7611 68.6154C40.0275 69.1656 38.9271 69.4407 37.5516 69.5324H32.875ZM35.7167 62.6552H37.1839C37.8258 62.6552 38.2843 62.5635 38.4677 62.2884C38.7428 62.105 38.8345 61.7382 38.8345 61.2797C38.8345 60.8212 38.6511 60.4544 38.376 60.1793C38.1009 59.9959 37.6424 59.8125 37.0005 59.8125H35.625V62.6552H35.7167ZM35.7188 67.4227V64.5801H37.7361C38.7448 64.5801 39.2033 65.0386 39.2033 66.0473C39.2033 66.5058 39.0199 66.7808 38.7448 67.0559C38.4697 67.331 38.1029 67.4227 37.5527 67.4227H35.7188Z" fill="white"/>
<path fill-rule="evenodd" clip-rule="evenodd" d="M46.3583 65.4059H47.9172L50.1179 69.5324H53.144V69.2573L50.6681 64.5806C51.4017 64.3055 51.8602 63.847 52.227 63.2968C52.5021 62.7467 52.6855 62.1048 52.6855 61.2795C52.6855 60.1791 52.3187 59.3538 51.4934 58.7119C50.6681 58.07 49.5677 57.7949 48.1923 57.7949H43.5156V69.5324H46.3583V65.4059ZM48.1913 63.2055H46.3573C46.3573 63.2055 46.3573 59.996 46.2656 59.9043H48.0996C48.6498 59.9043 49.0166 60.0877 49.2917 60.3628C49.5668 60.6379 49.7502 61.0047 49.7502 61.5549C49.7502 62.1051 49.6585 62.4719 49.3834 62.747C49.1083 63.0221 48.7415 63.2055 48.1913 63.2055Z" fill="white"/>
<path fill-rule="evenodd" clip-rule="evenodd" d="M63.6831 66.9648C64.1415 66.0478 64.3249 65.0391 64.3249 63.9387V63.5719C64.3249 62.3799 64.1415 61.4629 63.6831 60.5459C63.2246 59.6289 62.6744 58.987 61.8491 58.5285C61.1155 58.07 60.1985 57.7949 59.1898 57.7949C58.1811 57.7949 57.3558 58.07 56.5306 58.5285C55.7053 58.987 55.1551 59.6289 54.6966 60.5459C54.2381 61.4629 54.0547 62.4716 54.0547 63.5719V64.2138C54.0547 65.3142 54.2381 66.3229 54.6966 67.1482C55.1551 67.9735 55.797 68.6154 56.5306 69.0739C57.2641 69.5324 58.1811 69.7158 59.1898 69.7158C60.1985 69.7158 61.0238 69.4407 61.8491 68.9822C62.6744 68.5237 63.2246 67.8818 63.6831 66.9648ZM60.9352 60.7295C61.302 61.3714 61.4854 62.1967 61.4854 63.3887V63.9389C61.4854 65.0393 61.302 65.8646 60.9352 66.5065C60.5684 67.1484 60.0182 67.4235 59.2847 67.4235C58.4594 67.4235 57.9092 67.1484 57.5424 66.5065C57.1756 65.8646 56.9922 64.9476 56.9922 63.8472V63.022C57.0839 60.9129 57.8175 59.8125 59.2847 59.8125C60.0182 59.8125 60.5684 60.0876 60.9352 60.7295Z" fill="white"/>
<path d="M75.7003 69.5324H72.8577L68.6395 62.1965V69.5324H65.7969V57.7949H68.6395L72.766 65.0391V57.7949H75.6086C75.7003 57.7949 75.7003 69.5324 75.7003 69.5324Z" fill="white"/>
<path d="M80.6523 67.3316H86.2459V69.5324H77.0761V68.0652L82.6697 59.9957H76.9844V57.7949H86.1542V59.2621L80.6523 67.3316Z" fill="white"/>
<path d="M94.8671 64.5806H90.3739V67.3316H95.6924V69.5324H87.5312V57.7949H95.6924V59.9957H90.3739V62.4716H94.8671V64.5806Z" fill="white"/>
<path fill-rule="evenodd" clip-rule="evenodd" d="M80.7383 27.3506C80.0048 28.6343 77.2538 28.9094 75.3281 28.4509C76.2451 27.6257 78.3542 26.8004 80.0965 27.1672L80.7383 27.3506L80.1882 26.9838C78.6293 26.0668 77.804 24.0494 77.7123 22.7656C79.3629 23.866 81.1051 26.0668 80.7383 27.3506ZM63.9598 103.369C64.6017 103.369 65.0601 103.828 65.0601 104.47C65.0601 105.02 64.6017 105.57 63.9598 105.57C63.3179 105.57 62.8594 105.111 62.8594 104.47C62.9511 103.828 63.4096 103.369 63.9598 103.369ZM78.2638 26.2497L77.8053 25.7912C76.4299 24.5991 74.2291 24.4157 72.9453 24.7825C74.5042 26.0663 77.0718 27.075 78.2638 26.2497ZM49.8359 26.2492C51.028 27.0745 53.6873 26.0659 55.1545 24.7821C53.8707 24.4153 51.6699 24.6904 50.2944 25.7908L49.8359 26.2492ZM61.2095 104.469C60.8427 105.844 58.2752 106.945 56.2578 106.945C56.9914 105.844 58.7337 104.561 60.476 104.469H61.2095C61.2095 103.002 58.9171 101.351 57.0831 100.893C57.4499 102.085 58.8254 103.827 60.5676 104.285L61.2095 104.469ZM57.1742 103.92C57.3576 102.452 55.2485 100.618 53.4145 99.8848C53.6896 101.169 54.8817 103.003 56.5323 103.644L57.1742 103.92L56.5323 103.828C54.6983 103.736 52.8643 104.836 52.0391 105.845C53.9647 106.029 56.624 105.295 57.1742 103.92ZM53.1388 103.003C52.4969 104.287 49.746 104.837 47.8203 104.47C48.7373 103.553 50.663 102.545 52.4969 102.911L53.1388 103.003C53.4139 101.628 51.58 99.5185 49.8377 98.6016C50.0211 99.8853 50.9381 101.811 52.5886 102.636L53.1388 103.003ZM49.2852 101.626C49.7437 100.25 48.0931 98.0496 46.4426 96.9492C46.4426 98.233 47.2679 100.25 48.735 101.259L49.2852 101.626L48.6433 101.442C46.9011 100.984 44.792 101.718 43.875 102.543C45.709 103.093 48.5516 102.818 49.2852 101.626ZM45.5254 99.8853C44.7001 101.077 41.8574 100.986 40.0234 100.252C41.1238 99.5185 43.2329 98.9683 44.8835 99.6102L45.5254 99.8853C46.0756 98.6015 44.7001 96.2174 43.1412 94.9336C43.0495 96.2174 43.5997 98.3264 44.9752 99.4268L45.5254 99.8853ZM41.955 97.8675C42.6886 96.5838 41.4966 94.1079 40.1211 92.7324C39.846 94.0162 40.2128 96.1253 41.4966 97.4091L41.955 97.8675L41.4049 97.5925C39.7543 96.7672 37.6452 97.134 36.4531 97.6842C38.1954 98.5094 41.0381 98.8762 41.955 97.8675ZM38.6503 95.3909C37.5499 96.3079 34.799 95.7577 33.1484 94.6573C34.3405 94.1071 36.5412 94.0154 38.1001 95.0241L38.6503 95.3909L38.1918 94.9324C36.9997 93.5569 36.908 91.3561 37.2748 90.1641C38.5586 91.6312 39.4756 94.1988 38.6503 95.3909ZM35.6212 92.6407C34.4291 93.466 31.7698 92.6407 30.2109 91.3569C31.403 90.9901 33.6955 91.0818 35.071 92.1822L35.6212 92.6407C36.5381 91.5403 35.8963 88.881 34.7959 87.2305C34.3374 88.4226 34.2457 90.6233 35.2544 92.0905L35.6212 92.6407ZM32.8753 89.6133C31.5915 90.3468 29.0239 89.1548 27.6484 87.7793C28.9322 87.5042 31.133 87.871 32.4168 89.1548L32.8753 89.6133C33.9756 88.6046 33.5172 85.8536 32.6002 84.1113C31.9583 85.2117 31.6832 87.4125 32.5085 88.9714L32.8753 89.6133ZM30.4887 86.3125C29.1133 86.9544 26.7291 85.4872 25.4453 84.02C26.7291 83.9283 28.8382 84.4785 30.0302 85.854L30.4887 86.3125L30.2136 85.6706C29.5718 84.02 30.0302 81.9109 30.7638 80.8105C31.4974 82.6445 31.5891 85.4872 30.4887 86.3125ZM28.3777 82.8282L28.1943 82.1863C27.6441 80.444 28.3777 78.4267 29.2947 77.418C29.8449 79.2519 29.5698 82.0946 28.3777 82.8282L28.0109 82.278C27.0022 80.8108 24.8932 79.9855 23.6094 79.9855C24.7098 81.6361 27.0022 83.2867 28.3777 82.8282ZM26.6359 79.0685C25.2604 79.4353 23.1514 77.5096 22.2344 75.8591C23.5182 75.9508 25.5355 76.9595 26.3608 78.5183L26.6359 79.0685C27.9197 78.4266 28.3782 75.6757 28.0114 73.75C27.0944 74.667 26.1774 76.5927 26.4525 78.4266L26.6359 79.0685ZM25.353 75.2172L25.2613 74.5753C25.0779 72.7413 26.27 70.9073 27.2787 70.082C27.4621 72.0077 26.7285 74.7587 25.353 75.2172L25.0779 74.5753C24.3443 72.9247 22.5103 71.7326 21.2266 71.4575C21.9602 73.3832 23.8858 75.4006 25.353 75.2172ZM24.4336 71.2741V70.6322C24.4336 68.7982 25.8091 67.056 26.9094 66.4141C26.8177 68.248 25.8091 70.9073 24.4336 71.2741L24.2502 70.6322C23.7 68.8899 21.9577 67.6061 20.7656 67.1477C21.3158 69.0733 22.9664 71.2741 24.4336 71.2741ZM23.8871 67.2391C22.4199 67.1474 20.9527 64.7633 20.5859 62.8376C21.778 63.2961 23.3369 64.855 23.7037 66.5972L23.8871 67.2391C25.3543 67.0557 26.6381 64.5799 26.8214 62.5625C25.6294 63.1127 24.1622 64.7633 23.9788 66.5055L23.8871 67.2391ZM23.7978 63.1141C22.3307 62.839 21.1386 60.3632 21.0469 58.4375C22.1473 59.0794 23.6144 60.73 23.7978 62.4722V63.1141C25.265 63.0224 26.7322 60.73 27.1907 58.8043C25.9986 59.2628 24.348 60.73 23.9812 62.4722L23.7978 63.1141ZM24.0737 59.0786C22.6982 58.6201 21.7812 56.0525 21.7812 54.0352C22.8816 54.7687 24.0737 56.6027 24.0737 58.345V59.0786C25.5409 59.1703 27.2832 56.9695 27.9251 55.1355C26.6413 55.5023 24.899 56.7861 24.3488 58.4367L24.0737 59.0786ZM24.8076 55.0433L25.0827 54.4931C25.8163 52.8426 27.7419 51.7422 29.0257 51.5588C28.2004 53.2094 26.2748 55.2267 24.8076 55.0433L24.8993 54.4014C25.0827 52.5675 23.9823 50.7335 23.0653 49.9082C22.7902 51.7422 23.5238 54.4931 24.8076 55.0433ZM25.9967 51.0998C24.7129 50.4579 24.3461 47.7069 24.7129 45.7812C25.6299 46.6982 26.4552 48.7156 26.0884 50.4579L25.9967 51.0998C27.3722 51.4666 29.573 49.6326 30.49 47.982C29.2062 48.0737 27.1888 48.9907 26.2718 50.5496L25.9967 51.0998ZM27.4638 47.3399C26.2718 46.5146 26.1801 43.7637 26.7303 41.9297C27.5555 42.9384 28.1974 45.0474 27.6472 46.698L27.4638 47.3399C28.8393 47.8901 31.1318 46.2395 32.3239 44.6806C31.0401 44.6806 28.931 45.3225 27.8306 46.7897L27.4638 47.3399ZM29.3899 43.6739C30.6736 44.3158 33.1495 42.9403 34.4333 41.5648C33.1495 41.3814 30.9487 41.8399 29.7566 43.2154L29.3899 43.6739L29.6649 43.1237C30.3985 41.4731 29.94 39.3641 29.2982 38.2637C28.4729 40.0059 28.1978 42.7569 29.3899 43.6739ZM31.5885 40.2793C30.5798 39.2706 31.0383 36.5196 32.047 34.7773C32.5972 35.9694 32.8723 38.0785 31.9553 39.6374L31.5885 40.2793L32.047 39.8208C33.4225 38.6287 35.5316 38.3536 36.8154 38.6287C35.4399 39.9125 32.8723 41.0129 31.5885 40.2793ZM34.2513 37.0704L34.8015 36.7036C36.2687 35.6032 38.4694 35.6032 39.6615 35.97C38.0109 37.1621 35.3517 37.9874 34.2513 37.0704L34.6181 36.5202C35.7185 35.053 35.6268 32.8522 35.1683 31.6602C34.0679 33.3107 33.3343 35.97 34.2513 37.0704ZM37.0885 34.2288C36.2632 33.0367 37.2719 30.4691 38.5557 29.002C38.9225 30.194 38.6474 32.3948 37.4553 33.7703L37.0885 34.2288C38.0972 35.2375 40.9399 34.6873 42.5905 33.6786C41.3984 33.1284 39.1976 32.945 37.6387 33.862L37.0885 34.2288ZM40.303 31.5688C39.6611 30.285 40.9449 27.8092 42.3204 26.5254C42.5038 27.8092 42.137 29.9182 40.7615 31.202L40.303 31.5688L40.8532 31.2937C42.5038 30.5601 44.7045 30.9269 45.8049 31.5688C44.0626 32.3941 41.22 32.6692 40.303 31.5688ZM43.691 29.3678L44.3329 29.1844C46.0751 28.5426 48.1842 29.1844 49.1929 29.918C47.3589 30.5599 44.5163 30.4682 43.691 29.3678L44.2412 29.001C45.7084 27.9007 46.3502 25.7916 46.2585 24.5078C44.6997 25.6082 43.1408 27.9924 43.691 29.3678ZM47.3618 27.4421C46.9951 26.0667 48.7373 23.8659 50.3879 22.8572C50.2962 24.141 49.4709 26.1584 47.912 27.0753L47.3618 27.4421L48.0037 27.2587C49.746 26.8002 51.8551 27.6255 52.7721 28.5425C50.8464 29.001 48.0037 28.6342 47.3618 27.4421ZM66.8047 104.469C67.1715 105.844 69.739 106.945 71.7564 106.945C71.1145 105.844 69.2806 104.561 67.5383 104.469H66.8047C66.8047 103.002 69.0972 101.351 70.9311 100.893C70.5643 102.085 69.1889 103.827 67.4466 104.285L66.8047 104.469ZM70.8393 103.92C70.6559 102.452 72.765 100.618 74.5989 99.8848C74.3238 101.169 73.1318 103.003 71.4812 103.644L70.8393 103.92L71.4812 103.828C73.3152 103.736 75.1491 104.836 75.9744 105.845C74.0488 106.029 71.2978 105.295 70.8393 103.92ZM74.8735 103.001L75.4237 102.726C77.0743 101.901 77.9913 99.9752 78.1747 98.6914C76.4324 99.5167 74.5067 101.534 74.8735 103.001L75.5154 102.91C77.3494 102.634 79.275 103.551 80.192 104.468C78.2663 104.744 75.4237 104.285 74.8735 103.001ZM78.7262 101.626C78.2677 100.25 79.9182 98.0496 81.5688 96.9492C81.5688 98.233 80.7435 100.25 79.2763 101.259L78.7262 101.626L79.368 101.442C81.1103 100.984 83.2194 101.718 84.1364 102.543C82.3024 103.093 79.4597 102.818 78.7262 101.626ZM82.4829 99.8853C83.3082 101.077 86.1509 100.986 87.9848 100.252C86.8845 99.5185 84.7754 98.9683 83.1248 99.6102L82.4829 99.8853C81.9327 98.6015 83.3082 96.2174 84.8671 94.9336C84.9588 96.2174 84.4086 98.3264 83.0331 99.4268L82.4829 99.8853ZM85.9657 97.7757C85.2321 96.492 86.4242 94.0161 87.7997 92.6406C88.0748 93.9244 87.708 96.0335 86.4242 97.3173L85.9657 97.7757L86.5159 97.5007C88.1665 96.6754 90.2756 97.0422 91.4676 97.5924C89.8171 98.5093 86.9744 98.8761 85.9657 97.7757ZM89.2697 95.3909C90.3701 96.3079 93.121 95.7577 94.7716 94.6573C93.5795 94.1071 91.3788 94.0154 89.8199 95.0241L89.2697 95.3909L89.7282 94.9324C90.9203 93.5569 91.012 91.3561 90.6452 90.1641C89.4531 91.5395 88.4444 94.1988 89.2697 95.3909ZM92.3826 92.6407L92.7494 92.0905C93.7581 90.6233 93.6664 88.4226 93.2079 87.2305C92.0158 88.7893 91.3739 91.5403 92.3826 92.6407L92.9328 92.2739C94.3083 91.1735 96.6007 90.9901 97.7928 91.4486C96.234 92.549 93.483 93.466 92.3826 92.6407ZM95.1354 89.6133C96.4192 90.3468 98.9867 89.1548 100.362 87.7793C99.0784 87.5042 96.8777 87.871 95.5939 89.1548L95.1354 89.6133C94.035 88.6046 94.4935 85.8536 95.4105 84.1113C96.0524 85.2117 96.3275 87.4125 95.5022 88.9714L95.1354 89.6133ZM97.5223 86.3125C98.8061 86.9544 101.282 85.4872 102.566 84.02C101.282 83.9283 99.1729 84.4785 97.9808 85.854L97.5223 86.3125L97.7974 85.6706C98.4393 84.02 97.9808 81.9109 97.2472 80.8105C96.5136 82.6445 96.4219 85.3955 97.5223 86.3125ZM99.6294 82.7364C101.005 83.1949 103.297 81.5443 104.398 79.8937C103.114 79.8937 101.005 80.6273 99.9962 82.1862L99.6294 82.7364C98.4373 82.0028 98.2539 79.1601 98.8041 77.3262C99.6294 78.3349 100.363 80.3522 99.8128 82.0945L99.6294 82.7364ZM101.373 79.0685C102.748 79.4353 104.857 77.5096 105.774 75.7674C104.491 75.8591 102.473 76.8678 101.648 78.4266L101.373 79.0685C100.089 78.4266 99.6305 75.6757 99.9973 73.75C100.914 74.667 101.831 76.5927 101.556 78.4266L101.373 79.0685ZM102.657 75.2172C104.124 75.4006 105.958 73.2915 106.783 71.5492C105.499 71.8243 103.665 72.9247 102.932 74.667L102.657 75.2172C101.281 74.7587 100.548 72.0077 100.731 70.082C101.74 70.9073 102.84 72.7413 102.748 74.5753L102.657 75.2172ZM103.57 71.1823C105.037 71.1823 106.687 68.9815 107.238 67.1476C106.045 67.5143 104.212 68.8898 103.753 70.6321L103.57 71.1823C102.194 70.8155 101.185 68.2479 101.094 66.3223C102.194 67.0559 103.478 68.7981 103.57 70.5404V71.1823ZM104.122 67.1473C105.589 67.0556 107.056 64.6715 107.423 62.7458C106.231 63.2043 104.58 64.7632 104.305 66.5054L104.122 67.1473C102.655 66.9639 101.371 64.4881 101.188 62.4707C102.38 63.0209 103.847 64.6715 104.03 66.4137L104.122 67.1473ZM104.213 63.1141L104.03 62.4722C103.663 60.73 102.012 59.2628 100.82 58.8043C101.279 60.6383 102.746 63.0224 104.213 63.1141L104.305 62.4722C104.488 60.6383 105.955 58.9877 107.056 58.4375C106.872 60.2715 105.68 62.839 104.213 63.1141ZM103.937 58.9869C105.313 58.6201 106.23 55.9608 106.23 54.0352C105.129 54.7687 103.937 56.6027 103.937 58.345V58.9869C102.47 59.0786 100.728 56.8778 100.086 55.0438C101.37 55.4106 103.112 56.6944 103.662 58.345L103.937 58.9869ZM103.203 54.9515C104.578 54.4013 105.22 51.7421 104.945 49.8164C103.936 50.6417 102.836 52.5674 103.111 54.3096L103.203 54.9515C101.735 55.1349 99.8097 53.2093 98.9844 51.3753C100.268 51.5587 102.194 52.6591 102.927 54.3096L103.203 54.9515ZM102.103 51.0998C103.386 50.4579 103.753 47.7069 103.386 45.7812C102.469 46.6982 101.644 48.7156 102.011 50.4579L102.103 51.0998C100.727 51.4666 98.5264 49.6326 97.6094 47.982C98.8932 48.0737 100.911 48.9907 101.828 50.5496L102.103 51.0998ZM100.55 47.2501L100.183 46.6999C99.0824 45.2327 97.065 44.4991 95.7812 44.5908C96.8816 46.2414 99.1741 47.8003 100.55 47.2501L100.366 46.6082C99.816 44.8659 100.458 42.8485 101.283 41.8398C101.833 43.6738 101.742 46.5165 100.55 47.2501ZM98.7153 43.6739C97.4315 44.3158 94.9557 42.9403 93.6719 41.5648C94.9557 41.3814 97.0647 41.8399 98.3485 43.2154L98.7153 43.6739L98.4402 43.1237C97.7066 41.4731 98.1651 39.3641 98.807 38.2637C99.6323 39.9142 99.8157 42.7569 98.7153 43.6739ZM96.4221 40.1894C97.4308 39.1807 96.9723 36.4298 96.0553 34.6875C95.5051 35.8796 95.2301 37.9887 96.147 39.5475L96.4221 40.1894L95.9636 39.7309C94.5882 38.5388 92.4791 38.2637 91.1953 38.5388C92.5708 39.9143 95.2301 41.0147 96.4221 40.1894ZM93.8555 37.0704L93.3053 36.7036C91.8382 35.6032 89.6374 35.6032 88.4453 35.97C90.0042 37.1621 92.6635 37.9874 93.8555 37.0704L93.4887 36.5202C92.4801 35.053 92.4801 32.8522 92.9385 31.6602C94.0389 33.219 94.7725 35.97 93.8555 37.0704ZM90.916 34.137C91.7413 32.9449 90.7326 30.3773 89.4488 28.9102C89.082 30.1939 89.3571 32.303 90.5492 33.6785L90.916 34.137C89.9073 35.1457 87.0646 34.5955 85.4141 33.5868C86.6061 33.0366 88.8069 32.8532 90.3658 33.7702L90.916 34.137ZM87.7988 31.5688C88.4407 30.285 87.2486 27.8092 85.7814 26.5254C85.598 27.8092 85.9648 29.9182 87.3403 31.202L87.7988 31.5688L87.2486 31.2937C85.598 30.5601 83.3973 30.9269 82.2969 31.5688C84.0392 32.3941 86.7901 32.6692 87.7988 31.5688ZM84.3144 29.276C84.8646 27.9923 83.3057 25.6081 81.7469 24.416C81.6552 25.6998 82.2971 27.8089 83.7642 28.9093L84.3144 29.276C83.4891 30.4681 80.6465 30.4681 78.8125 29.8262C79.8212 29.0926 81.9303 28.4508 83.6725 29.0926L84.3144 29.276Z" fill="white"/>
<path fill-rule="evenodd" clip-rule="evenodd" d="M80.7383 27.3506C80.0048 28.6343 77.2538 28.9094 75.3281 28.4509C76.2451 27.6257 78.3542 26.8004 80.0965 27.1672L80.7383 27.3506L80.1882 26.9838C78.6293 26.0668 77.804 24.0494 77.7123 22.7656C79.3629 23.866 81.1051 26.0668 80.7383 27.3506ZM63.9598 103.369C64.6017 103.369 65.0601 103.828 65.0601 104.47C65.0601 105.02 64.6017 105.57 63.9598 105.57C63.3179 105.57 62.8594 105.111 62.8594 104.47C62.9511 103.828 63.4096 103.369 63.9598 103.369ZM78.2638 26.2497L77.8053 25.7912C76.4299 24.5991 74.2291 24.4157 72.9453 24.7825C74.5042 26.0663 77.0718 27.075 78.2638 26.2497ZM49.8359 26.2492C51.028 27.0745 53.6873 26.0659 55.1545 24.7821C53.8707 24.4153 51.6699 24.6904 50.2944 25.7908L49.8359 26.2492ZM61.2095 104.469C60.8427 105.844 58.2752 106.945 56.2578 106.945C56.9914 105.844 58.7337 104.561 60.476 104.469H61.2095C61.2095 103.002 58.9171 101.351 57.0831 100.893C57.4499 102.085 58.8254 103.827 60.5676 104.285L61.2095 104.469ZM57.1742 103.92C57.3576 102.452 55.2485 100.618 53.4145 99.8848C53.6896 101.169 54.8817 103.003 56.5323 103.644L57.1742 103.92L56.5323 103.828C54.6983 103.736 52.8643 104.836 52.0391 105.845C53.9647 106.029 56.624 105.295 57.1742 103.92ZM53.1388 103.003C52.4969 104.287 49.746 104.837 47.8203 104.47C48.7373 103.553 50.663 102.545 52.4969 102.911L53.1388 103.003C53.4139 101.628 51.58 99.5185 49.8377 98.6016C50.0211 99.8853 50.9381 101.811 52.5886 102.636L53.1388 103.003ZM49.2852 101.626C49.7437 100.25 48.0931 98.0496 46.4426 96.9492C46.4426 98.233 47.2679 100.25 48.735 101.259L49.2852 101.626L48.6433 101.442C46.9011 100.984 44.792 101.718 43.875 102.543C45.709 103.093 48.5516 102.818 49.2852 101.626ZM45.5254 99.8853C44.7001 101.077 41.8574 100.986 40.0234 100.252C41.1238 99.5185 43.2329 98.9683 44.8835 99.6102L45.5254 99.8853C46.0756 98.6015 44.7001 96.2174 43.1412 94.9336C43.0495 96.2174 43.5997 98.3264 44.9752 99.4268L45.5254 99.8853ZM41.955 97.8675C42.6886 96.5838 41.4966 94.1079 40.1211 92.7324C39.846 94.0162 40.2128 96.1253 41.4966 97.4091L41.955 97.8675L41.4049 97.5925C39.7543 96.7672 37.6452 97.134 36.4531 97.6842C38.1954 98.5094 41.0381 98.8762 41.955 97.8675ZM38.6503 95.3909C37.5499 96.3079 34.799 95.7577 33.1484 94.6573C34.3405 94.1071 36.5412 94.0154 38.1001 95.0241L38.6503 95.3909L38.1918 94.9324C36.9997 93.5569 36.908 91.3561 37.2748 90.1641C38.5586 91.6312 39.4756 94.1988 38.6503 95.3909ZM35.6212 92.6407C34.4291 93.466 31.7698 92.6407 30.2109 91.3569C31.403 90.9901 33.6955 91.0818 35.071 92.1822L35.6212 92.6407C36.5381 91.5403 35.8963 88.881 34.7959 87.2305C34.3374 88.4226 34.2457 90.6233 35.2544 92.0905L35.6212 92.6407ZM32.8753 89.6133C31.5915 90.3468 29.0239 89.1548 27.6484 87.7793C28.9322 87.5042 31.133 87.871 32.4168 89.1548L32.8753 89.6133C33.9756 88.6046 33.5172 85.8536 32.6002 84.1113C31.9583 85.2117 31.6832 87.4125 32.5085 88.9714L32.8753 89.6133ZM30.4887 86.3125C29.1133 86.9544 26.7291 85.4872 25.4453 84.02C26.7291 83.9283 28.8382 84.4785 30.0302 85.854L30.4887 86.3125L30.2136 85.6706C29.5718 84.02 30.0302 81.9109 30.7638 80.8105C31.4974 82.6445 31.5891 85.4872 30.4887 86.3125ZM28.3777 82.8282L28.1943 82.1863C27.6441 80.444 28.3777 78.4267 29.2947 77.418C29.8449 79.2519 29.5698 82.0946 28.3777 82.8282L28.0109 82.278C27.0022 80.8108 24.8932 79.9855 23.6094 79.9855C24.7098 81.6361 27.0022 83.2867 28.3777 82.8282ZM26.6359 79.0685C25.2604 79.4353 23.1514 77.5096 22.2344 75.8591C23.5182 75.9508 25.5355 76.9595 26.3608 78.5183L26.6359 79.0685C27.9197 78.4266 28.3782 75.6757 28.0114 73.75C27.0944 74.667 26.1774 76.5927 26.4525 78.4266L26.6359 79.0685ZM25.353 75.2172L25.2613 74.5753C25.0779 72.7413 26.27 70.9073 27.2787 70.082C27.4621 72.0077 26.7285 74.7587 25.353 75.2172L25.0779 74.5753C24.3443 72.9247 22.5103 71.7326 21.2266 71.4575C21.9602 73.3832 23.8858 75.4006 25.353 75.2172ZM24.4336 71.2741V70.6322C24.4336 68.7982 25.8091 67.056 26.9094 66.4141C26.8177 68.248 25.8091 70.9073 24.4336 71.2741L24.2502 70.6322C23.7 68.8899 21.9577 67.6061 20.7656 67.1477C21.3158 69.0733 22.9664 71.2741 24.4336 71.2741ZM23.8871 67.2391C22.4199 67.1474 20.9527 64.7633 20.5859 62.8376C21.778 63.2961 23.3369 64.855 23.7037 66.5972L23.8871 67.2391C25.3543 67.0557 26.6381 64.5799 26.8214 62.5625C25.6294 63.1127 24.1622 64.7633 23.9788 66.5055L23.8871 67.2391ZM23.7978 63.1141C22.3307 62.839 21.1386 60.3632 21.0469 58.4375C22.1473 59.0794 23.6144 60.73 23.7978 62.4722V63.1141C25.265 63.0224 26.7322 60.73 27.1907 58.8043C25.9986 59.2628 24.348 60.73 23.9812 62.4722L23.7978 63.1141ZM24.0737 59.0786C22.6982 58.6201 21.7812 56.0525 21.7812 54.0352C22.8816 54.7687 24.0737 56.6027 24.0737 58.345V59.0786C25.5409 59.1703 27.2832 56.9695 27.9251 55.1355C26.6413 55.5023 24.899 56.7861 24.3488 58.4367L24.0737 59.0786ZM24.8076 55.0433L25.0827 54.4931C25.8163 52.8426 27.7419 51.7422 29.0257 51.5588C28.2004 53.2094 26.2748 55.2267 24.8076 55.0433L24.8993 54.4014C25.0827 52.5675 23.9823 50.7335 23.0653 49.9082C22.7902 51.7422 23.5238 54.4931 24.8076 55.0433ZM25.9967 51.0998C24.7129 50.4579 24.3461 47.7069 24.7129 45.7812C25.6299 46.6982 26.4552 48.7156 26.0884 50.4579L25.9967 51.0998C27.3722 51.4666 29.573 49.6326 30.49 47.982C29.2062 48.0737 27.1888 48.9907 26.2718 50.5496L25.9967 51.0998ZM27.4638 47.3399C26.2718 46.5146 26.1801 43.7637 26.7303 41.9297C27.5555 42.9384 28.1974 45.0474 27.6472 46.698L27.4638 47.3399C28.8393 47.8901 31.1318 46.2395 32.3239 44.6806C31.0401 44.6806 28.931 45.3225 27.8306 46.7897L27.4638 47.3399ZM29.3899 43.6739C30.6736 44.3158 33.1495 42.9403 34.4333 41.5648C33.1495 41.3814 30.9487 41.8399 29.7566 43.2154L29.3899 43.6739L29.6649 43.1237C30.3985 41.4731 29.94 39.3641 29.2982 38.2637C28.4729 40.0059 28.1978 42.7569 29.3899 43.6739ZM31.5885 40.2793C30.5798 39.2706 31.0383 36.5196 32.047 34.7773C32.5972 35.9694 32.8723 38.0785 31.9553 39.6374L31.5885 40.2793L32.047 39.8208C33.4225 38.6287 35.5316 38.3536 36.8154 38.6287C35.4399 39.9125 32.8723 41.0129 31.5885 40.2793ZM34.2513 37.0704L34.8015 36.7036C36.2687 35.6032 38.4694 35.6032 39.6615 35.97C38.0109 37.1621 35.3517 37.9874 34.2513 37.0704L34.6181 36.5202C35.7185 35.053 35.6268 32.8522 35.1683 31.6602C34.0679 33.3107 33.3343 35.97 34.2513 37.0704ZM37.0885 34.2288C36.2632 33.0367 37.2719 30.4691 38.5557 29.002C38.9225 30.194 38.6474 32.3948 37.4553 33.7703L37.0885 34.2288C38.0972 35.2375 40.9399 34.6873 42.5905 33.6786C41.3984 33.1284 39.1976 32.945 37.6387 33.862L37.0885 34.2288ZM40.303 31.5688C39.6611 30.285 40.9449 27.8092 42.3204 26.5254C42.5038 27.8092 42.137 29.9182 40.7615 31.202L40.303 31.5688L40.8532 31.2937C42.5038 30.5601 44.7045 30.9269 45.8049 31.5688C44.0626 32.3941 41.22 32.6692 40.303 31.5688ZM43.691 29.3678L44.3329 29.1844C46.0751 28.5426 48.1842 29.1844 49.1929 29.918C47.3589 30.5599 44.5163 30.4682 43.691 29.3678L44.2412 29.001C45.7084 27.9007 46.3502 25.7916 46.2585 24.5078C44.6997 25.6082 43.1408 27.9924 43.691 29.3678ZM47.3618 27.4421C46.9951 26.0667 48.7373 23.8659 50.3879 22.8572C50.2962 24.141 49.4709 26.1584 47.912 27.0753L47.3618 27.4421L48.0037 27.2587C49.746 26.8002 51.8551 27.6255 52.7721 28.5425C50.8464 29.001 48.0037 28.6342 47.3618 27.4421ZM66.8047 104.469C67.1715 105.844 69.739 106.945 71.7564 106.945C71.1145 105.844 69.2806 104.561 67.5383 104.469H66.8047C66.8047 103.002 69.0972 101.351 70.9311 100.893C70.5643 102.085 69.1889 103.827 67.4466 104.285L66.8047 104.469ZM70.8393 103.92C70.6559 102.452 72.765 100.618 74.5989 99.8848C74.3238 101.169 73.1318 103.003 71.4812 103.644L70.8393 103.92L71.4812 103.828C73.3152 103.736 75.1491 104.836 75.9744 105.845C74.0488 106.029 71.2978 105.295 70.8393 103.92ZM74.8735 103.001L75.4237 102.726C77.0743 101.901 77.9913 99.9752 78.1747 98.6914C76.4324 99.5167 74.5067 101.534 74.8735 103.001L75.5154 102.91C77.3494 102.634 79.275 103.551 80.192 104.468C78.2663 104.744 75.4237 104.285 74.8735 103.001ZM78.7262 101.626C78.2677 100.25 79.9182 98.0496 81.5688 96.9492C81.5688 98.233 80.7435 100.25 79.2763 101.259L78.7262 101.626L79.368 101.442C81.1103 100.984 83.2194 101.718 84.1364 102.543C82.3024 103.093 79.4597 102.818 78.7262 101.626ZM82.4829 99.8853C83.3082 101.077 86.1509 100.986 87.9848 100.252C86.8845 99.5185 84.7754 98.9683 83.1248 99.6102L82.4829 99.8853C81.9327 98.6015 83.3082 96.2174 84.8671 94.9336C84.9588 96.2174 84.4086 98.3264 83.0331 99.4268L82.4829 99.8853ZM85.9657 97.7757C85.2321 96.492 86.4242 94.0161 87.7997 92.6406C88.0748 93.9244 87.708 96.0335 86.4242 97.3173L85.9657 97.7757L86.5159 97.5007C88.1665 96.6754 90.2756 97.0422 91.4676 97.5924C89.8171 98.5093 86.9744 98.8761 85.9657 97.7757ZM89.2697 95.3909C90.3701 96.3079 93.121 95.7577 94.7716 94.6573C93.5795 94.1071 91.3788 94.0154 89.8199 95.0241L89.2697 95.3909L89.7282 94.9324C90.9203 93.5569 91.012 91.3561 90.6452 90.1641C89.4531 91.5395 88.4444 94.1988 89.2697 95.3909ZM92.3826 92.6407L92.7494 92.0905C93.7581 90.6233 93.6664 88.4226 93.2079 87.2305C92.0158 88.7893 91.3739 91.5403 92.3826 92.6407L92.9328 92.2739C94.3083 91.1735 96.6007 90.9901 97.7928 91.4486C96.234 92.549 93.483 93.466 92.3826 92.6407ZM95.1354 89.6133C96.4192 90.3468 98.9867 89.1548 100.362 87.7793C99.0784 87.5042 96.8777 87.871 95.5939 89.1548L95.1354 89.6133C94.035 88.6046 94.4935 85.8536 95.4105 84.1113C96.0524 85.2117 96.3275 87.4125 95.5022 88.9714L95.1354 89.6133ZM97.5223 86.3125C98.8061 86.9544 101.282 85.4872 102.566 84.02C101.282 83.9283 99.1729 84.4785 97.9808 85.854L97.5223 86.3125L97.7974 85.6706C98.4393 84.02 97.9808 81.9109 97.2472 80.8105C96.5136 82.6445 96.4219 85.3955 97.5223 86.3125ZM99.6294 82.7364C101.005 83.1949 103.297 81.5443 104.398 79.8937C103.114 79.8937 101.005 80.6273 99.9962 82.1862L99.6294 82.7364C98.4373 82.0028 98.2539 79.1601 98.8041 77.3262C99.6294 78.3349 100.363 80.3522 99.8128 82.0945L99.6294 82.7364ZM101.373 79.0685C102.748 79.4353 104.857 77.5096 105.774 75.7674C104.491 75.8591 102.473 76.8678 101.648 78.4266L101.373 79.0685C100.089 78.4266 99.6305 75.6757 99.9973 73.75C100.914 74.667 101.831 76.5927 101.556 78.4266L101.373 79.0685ZM102.657 75.2172C104.124 75.4006 105.958 73.2915 106.783 71.5492C105.499 71.8243 103.665 72.9247 102.932 74.667L102.657 75.2172C101.281 74.7587 100.548 72.0077 100.731 70.082C101.74 70.9073 102.84 72.7413 102.748 74.5753L102.657 75.2172ZM103.57 71.1823C105.037 71.1823 106.687 68.9815 107.238 67.1476C106.045 67.5143 104.212 68.8898 103.753 70.6321L103.57 71.1823C102.194 70.8155 101.185 68.2479 101.094 66.3223C102.194 67.0559 103.478 68.7981 103.57 70.5404V71.1823ZM104.122 67.1473C105.589 67.0556 107.056 64.6715 107.423 62.7458C106.231 63.2043 104.58 64.7632 104.305 66.5054L104.122 67.1473C102.655 66.9639 101.371 64.4881 101.188 62.4707C102.38 63.0209 103.847 64.6715 104.03 66.4137L104.122 67.1473ZM104.213 63.1141L104.03 62.4722C103.663 60.73 102.012 59.2628 100.82 58.8043C101.279 60.6383 102.746 63.0224 104.213 63.1141L104.305 62.4722C104.488 60.6383 105.955 58.9877 107.056 58.4375C106.872 60.2715 105.68 62.839 104.213 63.1141ZM103.937 58.9869C105.313 58.6201 106.23 55.9608 106.23 54.0352C105.129 54.7687 103.937 56.6027 103.937 58.345V58.9869C102.47 59.0786 100.728 56.8778 100.086 55.0438C101.37 55.4106 103.112 56.6944 103.662 58.345L103.937 58.9869ZM103.203 54.9515C104.578 54.4013 105.22 51.7421 104.945 49.8164C103.936 50.6417 102.836 52.5674 103.111 54.3096L103.203 54.9515C101.735 55.1349 99.8097 53.2093 98.9844 51.3753C100.268 51.5587 102.194 52.6591 102.927 54.3096L103.203 54.9515ZM102.103 51.0998C103.386 50.4579 103.753 47.7069 103.386 45.7812C102.469 46.6982 101.644 48.7156 102.011 50.4579L102.103 51.0998C100.727 51.4666 98.5264 49.6326 97.6094 47.982C98.8932 48.0737 100.911 48.9907 101.828 50.5496L102.103 51.0998ZM100.55 47.2501L100.183 46.6999C99.0824 45.2327 97.065 44.4991 95.7812 44.5908C96.8816 46.2414 99.1741 47.8003 100.55 47.2501L100.366 46.6082C99.816 44.8659 100.458 42.8485 101.283 41.8398C101.833 43.6738 101.742 46.5165 100.55 47.2501ZM98.7153 43.6739C97.4315 44.3158 94.9557 42.9403 93.6719 41.5648C94.9557 41.3814 97.0647 41.8399 98.3485 43.2154L98.7153 43.6739L98.4402 43.1237C97.7066 41.4731 98.1651 39.3641 98.807 38.2637C99.6323 39.9142 99.8157 42.7569 98.7153 43.6739ZM96.4221 40.1894C97.4308 39.1807 96.9723 36.4298 96.0553 34.6875C95.5051 35.8796 95.2301 37.9887 96.147 39.5475L96.4221 40.1894L95.9636 39.7309C94.5882 38.5388 92.4791 38.2637 91.1953 38.5388C92.5708 39.9143 95.2301 41.0147 96.4221 40.1894ZM93.8555 37.0704L93.3053 36.7036C91.8382 35.6032 89.6374 35.6032 88.4453 35.97C90.0042 37.1621 92.6635 37.9874 93.8555 37.0704L93.4887 36.5202C92.4801 35.053 92.4801 32.8522 92.9385 31.6602C94.0389 33.219 94.7725 35.97 93.8555 37.0704ZM90.916 34.137C91.7413 32.9449 90.7326 30.3773 89.4488 28.9102C89.082 30.1939 89.3571 32.303 90.5492 33.6785L90.916 34.137C89.9073 35.1457 87.0646 34.5955 85.4141 33.5868C86.6061 33.0366 88.8069 32.8532 90.3658 33.7702L90.916 34.137ZM87.7988 31.5688C88.4407 30.285 87.2486 27.8092 85.7814 26.5254C85.598 27.8092 85.9648 29.9182 87.3403 31.202L87.7988 31.5688L87.2486 31.2937C85.598 30.5601 83.3973 30.9269 82.2969 31.5688C84.0392 32.3941 86.7901 32.6692 87.7988 31.5688ZM84.3144 29.276C84.8646 27.9923 83.3057 25.6081 81.7469 24.416C81.6552 25.6998 82.2971 27.8089 83.7642 28.9093L84.3144 29.276C83.4891 30.4681 80.6465 30.4681 78.8125 29.8262C79.8212 29.0926 81.9303 28.4508 83.6725 29.0926L84.3144 29.276Z" fill="white"/>
<path fill-rule="evenodd" clip-rule="evenodd" d="M102.654 52.3833V51.7414C102.746 49.9074 101.554 48.0734 100.453 47.3398C100.453 49.2655 101.278 52.0165 102.654 52.3833Z" fill="white"/>
<path fill-rule="evenodd" clip-rule="evenodd" d="M25.4425 52.3833V51.7414C25.3508 49.9074 26.5429 48.0734 27.6432 47.3398C27.6432 49.2655 26.818 52.0165 25.4425 52.3833Z" fill="white"/>
</svg>
