<svg width="88" height="18" viewBox="0 0 88 18" fill="none" xmlns="http://www.w3.org/2000/svg">
<path d="M1.00128 8.30566V0.76885H2.69583V8.30566H1.00128ZM8.17569 8.41332C6.91395 8.41332 5.82461 8.01136 4.90766 7.20744L5.90896 6.03385C6.66456 6.64398 7.43112 6.94903 8.20871 6.94903C8.55347 6.94903 8.82491 6.88443 9.02297 6.75523C9.22103 6.62604 9.32007 6.44658 9.32007 6.21689C9.32007 6.00154 9.21735 5.82929 9.01195 5.70008C8.80657 5.56369 8.39209 5.41656 7.76857 5.25864C7.32843 5.15096 6.97265 5.0469 6.70123 4.9464C6.42979 4.83873 6.16938 4.69876 5.91999 4.52648C5.67791 4.35423 5.49819 4.13888 5.38079 3.88049C5.27077 3.61489 5.21575 3.29906 5.21575 2.933C5.21575 2.25109 5.46517 1.70198 5.964 1.28566C6.47015 0.86934 7.11935 0.661181 7.91162 0.661181C9.00464 0.661181 9.95826 0.980598 10.7725 1.61943L9.89225 2.86839C9.16602 2.37312 8.49846 2.12548 7.8896 2.12548C7.57417 2.12548 7.32843 2.19008 7.15237 2.31928C6.98364 2.44132 6.89929 2.60281 6.89929 2.80379C6.89929 3.04785 7.00566 3.23089 7.21838 3.35289C7.43112 3.47492 7.8786 3.62207 8.56081 3.79435C9.39707 4.00967 10.0133 4.28603 10.4094 4.62339C10.8055 4.96076 11.0036 5.44526 11.0036 6.07692C11.0036 6.80906 10.7432 7.3833 10.2223 7.79961C9.70885 8.20876 9.02663 8.41332 8.17569 8.41332ZM13.2893 8.30566V0.76885H14.9838V6.7983H18.824V8.30566H13.2893ZM20.2569 8.30566L23.5579 0.715014H25.1205L28.4214 8.30566H26.65L25.9456 6.61526H22.6886L21.9844 8.30566H20.2569ZM23.2938 5.15096H25.3405L24.3172 2.70689L23.2938 5.15096ZM30.4254 8.30566V0.76885H31.9879L35.5969 5.40938V0.76885H37.2696V8.30566H35.8281L32.0978 3.51441V8.30566H30.4254ZM39.9337 8.30566V0.76885H42.9376C44.1407 0.76885 45.1236 1.12775 45.8866 1.84554C46.6495 2.55616 47.0308 3.45339 47.0308 4.53725C47.0308 5.61394 46.6457 6.51117 45.8756 7.22897C45.1126 7.94676 44.1333 8.30566 42.9376 8.30566H39.9337ZM41.6282 6.80906H42.9376C43.6346 6.80906 44.1957 6.60091 44.6211 6.18458C45.0466 5.76109 45.2594 5.21197 45.2594 4.53725C45.2594 3.8697 45.0428 3.32418 44.6101 2.90069C44.1847 2.4772 43.6272 2.26545 42.9376 2.26545H41.6282V6.80906ZM56.2097 8.41332C54.948 8.41332 53.8587 8.01136 52.9418 7.20744L53.9431 6.03385C54.6986 6.64398 55.4652 6.94903 56.2427 6.94903C56.5877 6.94903 56.859 6.88443 57.057 6.75523C57.2552 6.62604 57.3542 6.44658 57.3542 6.21689C57.3542 6.00154 57.2514 5.82929 57.046 5.70008C56.8406 5.56369 56.4263 5.41656 55.8028 5.25864C55.3626 5.15096 55.0068 5.0469 54.7352 4.9464C54.4639 4.83873 54.2035 4.69876 53.9541 4.52648C53.7119 4.35423 53.5324 4.13888 53.415 3.88049C53.3048 3.61489 53.2498 3.29906 53.2498 2.933C53.2498 2.25109 53.4991 1.70198 53.9981 1.28566C54.5043 0.86934 55.1534 0.661181 55.9457 0.661181C57.0386 0.661181 57.9923 0.980598 58.8067 1.61943L57.9263 2.86839C57.2 2.37312 56.5325 2.12548 55.9237 2.12548C55.6084 2.12548 55.3626 2.19008 55.1864 2.31928C55.0178 2.44132 54.9334 2.60281 54.9334 2.80379C54.9334 3.04785 55.0398 3.23089 55.2524 3.35289C55.4652 3.47492 55.9127 3.62207 56.5949 3.79435C57.4312 4.00967 58.0473 4.28603 58.4435 4.62339C58.8397 4.96076 59.0376 5.44526 59.0376 6.07692C59.0376 6.80906 58.7773 7.3833 58.2565 7.79961C57.743 8.20876 57.0608 8.41332 56.2097 8.41332ZM67.9915 7.30435C67.214 8.05803 66.2382 8.43487 65.0646 8.43487C63.8909 8.43487 62.9152 8.05803 62.1376 7.30435C61.3673 6.55066 60.9824 5.6283 60.9824 4.53725C60.9824 3.45339 61.3711 2.53461 62.1486 1.78094C62.9336 1.02008 63.9129 0.639648 65.0866 0.639648C66.2602 0.639648 67.2321 1.01649 68.0025 1.77017C68.78 2.52385 69.1688 3.44621 69.1688 4.53725C69.1688 5.62112 68.7764 6.54348 67.9915 7.30435ZM63.4141 6.21689C63.8541 6.67627 64.4116 6.90596 65.0866 6.90596C65.7615 6.90596 66.3152 6.67987 66.748 6.22765C67.181 5.76827 67.3974 5.20481 67.3974 4.53725C67.3974 3.87688 67.1772 3.317 66.737 2.85762C66.2968 2.39825 65.7395 2.16854 65.0646 2.16854C64.3896 2.16854 63.8359 2.39825 63.4031 2.85762C62.9702 3.30984 62.7538 3.8697 62.7538 4.53725C62.7538 5.19763 62.974 5.75751 63.4141 6.21689ZM74.7001 8.42411C73.6512 8.42411 72.8333 8.14057 72.2463 7.57352C71.6596 6.99928 71.366 6.16664 71.366 5.0756V0.76885H73.0606V5.03253C73.0606 5.63549 73.2036 6.09844 73.4898 6.42145C73.7832 6.73728 74.1939 6.8952 74.7221 6.8952C75.2502 6.8952 75.6574 6.74088 75.9436 6.43222C76.2369 6.12357 76.3837 5.67495 76.3837 5.08637V0.76885H78.0782V5.02177C78.0782 6.14151 77.7774 6.98852 77.1758 7.56274C76.5817 8.13699 75.7564 8.42411 74.7001 8.42411ZM80.6192 8.30566V0.76885H82.3139V6.7983H86.1541V8.30566H80.6192Z" fill="black"/>
<path d="M31.5718 15.5336C31.1914 15.5336 30.8981 15.3688 30.6915 15.0391L30.9239 14.8437C31.0162 14.9793 31.1113 15.0803 31.2091 15.1468C31.3095 15.2106 31.432 15.2425 31.5759 15.2425C31.7416 15.2425 31.8762 15.1853 31.9795 15.071C32.0825 14.9541 32.1342 14.7879 32.1342 14.5726V12.7023H32.4603V14.5686C32.4603 14.8876 32.3732 15.1322 32.1994 15.3023C32.0364 15.4565 31.8272 15.5336 31.5718 15.5336ZM34.0363 15.4937V12.7023H36.0985V12.9894H34.3584V13.9425H35.9151V14.2296H34.3584V15.2066H36.1188V15.4937H34.0363ZM38.3803 15.5137L37.3616 12.7023H37.7121L38.5271 15.0272L39.3097 12.6943H39.5744L40.3569 15.0272L41.1719 12.7023H41.5103L40.4915 15.5137H40.2185L39.4359 13.2486L38.6493 15.5137H38.3803ZM42.9099 15.4937V12.7023H44.972V12.9894H43.2317V13.9425H44.7886V14.2296H43.2317V15.2066H44.9923V15.4937H42.9099ZM46.4551 15.4937V12.7023H46.7771V15.2026H48.3829V15.4937H46.4551ZM49.7935 15.4937V12.7023H51.02C51.3705 12.7023 51.6409 12.7954 51.831 12.9815C51.9778 13.125 52.0512 13.3111 52.0512 13.5397C52.0512 13.7631 51.9804 13.9438 51.8391 14.0821C51.6981 14.2203 51.5104 14.3107 51.2768 14.3532L52.153 15.4937H51.7578L50.9303 14.4091H50.1153V15.4937H49.7935ZM50.1153 14.1259H50.9915C51.2089 14.1259 51.3856 14.0741 51.5214 13.9704C51.6572 13.8667 51.7251 13.7245 51.7251 13.5437C51.7251 13.3709 51.6598 13.2367 51.5295 13.141C51.4018 13.0426 51.2239 12.9934 50.9956 12.9934H50.1153V14.1259ZM54.3426 15.4937V14.3891L53.1567 12.7023H53.5479L54.5097 14.098L55.4797 12.7023H55.8546L54.6687 14.3851V15.4937H54.3426Z" fill="black"/>
</svg>
