<svg width="100" height="13" viewBox="0 0 100 13" fill="none" xmlns="http://www.w3.org/2000/svg">
<path fill-rule="evenodd" clip-rule="evenodd" d="M24.1711 2.62891L22.0255 8.35475L19.8643 2.62891H17.1825V10.2635H18.7917V4.45844L21.0313 10.2635H22.7982L25.0383 4.4271V10.2635H26.7577V2.62891H24.1711Z" fill="black"/>
<path fill-rule="evenodd" clip-rule="evenodd" d="M37.9914 2.62891H43.9072V10.2635H42.0766V4.23775H39.6629C39.6473 5.31077 39.616 6.74592 39.5842 7.55078C39.5216 9.55401 38.9378 10.2635 37.2184 10.2635H36.3974V8.65469H36.8553C37.6285 8.65469 37.8804 8.30775 37.9283 7.21953C37.9758 6.05207 37.9914 3.7328 37.9914 2.62891Z" fill="black"/>
<path fill-rule="evenodd" clip-rule="evenodd" d="M53.2627 2.62891H60.2191V4.23775H57.6478V10.2635H55.8335V4.23775H53.2627V2.62891Z" fill="black"/>
<path fill-rule="evenodd" clip-rule="evenodd" d="M11.4163 8.93069C10.7005 8.91054 10.2855 8.49602 10.2855 7.97093C10.2855 7.53716 10.4811 7.32408 10.7399 7.17367C11.0112 7.01521 11.3635 6.96104 11.9109 6.94135C12.4374 6.92255 12.8658 6.89927 13.6818 6.89927C13.6818 8.20237 12.8622 8.85727 11.8442 8.92666C11.6835 8.93785 11.5846 8.93606 11.4163 8.93069ZM12.445 2.4707H11.7901C10.217 2.4707 9.02451 3.42777 8.751 4.85173L10.423 5.12032C10.6513 4.44169 11.1772 3.97882 11.842 3.94838C12.0564 3.93853 12.0045 3.94077 12.2194 3.94838C13.2078 3.98374 13.6536 4.4569 13.6536 5.62705C11.782 5.62705 10.5017 5.53887 9.56124 6.15886C8.79263 6.66605 8.46271 7.22784 8.46271 8.11642C8.46271 9.40161 9.4632 10.42 11.0779 10.42H11.2999C12.4405 10.42 13.3613 9.97639 13.7364 9.44055V10.2629L15.4209 10.2638V5.66153C15.4209 3.88571 14.4702 2.4707 12.445 2.4707Z" fill="black"/>
<path fill-rule="evenodd" clip-rule="evenodd" d="M48.8705 3.94655C49.0621 3.93625 49.1306 3.93625 49.3222 3.94655C50.1199 3.98639 50.9593 4.50431 51.0399 5.53435H47.1122C47.2035 4.61488 47.9416 3.99713 48.8705 3.94655ZM52.8385 6.96055V6.24612C52.8385 3.78182 51.2914 2.50781 49.2922 2.50781H48.9009C46.7505 2.50781 45.378 3.9743 45.3068 6.04377C45.2974 6.34684 45.2974 6.47306 45.3068 6.88669C45.3578 8.94632 46.8011 10.3327 48.73 10.3833C49.0836 10.3931 49.0376 10.3922 49.3715 10.3833C51.0506 10.3358 52.3214 9.36711 52.6966 8.10027L51.072 7.81646C50.6754 8.61013 49.9176 8.91453 49.3123 8.94498C49.1203 8.95528 49.0931 8.95304 48.9009 8.94498C47.9524 8.90604 47.1023 8.1616 47.1023 7.08187V6.96055H52.8385Z" fill="black"/>
<path fill-rule="evenodd" clip-rule="evenodd" d="M34.0969 7.01606C34.0758 8.0949 33.2906 8.82769 32.2347 8.88096C32.0323 8.89126 32.0449 8.89126 31.8426 8.88096C30.7758 8.82769 30.0014 8.0949 29.9799 7.01606C29.9696 6.56751 29.9696 6.31281 29.9799 5.86382C30.0014 4.79618 30.7758 4.06339 31.8426 4.01012C32.0449 3.99937 32.0323 3.99937 32.2347 4.01012C33.2906 4.06339 34.0758 4.79618 34.0969 5.87545C34.1072 6.324 34.1072 6.56751 34.0969 7.01606ZM35.8959 5.7707C35.8552 3.92282 34.365 2.50781 32.3958 2.50781H31.6818C29.7122 2.50781 28.222 3.92282 28.1817 5.78055C28.171 6.29536 28.171 6.59617 28.1817 7.11051C28.222 8.96869 29.7122 10.3833 31.6818 10.3833H32.3958C34.365 10.3833 35.8552 8.96869 35.8959 7.11051C35.9058 6.59617 35.9058 6.28551 35.8959 5.7707Z" fill="black"/>
<path fill-rule="evenodd" clip-rule="evenodd" d="M5.62743 7.56802C5.4148 8.27574 4.8454 8.76144 4.08036 8.86798C3.86012 8.89798 3.64122 8.89036 3.46441 8.86574C2.51314 8.73234 1.84302 8.01924 1.82287 7.01606C1.81214 6.56751 1.81214 6.31281 1.82287 5.86382C1.84347 4.85393 2.54628 4.11532 3.51499 4.01191C3.57095 4.00519 3.78179 3.98684 3.98681 4.00878C4.80196 4.09606 5.41435 4.58579 5.63504 5.32844L7.40772 4.98598C7.02723 3.53739 5.71337 2.50781 4.03381 2.50781H3.52483C1.55518 2.50781 0.0645202 3.92282 0.0242319 5.78055C0.0134885 6.29536 0.0134885 6.59572 0.0242319 7.11051C0.0645202 8.96869 1.55518 10.3833 3.52483 10.3833H4.03381C5.74606 10.3833 7.07244 9.31384 7.42249 7.81377L5.62743 7.56802Z" fill="black"/>
<path fill-rule="evenodd" clip-rule="evenodd" d="M98.4742 0.358398H64.628C63.8428 0.358398 63.2063 0.994953 63.2063 1.78013V10.43C63.2063 11.2152 63.8428 11.8517 64.628 11.8517H98.4742C99.2598 11.8517 99.8964 11.2152 99.8964 10.43V1.78013C99.8964 0.994953 99.2598 0.358398 98.4742 0.358398ZM67.0489 3.1709H72.6866L71.3679 9.48719H69.7706L70.7643 4.70364H68.3306L67.3273 9.48719H65.7297L67.0489 3.1709ZM80.1165 3.1709H75.2954C75.0169 4.54562 74.6736 6.07791 74.4319 7.08109C74.2833 7.67601 73.9766 7.9079 73.4381 7.9079H73.1221L72.7971 9.48719H73.5124C74.8495 9.48719 75.5371 9.02254 75.9369 7.34162C76.0601 6.81092 76.1803 6.26801 76.2937 5.75559C76.3769 5.37979 76.4564 5.02038 76.5309 4.69424H78.1939L77.1907 9.48719H78.7978L80.1165 3.1709ZM88.6114 5.83599C88.6114 5.04635 88.1656 4.52618 87.3575 4.52618C86.1776 4.52618 85.4533 5.68738 85.4533 6.84857C85.4533 7.61943 85.9457 8.13019 86.6977 8.13019C87.9144 8.13019 88.6114 7.02495 88.6114 5.83599ZM83.8091 7.08986H82.8524L82.3506 9.48656H80.7529L82.0722 3.17026H83.6699L83.1685 5.55757H84.0414C84.4779 4.20119 85.5741 3.07715 87.4874 3.07715C89.2243 3.07715 90.2556 4.08032 90.2556 5.65023C90.2556 7.56392 89.1778 9.57922 86.5675 9.57922C84.9053 9.57922 83.8373 8.63156 83.8091 7.08986ZM97.4036 7.42424L95.8432 7.13642C95.5736 7.73089 95.0445 8.13019 94.3569 8.13019C93.651 8.13019 93.2052 7.66598 93.2052 6.84857C93.2052 5.65963 93.9017 4.52618 95.0074 4.52618C95.7128 4.52618 96.0472 4.95369 96.1126 5.50161L97.7474 5.23213C97.673 3.89456 96.7719 3.07715 95.1462 3.07715C92.7405 3.07715 91.5703 5.0929 91.5703 7.02495C91.5703 8.59484 92.6478 9.57922 94.2361 9.57922C95.9357 9.57922 96.9207 8.75241 97.4036 7.42424Z" fill="black"/>
</svg>
