<svg width="117" height="29" viewBox="0 0 117 29" fill="none" xmlns="http://www.w3.org/2000/svg">
<path d="M109.402 15.196H107.024V12.876H105.806V18.792H107.024V16.24H109.402V18.792H110.62V12.818H109.402V15.196ZM102.732 12.876H101.34L98.962 18.85H100.296L100.76 17.516H103.312L103.776 18.85H105.11L102.732 12.876V12.876ZM101.108 16.414L101.978 14.036L102.848 16.414H101.108ZM117 18.792L114.39 15.544L116.884 12.818H115.376L113.23 15.37V12.818H112.012V18.792H113.23V15.776L115.492 18.792H117ZM98.0341 15.66C97.6861 15.312 97.2221 15.138 96.7581 15.08H95.482V13.92H98.092V12.876H94.2641V18.792H96.7581C96.9901 18.792 97.2221 18.734 97.4541 18.676C97.6861 18.618 97.8601 18.444 98.0341 18.27C98.2081 18.096 98.324 17.922 98.44 17.69C98.556 17.458 98.556 17.226 98.556 16.994C98.556 16.472 98.3241 16.008 98.0341 15.66V15.66ZM96.99 17.574C96.816 17.748 96.642 17.806 96.41 17.864H95.4241V16.124H96.41C96.526 16.124 96.6421 16.124 96.7581 16.182C96.8741 16.24 96.9901 16.298 97.0481 16.356C97.1061 16.414 97.222 16.53 97.222 16.646C97.28 16.762 97.28 16.878 97.28 16.994C97.28 17.168 97.164 17.4 96.99 17.574V17.574ZM25.534 19.778H22.692L23.968 17.516L20.778 11.89H23.678L25.36 15.196L26.984 11.89H29.768L25.534 19.778ZM61.03 19.778H57.492C55.578 19.778 54.012 18.154 54.012 15.95C54.012 13.398 55.578 11.89 57.492 11.89H61.03V13.862H58.768C57.434 13.862 56.622 14.268 56.622 15.892C56.622 17.516 57.376 17.864 58.768 17.864H61.03V19.778V19.778ZM70.252 19.778H67.642V14.21L64.684 19.778H61.552V11.89H64.162V17.284L67.12 11.89H70.252V19.778ZM51.344 11.89H48.502L45.718 18.444L42.934 11.89H40.034L36.67 19.836H39.396L39.976 18.154H42.876L43.514 19.836H47.806L49.894 14.094L51.924 19.836H54.65L51.344 11.89V11.89ZM40.73 16.356L41.6 14.094L42.412 16.356H40.73ZM35.336 11.89H30V19.836H32.552V17.516H35.336C38.004 17.516 38.004 15.138 38.004 14.616C38.004 14.094 38.004 11.89 35.336 11.89V11.89ZM34.466 15.544H32.61V13.862H34.466C34.756 13.862 35.51 13.862 35.51 14.674C35.51 15.486 34.756 15.544 34.466 15.544ZM75.994 14.848H73.384V13.804H78.314V11.832H70.774V19.778H75.994C78.72 19.778 78.72 18.154 78.72 17.284C78.72 16.414 78.72 14.906 75.994 14.848ZM75.53 17.98H73.326V16.704H75.53C76.11 16.704 76.11 17.11 76.11 17.284C76.11 17.458 76.11 17.98 75.53 17.98ZM9.29404 7.888C9.46804 7.888 9.70004 7.888 9.87404 7.946L9.81604 2.552H10.454C10.396 4.408 10.512 6.206 10.686 8.062C12.194 8.41 13.586 9.164 14.688 10.324C15.79 11.484 16.486 12.876 16.776 14.442C17.066 16.008 16.834 17.574 16.196 19.024C15.558 20.474 14.514 21.634 13.18 22.504C13.122 22.446 13.064 22.33 12.948 22.214C10.57 19.198 9.99004 14.732 9.81604 10.846C10.164 10.904 10.454 10.962 10.802 11.02C11.324 14.326 12.774 17.458 15.094 19.894C15.906 18.908 16.37 17.574 16.254 16.298C16.196 14.964 15.616 13.746 14.746 12.818C13.702 11.716 12.426 10.904 10.976 10.556C10.28 10.382 9.58404 10.266 8.88804 10.266C8.19204 10.266 7.43804 10.382 6.74204 10.556C3.72604 11.31 1.46404 13.688 1.46404 16.53C1.46404 17.748 1.87004 18.908 2.62404 19.894C4.94404 17.458 6.39404 14.326 6.91604 11.02C7.26404 10.962 7.55404 10.962 7.96004 10.846C7.78604 14.79 7.20604 19.198 4.82804 22.156C4.77004 22.272 4.65404 22.388 4.59604 22.446C3.26204 21.576 2.27604 20.358 1.63804 18.908C1.00004 17.458 0.82604 15.892 1.11604 14.326C1.40604 12.76 2.16004 11.368 3.20404 10.266C4.24804 9.164 5.69804 8.352 7.20604 8.062C7.43804 4.06 7.38004 2.552 7.38004 2.552H8.01804L7.96004 7.946C8.13404 7.888 8.30804 7.83 8.48204 7.888V0H9.17804C9.23604 0 9.23604 7.888 9.29404 7.888Z" fill="black"/>
<path d="M9.29407 10.7884C9.35207 14.5584 9.64207 19.1984 10.8601 22.3884C10.9761 22.7364 11.1501 23.0844 11.3821 23.4324C10.5701 23.6644 9.75807 23.7804 8.94607 23.8384C8.13407 23.8384 7.32207 23.7224 6.51007 23.4324C6.74207 23.0264 6.91607 22.6784 7.09007 22.2724C8.19207 19.1404 8.48207 14.5004 8.54007 10.7884H9.29407ZM86.1441 9.86035H86.6661V21.8084H86.1441V9.86035Z" fill="black"/>
</svg>
