<svg width="154" height="24" viewBox="0 0 154 24" fill="none" xmlns="http://www.w3.org/2000/svg">
<path d="M24.5539 19.778H21.7119L22.9879 17.516L19.7979 11.89H22.6979L24.3799 15.196L26.0039 11.89H28.7879L24.5539 19.778ZM60.0499 19.778H56.5119C54.5979 19.778 53.0319 18.154 53.0319 15.95C53.0319 13.398 54.5979 11.89 56.5119 11.89H60.0499V13.862H57.7879C56.4539 13.862 55.6419 14.268 55.6419 15.892C55.6419 17.516 56.3959 17.864 57.7879 17.864H60.0499V19.778ZM69.2719 19.778H66.6619V14.21L63.7039 19.778H60.5719V11.89H63.1819V17.284L66.1399 11.89H69.2719V19.778ZM50.3639 11.89H47.5219L44.7379 18.444L41.9539 11.89H39.0539L35.6899 19.836H38.4159L38.9959 18.154H41.8959L42.5339 19.836H46.8259L48.9139 14.094L50.9439 19.836H53.6699L50.3639 11.89ZM39.7499 16.356L40.6199 14.094L41.4319 16.356H39.7499ZM34.3559 11.89H29.0199V19.836H31.5719V17.516H34.3559C37.0239 17.516 37.0239 15.138 37.0239 14.616C37.0239 14.094 37.0239 11.89 34.3559 11.89ZM33.4859 15.544H31.6299V13.862H33.4859C33.7759 13.862 34.5299 13.862 34.5299 14.674C34.5299 15.486 33.7759 15.544 33.4859 15.544ZM75.0139 14.848H72.4039V13.804H77.3339V11.832H69.7939V19.778H75.0139C77.7399 19.778 77.7399 18.154 77.7399 17.284C77.7399 16.414 77.7399 14.906 75.0139 14.848ZM74.5499 17.98H72.3459V16.704H74.5499C75.1299 16.704 75.1299 17.11 75.1299 17.284C75.1299 17.458 75.1299 17.98 74.5499 17.98ZM8.31394 7.888C8.48794 7.888 8.71994 7.888 8.89394 7.946L8.83594 2.552H9.47394C9.41594 4.408 9.53194 6.206 9.70594 8.062C11.2139 8.41 12.6059 9.164 13.7079 10.324C14.8099 11.484 15.5059 12.876 15.7959 14.442C16.0859 16.008 15.8539 17.574 15.2159 19.024C14.5779 20.474 13.5339 21.634 12.1999 22.504C12.1419 22.446 12.0839 22.33 11.9679 22.214C9.58994 19.198 9.00994 14.732 8.83594 10.846C9.18394 10.904 9.47394 10.962 9.82194 11.02C10.3439 14.326 11.7939 17.458 14.1139 19.894C14.9259 18.908 15.3899 17.574 15.2739 16.298C15.2159 14.964 14.6359 13.746 13.7659 12.818C12.7219 11.716 11.4459 10.904 9.99594 10.556C9.29994 10.382 8.60394 10.266 7.90794 10.266C7.21194 10.266 6.45794 10.382 5.76194 10.556C2.74594 11.31 0.483938 13.688 0.483938 16.53C0.483938 17.748 0.889938 18.908 1.64394 19.894C3.96394 17.458 5.41394 14.326 5.93594 11.02C6.28394 10.962 6.57394 10.962 6.97994 10.846C6.80594 14.79 6.22594 19.198 3.84794 22.156C3.78994 22.272 3.67394 22.388 3.61594 22.446C2.28194 21.576 1.29594 20.358 0.657937 18.908C0.0199375 17.458 -0.154062 15.892 0.135938 14.326C0.425938 12.76 1.17994 11.368 2.22394 10.266C3.26794 9.164 4.71794 8.352 6.22594 8.062C6.45794 4.06 6.39994 2.552 6.39994 2.552H7.03794L6.97994 7.946C7.15394 7.888 7.32794 7.83 7.50194 7.888V0H8.19794C8.25594 0 8.25594 7.888 8.31394 7.888Z" fill="black"/>
<path d="M8.31397 10.7884C8.37197 14.5584 8.66197 19.1984 9.87997 22.3884C9.99597 22.7364 10.17 23.0844 10.402 23.4324C9.58997 23.6644 8.77797 23.7804 7.96597 23.8384C7.15397 23.8384 6.34197 23.7224 5.52997 23.4324C5.76197 23.0264 5.93597 22.6784 6.10997 22.2724C7.21197 19.1404 7.50197 14.5004 7.55997 10.7884H8.31397ZM85.164 9.86035H85.686V21.8084H85.164V9.86035Z" fill="black"/>
<path d="M96.0889 13.9361C95.8504 13.9361 95.6387 13.983 95.4537 14.0768C95.2715 14.1679 95.1174 14.3006 94.9915 14.4747C94.8682 14.6489 94.7744 14.8593 94.7101 15.1059C94.6458 15.3524 94.6136 15.6298 94.6136 15.938C94.6136 16.3533 94.6645 16.7084 94.7664 17.0032C94.8709 17.2953 95.0317 17.5191 95.2487 17.6745C95.4658 17.8273 95.7459 17.9036 96.0889 17.9036C96.3274 17.9036 96.5659 17.8768 96.8044 17.8232C97.0456 17.7696 97.3069 17.6933 97.5883 17.5941V18.6393C97.3283 18.7465 97.0724 18.8228 96.8205 18.8684C96.5686 18.9166 96.2858 18.9407 95.9723 18.9407C95.3667 18.9407 94.8682 18.8161 94.4769 18.5669C94.0884 18.315 93.8003 17.9639 93.6127 17.5137C93.4251 17.0608 93.3313 16.5329 93.3313 15.9299C93.3313 15.4851 93.3916 15.0777 93.5122 14.7079C93.6328 14.3381 93.8096 14.0178 94.0428 13.7472C94.2759 13.4765 94.564 13.2675 94.9071 13.1201C95.2501 12.9727 95.644 12.899 96.0889 12.899C96.381 12.899 96.6731 12.9365 96.9652 13.0115C97.26 13.0839 97.5414 13.1844 97.8094 13.313L97.4074 14.326C97.1876 14.2215 96.9665 14.1304 96.7441 14.0527C96.5217 13.9749 96.3033 13.9361 96.0889 13.9361ZM100.945 18.8604H99.6988V14.0205H98.103V12.9834H102.541V14.0205H100.945V18.8604ZM105.158 12.9834C105.916 12.9834 106.47 13.1469 106.818 13.4738C107.166 13.7981 107.341 14.2456 107.341 14.8164C107.341 15.0737 107.302 15.3202 107.224 15.5561C107.146 15.7892 107.019 15.9969 106.842 16.1791C106.668 16.3614 106.435 16.5061 106.143 16.6133C105.851 16.7178 105.49 16.7701 105.061 16.7701H104.527V18.8604H103.281V12.9834H105.158ZM105.094 14.0044H104.527V15.749H104.937C105.17 15.749 105.372 15.7182 105.544 15.6566C105.715 15.5949 105.848 15.4985 105.942 15.3671C106.036 15.2358 106.082 15.067 106.082 14.8606C106.082 14.5712 106.002 14.3568 105.841 14.2175C105.68 14.0754 105.431 14.0044 105.094 14.0044ZM111.883 18.8604L111.457 17.4615H109.315L108.888 18.8604H107.546L109.62 12.9593H111.144L113.226 18.8604H111.883ZM111.16 16.4163L110.734 15.0496C110.707 14.9585 110.671 14.8419 110.625 14.6999C110.582 14.5551 110.538 14.4091 110.492 14.2617C110.449 14.1116 110.415 13.9816 110.388 13.8718C110.361 13.9816 110.323 14.1183 110.275 14.2818C110.23 14.4426 110.185 14.5953 110.143 14.7401C110.1 14.8848 110.069 14.9879 110.05 15.0496L109.628 16.4163H111.16ZM118.556 18.8604H117.133L115.766 16.6374L114.4 18.8604H113.065L115.015 15.8294L113.19 12.9834H114.565L115.831 15.0978L117.073 12.9834H118.416L116.57 15.8978L118.556 18.8604ZM124.465 15.9138C124.465 16.3667 124.409 16.7794 124.297 17.1519C124.184 17.5218 124.013 17.8407 123.782 18.1086C123.554 18.3766 123.265 18.583 122.914 18.7277C122.563 18.8697 122.147 18.9407 121.668 18.9407C121.188 18.9407 120.773 18.8697 120.422 18.7277C120.07 18.583 119.78 18.3766 119.549 18.1086C119.321 17.8407 119.151 17.5204 119.039 17.1479C118.926 16.7754 118.87 16.3614 118.87 15.9058C118.87 15.2975 118.969 14.7682 119.167 14.318C119.368 13.8651 119.677 13.514 120.092 13.2648C120.507 13.0156 121.035 12.8909 121.676 12.8909C122.314 12.8909 122.837 13.0156 123.247 13.2648C123.66 13.514 123.966 13.8651 124.164 14.318C124.365 14.7709 124.465 15.3028 124.465 15.9138ZM120.176 15.9138C120.176 16.3239 120.227 16.6776 120.329 16.9751C120.434 17.2698 120.596 17.4976 120.815 17.6584C121.035 17.8165 121.319 17.8956 121.668 17.8956C122.021 17.8956 122.308 17.8165 122.528 17.6584C122.748 17.4976 122.907 17.2698 123.006 16.9751C123.108 16.6776 123.159 16.3239 123.159 15.9138C123.159 15.2975 123.044 14.8124 122.813 14.4587C122.583 14.1049 122.204 13.9281 121.676 13.9281C121.325 13.9281 121.038 14.0084 120.815 14.1692C120.596 14.3274 120.434 14.5551 120.329 14.8526C120.227 15.1474 120.176 15.5011 120.176 15.9138ZM125.519 12.9834H127.348C128.13 12.9834 128.723 13.0933 129.125 13.313C129.527 13.5328 129.728 13.9187 129.728 14.4707C129.728 14.6932 129.691 14.8941 129.619 15.0737C129.549 15.2532 129.448 15.4006 129.314 15.5159C129.18 15.6311 129.016 15.7061 128.823 15.741V15.7812C129.019 15.8214 129.196 15.8911 129.354 15.9902C129.512 16.0867 129.638 16.2287 129.732 16.4163C129.828 16.6012 129.876 16.8478 129.876 17.156C129.876 17.5124 129.789 17.8179 129.615 18.0725C129.441 18.3271 129.192 18.5227 128.867 18.6594C128.546 18.7934 128.163 18.8604 127.718 18.8604H125.519V12.9834ZM126.765 15.3109H127.489C127.85 15.3109 128.101 15.2546 128.24 15.142C128.38 15.0268 128.449 14.858 128.449 14.6355C128.449 14.4104 128.366 14.2496 128.2 14.1532C128.037 14.054 127.777 14.0044 127.42 14.0044H126.765V15.3109ZM126.765 16.2997V17.8313H127.577C127.952 17.8313 128.213 17.7589 128.361 17.6142C128.508 17.4695 128.582 17.2752 128.582 17.0313C128.582 16.8866 128.55 16.7593 128.485 16.6495C128.421 16.5396 128.313 16.4538 128.16 16.3922C128.01 16.3306 127.802 16.2997 127.537 16.2997H126.765ZM134.483 18.8604L134.057 17.4615H131.914L131.488 18.8604H130.146L132.22 12.9593H133.744L135.826 18.8604H134.483ZM133.76 16.4163L133.333 15.0496C133.307 14.9585 133.271 14.8419 133.225 14.6999C133.182 14.5551 133.138 14.4091 133.092 14.2617C133.049 14.1116 133.015 13.9816 132.988 13.8718C132.961 13.9816 132.923 14.1183 132.875 14.2818C132.83 14.4426 132.785 14.5953 132.743 14.7401C132.7 14.8848 132.669 14.9879 132.65 15.0496L132.228 16.4163H133.76ZM141.221 18.8604H139.978V16.3239H137.651V18.8604H136.405V12.9834H137.651V15.2867H139.978V12.9834H141.221V18.8604ZM142.543 12.9834H143.665V15.8214C143.665 15.9607 143.662 16.1148 143.657 16.2837C143.654 16.4525 143.649 16.6186 143.641 16.7821C143.635 16.9429 143.63 17.0836 143.625 17.2042C143.619 17.3248 143.614 17.4052 143.608 17.4454H143.633L146.346 12.9834H147.837V18.8604H146.728V16.0384C146.728 15.8884 146.73 15.7249 146.736 15.548C146.741 15.3712 146.748 15.1997 146.756 15.0335C146.767 14.8673 146.776 14.724 146.784 14.6034C146.792 14.4801 146.797 14.3984 146.8 14.3582H146.768L144.043 18.8604H142.543V12.9834ZM152.541 18.8604H149.156V12.9834H152.541V14.0044H150.402V15.2948H152.392V16.3158H150.402V17.8313H152.541V18.8604Z" fill="black"/>
</svg>
