<?xml version="1.0" encoding="utf-8"?><svg width="128" height="128" fill="none" xmlns="http://www.w3.org/2000/svg" viewBox="0 0 128 128"><path fill-rule="evenodd" clip-rule="evenodd" d="M120.538 50.825l4.035 4.31c4.585 4.952 4.585 12.838-.092 17.698l-4.035 4.31a13.335 13.335 0 00-3.301 10.729l.825 5.96c1.009 6.877-3.484 13.205-9.995 14.397l-5.685 1.008c-3.76.642-6.97 3.118-8.712 6.603l-2.75 5.318c-3.118 6.144-10.27 8.528-16.231 5.502l-5.227-2.659a11.855 11.855 0 00-10.82 0l-5.227 2.659c-5.96 3.026-13.113.55-16.23-5.502l-2.752-5.318c-1.742-3.485-4.952-5.961-8.711-6.603l-5.685-1.008c-6.511-1.192-10.913-7.611-9.996-14.397l.826-5.96c.55-3.943-.642-7.886-3.302-10.73L3.44 72.834c-4.585-4.952-4.585-12.838 0-17.79l4.034-4.31c2.568-2.75 3.852-6.693 3.302-10.636l-.826-5.96c-1.008-6.878 3.485-13.205 9.996-14.398l5.776-1.008c3.76-.642 6.97-3.118 8.712-6.603l2.75-5.318C40.303.666 47.455-1.718 53.415 1.308l5.227 2.66a11.854 11.854 0 0010.82 0l5.228-2.66c5.96-3.026 13.113-.55 16.23 5.502l2.751 5.319c1.742 3.484 4.952 5.96 8.712 6.602l5.685 1.008c6.511 1.193 10.912 7.611 9.995 14.397l-.825 5.96c-.55 3.944.642 7.887 3.301 10.73zm-104.811 46.4c0 2.568 2.017 4.585 4.401 4.585s4.402-2.017 4.402-4.584c0-2.568-1.926-4.585-4.402-4.585s-4.401 2.017-4.401 4.585z" fill="#B9AF79"/><path fill-rule="evenodd" clip-rule="evenodd" d="M32.875 69.532V57.795h4.218c1.559 0 2.66.275 3.485.825.825.55 1.192 1.376 1.192 2.384 0 .642-.184 1.1-.459 1.56-.275.458-.733.733-1.283.916.641.184 1.1.459 1.375.917.367.459.459 1.009.459 1.65 0 1.101-.367 2.018-1.1 2.568-.734.55-1.835.826-3.21.917h-4.677zm2.842-6.877h1.467c.642 0 1.1-.092 1.284-.367.275-.183.366-.55.366-1.008 0-.459-.183-.826-.458-1.1-.275-.184-.734-.367-1.375-.367h-1.376v2.842h.092zm.002 4.768V64.58h2.017c1.009 0 1.467.459 1.467 1.467 0 .459-.183.734-.458 1.009-.275.275-.642.367-1.192.367h-1.834zM46.358 65.406h1.56l2.2 4.126h3.026v-.275l-2.476-4.676c.734-.276 1.192-.734 1.559-1.284.275-.55.459-1.192.459-2.017 0-1.1-.367-1.926-1.193-2.568-.825-.642-1.925-.917-3.3-.917h-4.677v11.737h2.842v-4.126zm1.833-2.2h-1.834s0-3.21-.091-3.302H48.1c.55 0 .917.184 1.192.459.275.275.458.642.458 1.192 0 .55-.092.917-.367 1.192-.275.275-.642.459-1.192.459zM63.683 66.965c.458-.917.642-1.926.642-3.026v-.367c0-1.192-.184-2.11-.642-3.026-.458-.917-1.009-1.559-1.834-2.017-.733-.459-1.65-.734-2.66-.734-1.008 0-1.833.275-2.658.733-.826.459-1.376 1.1-1.834 2.018-.459.917-.642 1.926-.642 3.026v.642c0 1.1.183 2.109.642 2.934a5.296 5.296 0 001.834 1.926c.733.458 1.65.642 2.659.642s1.834-.275 2.66-.734c.824-.458 1.375-1.1 1.833-2.017zm-2.748-6.236c.367.642.55 1.468.55 2.66v.55c0 1.1-.183 1.926-.55 2.568-.367.641-.917.916-1.65.916-.826 0-1.376-.275-1.743-.916-.366-.642-.55-1.56-.55-2.66v-.825c.092-2.11.826-3.21 2.293-3.21.733 0 1.283.276 1.65.918z" fill="#fff"/><path d="M75.7 69.532h-2.842l-4.219-7.335v7.335h-2.842V57.795h2.843l4.126 7.244v-7.244h2.843c.091 0 .091 11.737.091 11.737zM80.652 67.332h5.594v2.2h-9.17v-1.467l5.594-8.07h-5.686v-2.2h9.17v1.467l-5.502 8.07zM94.867 64.58h-4.493v2.752h5.318v2.2h-8.16V57.795h8.16v2.2h-5.318v2.477h4.493v2.109z" fill="#fff"/><path fill-rule="evenodd" clip-rule="evenodd" d="M80.738 27.35c-.733 1.284-3.484 1.56-5.41 1.1.917-.824 3.026-1.65 4.769-1.283l.641.184-.55-.367c-1.559-.917-2.384-2.935-2.476-4.218 1.65 1.1 3.393 3.3 3.026 4.585zM63.96 103.37c.642 0 1.1.459 1.1 1.101 0 .55-.458 1.1-1.1 1.1-.642 0-1.1-.459-1.1-1.1.091-.642.55-1.101 1.1-1.101zm14.304-77.12l-.459-.458c-1.375-1.192-3.576-1.375-4.86-1.009 1.56 1.284 4.127 2.293 5.319 1.468zm-28.428 0c1.192.826 3.851-.183 5.319-1.467-1.284-.367-3.485-.092-4.86 1.009l-.46.458zm11.373 78.22c-.366 1.375-2.934 2.476-4.951 2.476.733-1.101 2.476-2.384 4.218-2.476h.733c0-1.467-2.292-3.118-4.126-3.576.367 1.192 1.742 2.934 3.485 3.392l.642.184zm-4.035-.549c.184-1.468-1.925-3.302-3.76-4.035.276 1.284 1.468 3.118 3.118 3.759l.642.276-.642-.092c-1.834-.092-3.668 1.008-4.493 2.017 1.926.184 4.585-.55 5.135-1.925zm-4.035-.917c-.642 1.284-3.393 1.834-5.319 1.467.917-.917 2.843-1.925 4.677-1.559l.642.092c.275-1.375-1.559-3.484-3.301-4.401.183 1.283 1.1 3.209 2.75 4.034l.55.367zm-3.854-1.377c.459-1.376-1.192-3.576-2.842-4.677 0 1.284.825 3.301 2.292 4.31l.55.367-.642-.184c-1.742-.458-3.851.276-4.768 1.101 1.834.55 4.677.275 5.41-.917zm-3.76-1.74c-.825 1.191-3.668 1.1-5.502.366 1.1-.733 3.21-1.284 4.86-.642l.642.275c.55-1.284-.825-3.668-2.384-4.951-.091 1.283.459 3.392 1.834 4.493l.55.458zm-3.57-2.018c.734-1.284-.458-3.76-1.834-5.136-.275 1.284.092 3.393 1.376 4.677l.458.459-.55-.275c-1.65-.826-3.76-.459-4.952.091 1.742.825 4.585 1.192 5.502.184zM38.65 95.39c-1.1.917-3.851.367-5.502-.734 1.192-.55 3.393-.642 4.952.367l.55.367-.458-.459c-1.192-1.375-1.284-3.576-.917-4.768 1.284 1.467 2.2 4.035 1.375 5.227zm-3.029-2.75c-1.192.825-3.851 0-5.41-1.284 1.192-.367 3.485-.275 4.86.825l.55.459c.917-1.1.275-3.76-.825-5.41-.459 1.192-.55 3.392.458 4.86l.367.55zm-2.746-3.028c-1.284.734-3.851-.458-5.227-1.834 1.284-.275 3.485.092 4.769 1.376l.458.458c1.1-1.008.642-3.76-.275-5.502-.642 1.1-.917 3.301-.092 4.86l.367.642zm-2.386-3.3c-1.376.641-3.76-.826-5.044-2.293 1.284-.092 3.393.459 4.585 1.834l.459.459-.275-.642c-.642-1.651-.184-3.76.55-4.86.733 1.833.825 4.676-.275 5.501zm-2.111-3.485l-.184-.642c-.55-1.742.184-3.76 1.1-4.768.55 1.834.276 4.677-.916 5.41l-.367-.55c-1.009-1.467-3.118-2.293-4.402-2.293 1.1 1.651 3.393 3.302 4.769 2.843zm-1.742-3.76c-1.376.367-3.485-1.558-4.402-3.209 1.284.092 3.301 1.1 4.127 2.66l.275.55c1.284-.642 1.742-3.393 1.375-5.319-.917.917-1.834 2.843-1.558 4.677l.183.641zm-1.283-3.85l-.092-.643c-.183-1.834 1.009-3.668 2.018-4.493.183 1.926-.55 4.677-1.926 5.135l-.275-.642c-.734-1.65-2.568-2.842-3.851-3.118.733 1.926 2.659 3.944 4.126 3.76zm-.92-3.944v-.642c0-1.834 1.376-3.576 2.476-4.218-.091 1.834-1.1 4.493-2.475 4.86l-.184-.642c-.55-1.742-2.292-3.026-3.484-3.484.55 1.925 2.2 4.126 3.668 4.126zm-.546-4.035c-1.467-.092-2.934-2.476-3.301-4.401 1.192.458 2.75 2.017 3.118 3.76l.183.641c1.467-.183 2.751-2.66 2.934-4.677-1.192.55-2.659 2.201-2.842 3.944l-.092.733zm-.09-4.125c-1.466-.275-2.658-2.75-2.75-4.676 1.1.641 2.567 2.292 2.75 4.034v.642c1.468-.092 2.935-2.384 3.394-4.31-1.192.459-2.843 1.926-3.21 3.668l-.183.642zm.277-4.035c-1.376-.459-2.293-3.026-2.293-5.044 1.1.734 2.293 2.568 2.293 4.31v.734c1.467.091 3.21-2.11 3.851-3.944-1.284.367-3.026 1.651-3.576 3.302l-.275.642zm.734-4.036l.275-.55c.733-1.65 2.659-2.75 3.943-2.934-.826 1.65-2.751 3.668-4.218 3.484l.091-.642c.184-1.834-.917-3.668-1.834-4.493-.275 1.834.459 4.585 1.743 5.135zm1.189-3.943c-1.284-.642-1.65-3.393-1.284-5.319.917.917 1.742 2.935 1.375 4.677l-.091.642c1.375.367 3.576-1.467 4.493-3.118-1.284.092-3.301 1.009-4.218 2.568l-.275.55zm1.467-3.76c-1.192-.825-1.284-3.576-.734-5.41.825 1.008 1.467 3.117.917 4.768l-.183.642c1.375.55 3.668-1.1 4.86-2.66-1.284 0-3.393.642-4.493 2.11l-.367.55zm1.926-3.666c1.284.642 3.76-.734 5.043-2.11-1.283-.183-3.484.276-4.676 1.651l-.367.459.275-.55c.733-1.65.275-3.76-.367-4.86-.825 1.742-1.1 4.493.092 5.41zm2.198-3.395c-1.008-1.008-.55-3.76.459-5.502.55 1.192.825 3.301-.092 4.86l-.366.642.458-.458c1.376-1.192 3.485-1.467 4.768-1.192-1.375 1.284-3.943 2.384-5.226 1.65zm2.663-3.209l.55-.366c1.468-1.1 3.668-1.1 4.86-.734-1.65 1.192-4.31 2.017-5.41 1.1l.367-.55c1.1-1.467 1.009-3.668.55-4.86-1.1 1.65-1.834 4.31-.917 5.41zm2.838-2.841c-.826-1.192.183-3.76 1.467-5.227.367 1.192.091 3.393-1.1 4.768l-.367.459c1.008 1.008 3.85.458 5.502-.55-1.193-.55-3.393-.734-4.952.183l-.55.367zm3.214-2.66c-.642-1.284.642-3.76 2.017-5.044.184 1.284-.183 3.393-1.559 4.677l-.458.367.55-.275c1.65-.734 3.852-.367 4.952.275-1.742.825-4.585 1.1-5.502 0zm3.388-2.201l.642-.184c1.742-.641 3.851 0 4.86.734-1.834.642-4.677.55-5.502-.55l.55-.367c1.467-1.1 2.11-3.21 2.017-4.493-1.558 1.1-3.117 3.484-2.567 4.86zm3.67-1.926c-.366-1.375 1.376-3.576 3.027-4.585-.092 1.284-.917 3.301-2.476 4.218l-.55.367.642-.183c1.742-.459 3.851.366 4.768 1.284-1.926.458-4.768.091-5.41-1.1zm19.444 77.027c.366 1.375 2.934 2.476 4.951 2.476-.641-1.101-2.475-2.384-4.218-2.476h-.733c0-1.467 2.292-3.118 4.126-3.576-.367 1.192-1.742 2.934-3.484 3.392l-.642.184zm4.034-.549c-.183-1.468 1.926-3.302 3.76-4.035-.275 1.284-1.467 3.118-3.118 3.759l-.642.276.642-.092c1.834-.092 3.668 1.008 4.493 2.017-1.925.184-4.676-.55-5.135-1.925zm4.035-.919l.55-.275c1.65-.825 2.567-2.75 2.75-4.035-1.742.826-3.667 2.843-3.3 4.31l.641-.091c1.834-.276 3.76.641 4.677 1.558-1.926.276-4.768-.183-5.318-1.467zm3.852-1.375c-.458-1.376 1.192-3.576 2.843-4.677 0 1.284-.826 3.301-2.293 4.31l-.55.367.642-.184c1.742-.458 3.851.276 4.768 1.101-1.834.55-4.676.275-5.41-.917zm3.757-1.74c.825 1.191 3.668 1.1 5.502.366-1.1-.733-3.21-1.284-4.86-.642l-.642.275c-.55-1.284.825-3.668 2.384-4.951.092 1.283-.458 3.392-1.834 4.493l-.55.458zm3.483-2.11c-.734-1.284.458-3.76 1.834-5.135.275 1.283-.092 3.392-1.376 4.676l-.458.459.55-.275c1.65-.826 3.76-.459 4.952.091-1.65.917-4.494 1.284-5.502.184zm3.304-2.385c1.1.917 3.851.367 5.502-.734-1.193-.55-3.393-.642-4.952.367l-.55.367.458-.459c1.192-1.375 1.284-3.576.917-4.768-1.192 1.376-2.2 4.035-1.375 5.227zm3.113-2.75l.366-.55c1.01-1.468.917-3.668.459-4.86-1.192 1.558-1.834 4.31-.825 5.41l.55-.367c1.375-1.1 3.668-1.284 4.86-.825-1.559 1.1-4.31 2.017-5.41 1.192zm2.752-3.028c1.284.734 3.852-.458 5.227-1.834-1.284-.275-3.484.092-4.768 1.376l-.459.458c-1.1-1.008-.642-3.76.275-5.502.642 1.1.918 3.301.092 4.86l-.367.642zm2.387-3.3c1.284.641 3.76-.826 5.044-2.293-1.284-.092-3.393.459-4.585 1.834l-.459.459.275-.642c.642-1.651.184-3.76-.55-4.86-.733 1.833-.825 4.584.275 5.501zm2.107-3.577c1.376.459 3.668-1.192 4.769-2.842-1.284 0-3.393.733-4.402 2.292l-.367.55c-1.192-.733-1.375-3.576-.825-5.41.825 1.009 1.559 3.026 1.009 4.769l-.184.641zm1.744-3.668c1.375.367 3.484-1.558 4.401-3.3-1.283.091-3.301 1.1-4.126 2.659l-.275.641c-1.284-.641-1.743-3.392-1.376-5.318.917.917 1.834 2.843 1.559 4.677l-.183.641zm1.284-3.85c1.467.183 3.301-1.927 4.126-3.669-1.284.275-3.118 1.376-3.851 3.118l-.275.55c-1.376-.458-2.109-3.21-1.926-5.135 1.009.825 2.109 2.66 2.017 4.493l-.091.642zm.913-4.036c1.467 0 3.117-2.2 3.668-4.034-1.193.366-3.026 1.742-3.485 3.484l-.183.55c-1.376-.367-2.385-2.934-2.476-4.86 1.1.734 2.384 2.476 2.476 4.218v.642zm.552-4.035c1.467-.091 2.934-2.476 3.301-4.401-1.192.458-2.843 2.017-3.118 3.76l-.183.641c-1.467-.183-2.751-2.659-2.934-4.676 1.192.55 2.659 2.2 2.842 3.943l.092.733zm.091-4.033l-.183-.642c-.367-1.742-2.018-3.21-3.21-3.668.459 1.834 1.926 4.218 3.393 4.31l.092-.642c.183-1.834 1.65-3.484 2.751-4.035-.184 1.835-1.376 4.402-2.843 4.677zm-.276-4.127c1.376-.367 2.293-3.026 2.293-4.952-1.101.734-2.293 2.568-2.293 4.31v.642c-1.467.092-3.209-2.11-3.851-3.943 1.284.367 3.026 1.65 3.576 3.301l.275.642zm-.734-4.035c1.375-.55 2.017-3.21 1.742-5.136-1.009.826-2.109 2.751-1.834 4.494l.092.642c-1.468.183-3.393-1.743-4.219-3.577 1.284.184 3.21 1.284 3.943 2.935l.276.642zm-1.1-3.852c1.283-.642 1.65-3.393 1.283-5.319-.917.917-1.742 2.935-1.375 4.677l.092.642c-1.376.367-3.577-1.467-4.494-3.118 1.284.092 3.302 1.009 4.219 2.568l.275.55zm-1.553-3.85l-.367-.55c-1.1-1.467-3.118-2.2-4.402-2.11 1.1 1.651 3.393 3.21 4.769 2.66l-.184-.642c-.55-1.742.092-3.76.917-4.768.55 1.834.459 4.676-.733 5.41zm-1.835-3.576c-1.284.642-3.76-.734-5.043-2.11 1.284-.183 3.393.276 4.677 1.651l.366.459-.275-.55c-.733-1.65-.275-3.76.367-4.86.825 1.65 1.009 4.493-.092 5.41zm-2.293-3.485c1.009-1.008.55-3.76-.367-5.502-.55 1.193-.825 3.302.092 4.86l.275.642-.458-.458c-1.376-1.192-3.485-1.467-4.769-1.192 1.376 1.375 4.035 2.476 5.227 1.65zm-2.566-3.119l-.55-.366c-1.468-1.1-3.669-1.1-4.86-.734 1.558 1.192 4.218 2.017 5.41 1.1l-.367-.55c-1.009-1.467-1.009-3.668-.55-4.86 1.1 1.559 1.834 4.31.917 5.41zm-2.94-2.933c.825-1.192-.183-3.76-1.467-5.227-.367 1.284-.092 3.393 1.1 4.768l.367.459c-1.009 1.009-3.851.459-5.502-.55 1.192-.55 3.393-.734 4.952.183l.55.367zm-3.117-2.568c.642-1.284-.55-3.76-2.018-5.044-.183 1.284.184 3.393 1.56 4.677l.458.367-.55-.275c-1.651-.734-3.852-.367-4.952.275 1.742.825 4.493 1.1 5.502 0zm-3.485-2.293c.55-1.284-1.008-3.668-2.567-4.86-.092 1.284.55 3.393 2.017 4.493l.55.367c-.825 1.192-3.667 1.192-5.501.55 1.008-.733 3.117-1.375 4.86-.733l.641.183z" fill="#fff"/><path fill-rule="evenodd" clip-rule="evenodd" d="M80.738 27.35c-.733 1.284-3.484 1.56-5.41 1.1.917-.824 3.026-1.65 4.769-1.283l.641.184-.55-.367c-1.559-.917-2.384-2.935-2.476-4.218 1.65 1.1 3.393 3.3 3.026 4.585zM63.96 103.37c.642 0 1.1.459 1.1 1.101 0 .55-.458 1.1-1.1 1.1-.642 0-1.1-.459-1.1-1.1.091-.642.55-1.101 1.1-1.101zm14.304-77.12l-.459-.458c-1.375-1.192-3.576-1.375-4.86-1.009 1.56 1.284 4.127 2.293 5.319 1.468zm-28.428 0c1.192.826 3.851-.183 5.319-1.467-1.284-.367-3.485-.092-4.86 1.009l-.46.458zm11.373 78.22c-.366 1.375-2.934 2.476-4.951 2.476.733-1.101 2.476-2.384 4.218-2.476h.733c0-1.467-2.292-3.118-4.126-3.576.367 1.192 1.742 2.934 3.485 3.392l.642.184zm-4.035-.549c.184-1.468-1.925-3.302-3.76-4.035.276 1.284 1.468 3.118 3.118 3.759l.642.276-.642-.092c-1.834-.092-3.668 1.008-4.493 2.017 1.926.184 4.585-.55 5.135-1.925zm-4.035-.917c-.642 1.284-3.393 1.834-5.319 1.467.917-.917 2.843-1.925 4.677-1.559l.642.092c.275-1.375-1.559-3.484-3.301-4.401.183 1.283 1.1 3.209 2.75 4.034l.55.367zm-3.854-1.377c.459-1.376-1.192-3.576-2.842-4.677 0 1.284.825 3.301 2.292 4.31l.55.367-.642-.184c-1.742-.458-3.851.276-4.768 1.101 1.834.55 4.677.275 5.41-.917zm-3.76-1.74c-.825 1.191-3.668 1.1-5.502.366 1.1-.733 3.21-1.284 4.86-.642l.642.275c.55-1.284-.825-3.668-2.384-4.951-.091 1.283.459 3.392 1.834 4.493l.55.458zm-3.57-2.018c.734-1.284-.458-3.76-1.834-5.136-.275 1.284.092 3.393 1.376 4.677l.458.459-.55-.275c-1.65-.826-3.76-.459-4.952.091 1.742.825 4.585 1.192 5.502.184zM38.65 95.39c-1.1.917-3.851.367-5.502-.734 1.192-.55 3.393-.642 4.952.367l.55.367-.458-.459c-1.192-1.375-1.284-3.576-.917-4.768 1.284 1.467 2.2 4.035 1.375 5.227zm-3.029-2.75c-1.192.825-3.851 0-5.41-1.284 1.192-.367 3.485-.275 4.86.825l.55.459c.917-1.1.275-3.76-.825-5.41-.459 1.192-.55 3.392.458 4.86l.367.55zm-2.746-3.028c-1.284.734-3.851-.458-5.227-1.834 1.284-.275 3.485.092 4.769 1.376l.458.458c1.1-1.008.642-3.76-.275-5.502-.642 1.1-.917 3.301-.092 4.86l.367.642zm-2.386-3.3c-1.376.641-3.76-.826-5.044-2.293 1.284-.092 3.393.459 4.585 1.834l.459.459-.275-.642c-.642-1.651-.184-3.76.55-4.86.733 1.833.825 4.676-.275 5.501zm-2.111-3.485l-.184-.642c-.55-1.742.184-3.76 1.1-4.768.55 1.834.276 4.677-.916 5.41l-.367-.55c-1.009-1.467-3.118-2.293-4.402-2.293 1.1 1.651 3.393 3.302 4.769 2.843zm-1.742-3.76c-1.376.367-3.485-1.558-4.402-3.209 1.284.092 3.301 1.1 4.127 2.66l.275.55c1.284-.642 1.742-3.393 1.375-5.319-.917.917-1.834 2.843-1.558 4.677l.183.641zm-1.283-3.85l-.092-.643c-.183-1.834 1.009-3.668 2.018-4.493.183 1.926-.55 4.677-1.926 5.135l-.275-.642c-.734-1.65-2.568-2.842-3.851-3.118.733 1.926 2.659 3.944 4.126 3.76zm-.92-3.944v-.642c0-1.834 1.376-3.576 2.476-4.218-.091 1.834-1.1 4.493-2.475 4.86l-.184-.642c-.55-1.742-2.292-3.026-3.484-3.484.55 1.925 2.2 4.126 3.668 4.126zm-.546-4.035c-1.467-.092-2.934-2.476-3.301-4.401 1.192.458 2.75 2.017 3.118 3.76l.183.641c1.467-.183 2.751-2.66 2.934-4.677-1.192.55-2.659 2.201-2.842 3.944l-.092.733zm-.09-4.125c-1.466-.275-2.658-2.75-2.75-4.676 1.1.641 2.567 2.292 2.75 4.034v.642c1.468-.092 2.935-2.384 3.394-4.31-1.192.459-2.843 1.926-3.21 3.668l-.183.642zm.277-4.035c-1.376-.459-2.293-3.026-2.293-5.044 1.1.734 2.293 2.568 2.293 4.31v.734c1.467.091 3.21-2.11 3.851-3.944-1.284.367-3.026 1.651-3.576 3.302l-.275.642zm.734-4.036l.275-.55c.733-1.65 2.659-2.75 3.943-2.934-.826 1.65-2.751 3.668-4.218 3.484l.091-.642c.184-1.834-.917-3.668-1.834-4.493-.275 1.834.459 4.585 1.743 5.135zm1.189-3.943c-1.284-.642-1.65-3.393-1.284-5.319.917.917 1.742 2.935 1.375 4.677l-.091.642c1.375.367 3.576-1.467 4.493-3.118-1.284.092-3.301 1.009-4.218 2.568l-.275.55zm1.467-3.76c-1.192-.825-1.284-3.576-.734-5.41.825 1.008 1.467 3.117.917 4.768l-.183.642c1.375.55 3.668-1.1 4.86-2.66-1.284 0-3.393.642-4.493 2.11l-.367.55zm1.926-3.666c1.284.642 3.76-.734 5.043-2.11-1.283-.183-3.484.276-4.676 1.651l-.367.459.275-.55c.733-1.65.275-3.76-.367-4.86-.825 1.742-1.1 4.493.092 5.41zm2.198-3.395c-1.008-1.008-.55-3.76.459-5.502.55 1.192.825 3.301-.092 4.86l-.366.642.458-.458c1.376-1.192 3.485-1.467 4.768-1.192-1.375 1.284-3.943 2.384-5.226 1.65zm2.663-3.209l.55-.366c1.468-1.1 3.668-1.1 4.86-.734-1.65 1.192-4.31 2.017-5.41 1.1l.367-.55c1.1-1.467 1.009-3.668.55-4.86-1.1 1.65-1.834 4.31-.917 5.41zm2.838-2.841c-.826-1.192.183-3.76 1.467-5.227.367 1.192.091 3.393-1.1 4.768l-.367.459c1.008 1.008 3.85.458 5.502-.55-1.193-.55-3.393-.734-4.952.183l-.55.367zm3.214-2.66c-.642-1.284.642-3.76 2.017-5.044.184 1.284-.183 3.393-1.559 4.677l-.458.367.55-.275c1.65-.734 3.852-.367 4.952.275-1.742.825-4.585 1.1-5.502 0zm3.388-2.201l.642-.184c1.742-.641 3.851 0 4.86.734-1.834.642-4.677.55-5.502-.55l.55-.367c1.467-1.1 2.11-3.21 2.017-4.493-1.558 1.1-3.117 3.484-2.567 4.86zm3.67-1.926c-.366-1.375 1.376-3.576 3.027-4.585-.092 1.284-.917 3.301-2.476 4.218l-.55.367.642-.183c1.742-.459 3.851.366 4.768 1.284-1.926.458-4.768.091-5.41-1.1zm19.444 77.027c.366 1.375 2.934 2.476 4.951 2.476-.641-1.101-2.475-2.384-4.218-2.476h-.733c0-1.467 2.292-3.118 4.126-3.576-.367 1.192-1.742 2.934-3.484 3.392l-.642.184zm4.034-.549c-.183-1.468 1.926-3.302 3.76-4.035-.275 1.284-1.467 3.118-3.118 3.759l-.642.276.642-.092c1.834-.092 3.668 1.008 4.493 2.017-1.925.184-4.676-.55-5.135-1.925zm4.035-.919l.55-.275c1.65-.825 2.567-2.75 2.75-4.035-1.742.826-3.667 2.843-3.3 4.31l.641-.091c1.834-.276 3.76.641 4.677 1.558-1.926.276-4.768-.183-5.318-1.467zm3.852-1.375c-.458-1.376 1.192-3.576 2.843-4.677 0 1.284-.826 3.301-2.293 4.31l-.55.367.642-.184c1.742-.458 3.851.276 4.768 1.101-1.834.55-4.676.275-5.41-.917zm3.757-1.74c.825 1.191 3.668 1.1 5.502.366-1.1-.733-3.21-1.284-4.86-.642l-.642.275c-.55-1.284.825-3.668 2.384-4.951.092 1.283-.458 3.392-1.834 4.493l-.55.458zm3.483-2.11c-.734-1.284.458-3.76 1.834-5.135.275 1.283-.092 3.392-1.376 4.676l-.458.459.55-.275c1.65-.826 3.76-.459 4.952.091-1.65.917-4.494 1.284-5.502.184zm3.304-2.385c1.1.917 3.851.367 5.502-.734-1.193-.55-3.393-.642-4.952.367l-.55.367.458-.459c1.192-1.375 1.284-3.576.917-4.768-1.192 1.376-2.2 4.035-1.375 5.227zm3.113-2.75l.366-.55c1.01-1.468.917-3.668.459-4.86-1.192 1.558-1.834 4.31-.825 5.41l.55-.367c1.375-1.1 3.668-1.284 4.86-.825-1.559 1.1-4.31 2.017-5.41 1.192zm2.752-3.028c1.284.734 3.852-.458 5.227-1.834-1.284-.275-3.484.092-4.768 1.376l-.459.458c-1.1-1.008-.642-3.76.275-5.502.642 1.1.918 3.301.092 4.86l-.367.642zm2.387-3.3c1.284.641 3.76-.826 5.044-2.293-1.284-.092-3.393.459-4.585 1.834l-.459.459.275-.642c.642-1.651.184-3.76-.55-4.86-.733 1.833-.825 4.584.275 5.501zm2.107-3.577c1.376.459 3.668-1.192 4.769-2.842-1.284 0-3.393.733-4.402 2.292l-.367.55c-1.192-.733-1.375-3.576-.825-5.41.825 1.009 1.559 3.026 1.009 4.769l-.184.641zm1.744-3.668c1.375.367 3.484-1.558 4.401-3.3-1.283.091-3.301 1.1-4.126 2.659l-.275.641c-1.284-.641-1.743-3.392-1.376-5.318.917.917 1.834 2.843 1.559 4.677l-.183.641zm1.284-3.85c1.467.183 3.301-1.927 4.126-3.669-1.284.275-3.118 1.376-3.851 3.118l-.275.55c-1.376-.458-2.109-3.21-1.926-5.135 1.009.825 2.109 2.66 2.017 4.493l-.091.642zm.913-4.036c1.467 0 3.117-2.2 3.668-4.034-1.193.366-3.026 1.742-3.485 3.484l-.183.55c-1.376-.367-2.385-2.934-2.476-4.86 1.1.734 2.384 2.476 2.476 4.218v.642zm.552-4.035c1.467-.091 2.934-2.476 3.301-4.401-1.192.458-2.843 2.017-3.118 3.76l-.183.641c-1.467-.183-2.751-2.659-2.934-4.676 1.192.55 2.659 2.2 2.842 3.943l.092.733zm.091-4.033l-.183-.642c-.367-1.742-2.018-3.21-3.21-3.668.459 1.834 1.926 4.218 3.393 4.31l.092-.642c.183-1.834 1.65-3.484 2.751-4.035-.184 1.835-1.376 4.402-2.843 4.677zm-.276-4.127c1.376-.367 2.293-3.026 2.293-4.952-1.101.734-2.293 2.568-2.293 4.31v.642c-1.467.092-3.209-2.11-3.851-3.943 1.284.367 3.026 1.65 3.576 3.301l.275.642zm-.734-4.035c1.375-.55 2.017-3.21 1.742-5.136-1.009.826-2.109 2.751-1.834 4.494l.092.642c-1.468.183-3.393-1.743-4.219-3.577 1.284.184 3.21 1.284 3.943 2.935l.276.642zm-1.1-3.852c1.283-.642 1.65-3.393 1.283-5.319-.917.917-1.742 2.935-1.375 4.677l.092.642c-1.376.367-3.577-1.467-4.494-3.118 1.284.092 3.302 1.009 4.219 2.568l.275.55zm-1.553-3.85l-.367-.55c-1.1-1.467-3.118-2.2-4.402-2.11 1.1 1.651 3.393 3.21 4.769 2.66l-.184-.642c-.55-1.742.092-3.76.917-4.768.55 1.834.459 4.676-.733 5.41zm-1.835-3.576c-1.284.642-3.76-.734-5.043-2.11 1.284-.183 3.393.276 4.677 1.651l.366.459-.275-.55c-.733-1.65-.275-3.76.367-4.86.825 1.65 1.009 4.493-.092 5.41zm-2.293-3.485c1.009-1.008.55-3.76-.367-5.502-.55 1.193-.825 3.302.092 4.86l.275.642-.458-.458c-1.376-1.192-3.485-1.467-4.769-1.192 1.376 1.375 4.035 2.476 5.227 1.65zm-2.566-3.119l-.55-.366c-1.468-1.1-3.669-1.1-4.86-.734 1.558 1.192 4.218 2.017 5.41 1.1l-.367-.55c-1.009-1.467-1.009-3.668-.55-4.86 1.1 1.559 1.834 4.31.917 5.41zm-2.94-2.933c.825-1.192-.183-3.76-1.467-5.227-.367 1.284-.092 3.393 1.1 4.768l.367.459c-1.009 1.009-3.851.459-5.502-.55 1.192-.55 3.393-.734 4.952.183l.55.367zm-3.117-2.568c.642-1.284-.55-3.76-2.018-5.044-.183 1.284.184 3.393 1.56 4.677l.458.367-.55-.275c-1.651-.734-3.852-.367-4.952.275 1.742.825 4.493 1.1 5.502 0zm-3.485-2.293c.55-1.284-1.008-3.668-2.567-4.86-.092 1.284.55 3.393 2.017 4.493l.55.367c-.825 1.192-3.667 1.192-5.501.55 1.008-.733 3.117-1.375 4.86-.733l.641.183z" fill="#fff"/><path fill-rule="evenodd" clip-rule="evenodd" d="M102.654 52.383v-.642c.092-1.834-1.1-3.668-2.201-4.401 0 1.925.825 4.676 2.201 5.043zM25.442 52.383v-.642c-.091-1.834 1.1-3.668 2.201-4.401 0 1.925-.825 4.676-2.2 5.043z" fill="#fff"/></svg>