<?xml version="1.0" encoding="utf-8"?><svg width="75" height="75" fill="none" xmlns="http://www.w3.org/2000/svg" viewBox="0 0 75 75"><path fill-rule="evenodd" clip-rule="evenodd" d="M69.983 29.509l2.342 2.502c2.662 2.875 2.662 7.453-.053 10.275l-2.343 2.502a7.74 7.74 0 00-1.916 6.229l.479 3.46c.586 3.994-2.023 7.667-5.803 8.36l-3.3.585c-2.184.372-4.047 1.81-5.059 3.833l-1.597 3.088c-1.81 3.567-5.963 4.951-9.423 3.194l-3.035-1.544a6.882 6.882 0 00-6.282 0l-3.035 1.544c-3.46 1.757-7.613.32-9.423-3.194l-1.597-3.088c-1.011-2.023-2.875-3.46-5.058-3.833l-3.3-.586c-3.78-.692-6.336-4.419-5.804-8.358l.48-3.461c.319-2.29-.373-4.579-1.917-6.229l-2.343-2.502c-2.661-2.875-2.661-7.454 0-10.329l2.343-2.502c1.49-1.597 2.236-3.886 1.917-6.175l-.48-3.461c-.585-3.993 2.024-7.666 5.803-8.358l3.354-.586c2.183-.373 4.047-1.81 5.058-3.833l1.597-3.088C23.398.387 27.551-.997 31.012.759l3.034 1.544a6.882 6.882 0 006.282 0L43.364.76c3.46-1.756 7.613-.319 9.423 3.195l1.598 3.088c1.011 2.023 2.874 3.46 5.057 3.833l3.301.585c3.78.693 6.336 4.42 5.803 8.359l-.479 3.46c-.32 2.29.373 4.58 1.917 6.23zM9.129 56.448c0 1.49 1.171 2.661 2.555 2.661 1.385 0 2.556-1.17 2.556-2.661s-1.118-2.662-2.556-2.662c-1.437 0-2.555 1.17-2.555 2.662z" fill="#D0D0D0"/><path fill-rule="evenodd" clip-rule="evenodd" d="M19.082 40.37v-6.814h2.449c.905 0 1.544.16 2.023.479.48.32.692.798.692 1.384 0 .373-.106.639-.266.905-.16.266-.426.426-.745.532.372.107.639.267.798.533.213.266.266.585.266.958 0 .639-.212 1.171-.638 1.49-.426.32-1.065.48-1.864.533h-2.715zm1.647-3.992h.852c.372 0 .639-.054.745-.214.16-.106.213-.319.213-.585a.882.882 0 00-.266-.639c-.16-.106-.426-.213-.799-.213h-.798v1.65h.053zm.005 2.767v-1.65h1.172c.585 0 .852.266.852.852 0 .266-.107.426-.267.586-.16.16-.372.212-.692.212h-1.065zM26.912 37.974h.905l1.278 2.396h1.757v-.16l-1.438-2.715c.426-.16.692-.426.905-.745.16-.32.267-.692.267-1.171 0-.64-.213-1.118-.692-1.49-.48-.374-1.118-.533-1.917-.533h-2.715v6.814h1.65v-2.395zm1.062-1.277h-1.065s0-1.864-.053-1.917h1.064c.32 0 .533.107.692.267.16.16.267.372.267.692 0 .319-.054.532-.213.692-.16.16-.373.266-.692.266zM36.969 38.88c.266-.533.373-1.119.373-1.757v-.213c0-.692-.107-1.225-.373-1.757-.266-.533-.586-.905-1.065-1.171a2.91 2.91 0 00-1.544-.426c-.585 0-1.065.16-1.544.426-.479.266-.798.638-1.064 1.17-.267.533-.373 1.119-.373 1.758v.372c0 .64.106 1.225.373 1.704.266.48.638.852 1.064 1.118.426.266.959.373 1.544.373.586 0 1.065-.16 1.544-.426.48-.266.799-.639 1.065-1.171zm-1.594-3.62c.213.372.32.851.32 1.543v.32c0 .639-.107 1.118-.32 1.49-.213.373-.532.533-.958.533-.48 0-.799-.16-1.012-.532-.213-.373-.32-.906-.32-1.544v-.48c.054-1.224.48-1.863 1.332-1.863.426 0 .745.16.958.532z" fill="#fff"/><path d="M43.949 40.37h-1.65l-2.45-4.26v4.26H38.2v-6.815h1.65l2.396 4.206v-4.206h1.65c.054 0 .054 6.815.054 6.815zM46.825 39.092h3.247v1.278H44.75v-.852l3.247-4.685h-3.3v-1.278h5.323v.852l-3.194 4.685zM55.075 37.495h-2.608v1.597h3.088v1.278h-4.739v-6.815h4.739v1.278h-3.088v1.437h2.608v1.225z" fill="#fff"/><path fill-rule="evenodd" clip-rule="evenodd" d="M46.88 15.88c-.427.745-2.024.904-3.142.638.533-.479 1.757-.958 2.769-.745l.372.106-.32-.213c-.904-.532-1.383-1.703-1.436-2.449.958.64 1.97 1.917 1.756 2.662zm-9.741 44.135c.372 0 .639.266.639.639 0 .319-.267.638-.64.638a.615.615 0 01-.638-.639c.053-.372.32-.638.639-.638zm8.304-44.775l-.266-.266c-.798-.692-2.076-.799-2.822-.586.906.746 2.396 1.331 3.088.852zm-16.505 0c.692.479 2.236-.107 3.087-.852-.745-.213-2.023-.053-2.821.585l-.267.267zm6.605 45.413c-.213.799-1.704 1.437-2.875 1.437.426-.638 1.437-1.384 2.449-1.437h.426c0-.852-1.331-1.81-2.396-2.076.213.692 1.012 1.703 2.023 1.97l.373.106zm-2.343-.319c.107-.852-1.118-1.916-2.183-2.342.16.745.852 1.81 1.81 2.183l.373.16-.373-.054c-1.064-.053-2.13.586-2.608 1.171 1.118.107 2.662-.32 2.981-1.118zm-2.343-.532c-.372.745-1.97 1.064-3.087.851.532-.532 1.65-1.118 2.715-.905l.372.054c.16-.799-.905-2.023-1.916-2.556.106.745.639 1.863 1.597 2.343l.32.213zm-2.24-.8c.267-.798-.691-2.076-1.65-2.715 0 .745.48 1.917 1.331 2.502l.32.213-.373-.106c-1.012-.266-2.236.16-2.768.639 1.064.32 2.715.16 3.14-.533zm-2.18-1.01c-.48.692-2.13.639-3.195.213.64-.426 1.864-.745 2.822-.373l.372.16c.32-.745-.479-2.13-1.384-2.875-.053.745.267 1.97 1.065 2.609l.32.266zm-2.075-1.171c.426-.746-.266-2.183-1.064-2.982-.16.745.053 1.97.798 2.715l.267.267-.32-.16c-.958-.48-2.183-.266-2.875.053 1.012.48 2.662.692 3.195.107zm-1.917-1.439c-.64.533-2.236.213-3.195-.426.692-.319 1.97-.372 2.875.213l.32.213-.267-.266c-.692-.798-.745-2.076-.532-2.768.745.852 1.278 2.342.799 3.034zm-1.76-1.596c-.693.479-2.237 0-3.142-.746.692-.213 2.023-.16 2.822.48l.32.266c.532-.64.159-2.183-.48-3.142-.266.693-.32 1.97.266 2.822l.213.32zm-1.592-1.758c-.745.426-2.236-.266-3.034-1.065.745-.16 2.023.053 2.768.799l.266.266c.64-.586.373-2.183-.16-3.194-.372.638-.532 1.916-.053 2.821l.213.373zm-1.387-1.916c-.8.372-2.183-.48-2.929-1.331.746-.053 1.97.266 2.662 1.065l.267.266-.16-.373c-.373-.958-.107-2.183.32-2.822.425 1.065.478 2.716-.16 3.195zm-1.227-2.023l-.106-.373c-.32-1.011.106-2.183.639-2.768.32 1.065.16 2.715-.533 3.14l-.213-.319c-.585-.851-1.81-1.33-2.555-1.33.639.958 1.97 1.916 2.768 1.65zm-1.01-2.183c-.798.213-2.022-.905-2.555-1.863.745.053 1.917.639 2.396 1.544l.16.32c.745-.373 1.011-1.97.798-3.089-.532.533-1.065 1.65-.905 2.715l.107.373zm-.745-2.236l-.053-.373c-.107-1.065.585-2.13 1.17-2.608.107 1.117-.318 2.715-1.117 2.98l-.16-.372c-.426-.958-1.49-1.65-2.236-1.81.426 1.118 1.544 2.29 2.396 2.183zm-.532-2.29v-.372c0-1.065.799-2.077 1.438-2.45-.054 1.065-.64 2.61-1.438 2.822l-.106-.372c-.32-1.012-1.331-1.757-2.024-2.024.32 1.118 1.278 2.396 2.13 2.396zm-.318-2.342c-.852-.053-1.704-1.437-1.917-2.555.692.266 1.597 1.17 1.81 2.182l.107.373c.851-.106 1.597-1.544 1.703-2.715-.692.32-1.544 1.278-1.65 2.29l-.053.425zm-.054-2.395c-.852-.16-1.544-1.597-1.597-2.715.638.372 1.49 1.33 1.597 2.342v.373c.852-.053 1.704-1.384 1.97-2.502-.692.266-1.65 1.118-1.864 2.13l-.106.372zm.163-2.343c-.798-.266-1.33-1.757-1.33-2.928.638.426 1.33 1.49 1.33 2.502v.426c.852.053 1.864-1.224 2.236-2.29-.745.214-1.757.96-2.076 1.918l-.16.372zm.425-2.342l.16-.32c.426-.958 1.544-1.597 2.29-1.704-.48.959-1.598 2.13-2.45 2.023l.053-.372c.107-1.065-.532-2.13-1.064-2.609-.16 1.065.266 2.662 1.011 2.982zm.693-2.29c-.745-.373-.958-1.97-.745-3.088.532.532 1.011 1.703.798 2.715l-.053.372c.798.213 2.076-.851 2.609-1.81-.746.054-1.917.586-2.45 1.491l-.159.32zm.85-2.183c-.693-.48-.746-2.076-.427-3.141.48.585.852 1.81.533 2.768l-.107.373c.799.32 2.13-.639 2.822-1.544-.745 0-1.97.373-2.609 1.225l-.213.319zm1.117-2.129c.746.373 2.183-.426 2.929-1.224-.746-.107-2.023.16-2.716.958l-.212.266.16-.32c.425-.958.159-2.182-.214-2.82-.479 1.01-.639 2.608.053 3.14zm1.276-1.97c-.586-.586-.32-2.183.266-3.195.32.693.48 1.917-.053 2.822l-.213.373.266-.267c.799-.692 2.023-.851 2.768-.692-.798.746-2.289 1.385-3.034.959zm1.546-1.864l.319-.212c.852-.64 2.13-.64 2.822-.426-.959.692-2.502 1.17-3.141.638l.212-.319c.64-.852.586-2.13.32-2.822-.639.959-1.065 2.503-.532 3.141zm1.647-1.649c-.479-.692.107-2.183.852-3.035.213.692.053 1.97-.639 2.769l-.213.266c.586.586 2.236.266 3.195-.32-.693-.319-1.97-.425-2.875.107l-.32.213zm1.866-1.545c-.372-.745.373-2.183 1.172-2.928.106.745-.107 1.97-.905 2.715l-.267.213.32-.16c.958-.425 2.236-.212 2.875.16-1.012.48-2.662.64-3.195 0zm1.971-1.277l.373-.107c1.011-.372 2.236 0 2.822.426-1.065.373-2.716.32-3.195-.32l.32-.212c.851-.64 1.224-1.864 1.17-2.609-.904.639-1.81 2.023-1.49 2.822zm2.127-1.118c-.213-.8.799-2.077 1.757-2.662-.053.745-.532 1.916-1.437 2.448l-.32.213.373-.106c1.012-.266 2.236.213 2.768.745-1.118.266-2.768.054-3.14-.639zm11.292 44.72c.213.799 1.704 1.437 2.875 1.437-.373-.638-1.438-1.384-2.45-1.437h-.425c0-.852 1.33-1.81 2.396-2.076-.213.692-1.012 1.703-2.023 1.97l-.373.106zm2.339-.319c-.107-.852 1.117-1.916 2.182-2.342-.16.745-.852 1.81-1.81 2.183l-.372.16.372-.054c1.065-.053 2.13.586 2.609 1.171-1.118.107-2.715-.32-2.981-1.118zm2.344-.533l.319-.16c.958-.479 1.49-1.597 1.597-2.342-1.011.479-2.13 1.65-1.916 2.502l.372-.053c1.065-.16 2.183.373 2.715.905-1.118.16-2.768-.107-3.087-.852zm2.237-.799c-.266-.798.692-2.076 1.65-2.715 0 .745-.479 1.917-1.33 2.502l-.32.213.373-.106c1.011-.266 2.236.16 2.768.639-1.065.32-2.715.16-3.14-.533zm2.183-1.01c.48.692 2.13.639 3.194.213-.639-.426-1.863-.745-2.821-.373l-.373.16c-.32-.745.48-2.13 1.384-2.875.053.745-.266 1.97-1.065 2.609l-.32.266zm2.019-1.225c-.426-.745.266-2.183 1.065-2.981.16.745-.053 1.97-.799 2.715l-.266.266.32-.16c.958-.479 2.182-.266 2.874.053-.958.533-2.608.746-3.194.107zm1.92-1.385c.639.533 2.236.213 3.194-.426-.692-.32-1.97-.372-2.875.213l-.32.213.267-.266c.692-.798.745-2.076.532-2.768-.692.798-1.277 2.342-.798 3.034zm1.807-1.596l.213-.32c.585-.852.532-2.13.266-2.821-.692.905-1.065 2.502-.48 3.14l.32-.212c.799-.639 2.13-.745 2.822-.48-.905.64-2.502 1.172-3.141.693zm1.595-1.758c.745.426 2.236-.266 3.034-1.065-.745-.16-2.023.053-2.768.799l-.266.266c-.64-.586-.373-2.183.16-3.194.372.638.532 1.916.053 2.821l-.213.373zm1.388-1.916c.745.372 2.182-.48 2.928-1.331-.745-.053-1.97.266-2.662 1.065l-.266.266.16-.373c.372-.958.106-2.183-.32-2.822-.426 1.065-.48 2.662.16 3.195zm1.221-2.077c.8.266 2.13-.692 2.769-1.65-.745 0-1.97.426-2.556 1.33l-.212.32c-.693-.426-.8-2.076-.48-3.141.48.586.905 1.757.586 2.769l-.107.372zm1.012-2.129c.798.213 2.023-.905 2.555-1.916-.745.053-1.916.639-2.395 1.543l-.16.373c-.745-.373-1.012-1.97-.799-3.088.533.533 1.065 1.65.905 2.715l-.106.373zm.749-2.236c.852.106 1.916-1.118 2.396-2.13-.746.16-1.81.799-2.236 1.81l-.16.32c-.799-.266-1.225-1.864-1.118-2.982.585.48 1.224 1.544 1.171 2.61l-.053.372zm.53-2.343c.852 0 1.81-1.277 2.13-2.342-.693.213-1.758 1.011-2.024 2.023l-.106.32c-.799-.213-1.385-1.704-1.438-2.822.64.426 1.384 1.437 1.438 2.449v.373zm.32-2.342c.852-.053 1.704-1.438 1.917-2.556-.692.266-1.65 1.171-1.81 2.183l-.106.373c-.852-.107-1.598-1.544-1.704-2.715.692.319 1.544 1.277 1.65 2.289l.054.426zm.052-2.342l-.107-.373c-.212-1.011-1.17-1.863-1.863-2.13.266 1.066 1.118 2.45 1.97 2.503l.053-.373c.107-1.065.958-2.023 1.597-2.342-.106 1.065-.798 2.555-1.65 2.715zm-.16-2.396c.799-.213 1.331-1.757 1.331-2.875-.639.426-1.33 1.49-1.33 2.502v.373c-.852.053-1.864-1.224-2.237-2.29.746.214 1.757.959 2.077 1.917l.16.373zm-.427-2.343c.798-.32 1.17-1.864 1.011-2.982-.585.48-1.224 1.598-1.065 2.61l.054.372c-.852.106-1.97-1.012-2.45-2.077.746.107 1.864.746 2.29 1.704l.16.373zm-.637-2.237c.745-.372.958-1.97.745-3.087-.533.532-1.012 1.703-.799 2.715l.053.372c-.798.213-2.076-.851-2.608-1.81.745.054 1.916.586 2.449 1.491l.16.32zm-.903-2.234l-.213-.32c-.64-.852-1.81-1.278-2.556-1.224.64.958 1.97 1.863 2.769 1.544l-.107-.373c-.32-1.012.053-2.183.533-2.768.32 1.064.266 2.715-.426 3.14zm-1.063-2.077c-.746.373-2.183-.426-2.928-1.224.745-.107 1.97.16 2.715.958l.213.266-.16-.319c-.426-.958-.16-2.183.213-2.822.48.959.586 2.609-.053 3.141zm-1.335-2.023c.585-.585.32-2.182-.213-3.194-.32.692-.48 1.917.053 2.822l.16.373-.266-.267c-.799-.692-2.023-.852-2.769-.692.799.799 2.343 1.438 3.035.959zm-1.488-1.81l-.319-.213c-.852-.64-2.13-.64-2.822-.426.905.692 2.45 1.17 3.141.639l-.213-.32c-.585-.852-.585-2.13-.319-2.822.639.905 1.065 2.503.532 3.142zm-1.708-1.704c.48-.692-.106-2.182-.852-3.034-.213.745-.053 1.97.64 2.768l.212.266c-.585.586-2.236.267-3.194-.32.692-.319 1.97-.425 2.875.107l.32.213zm-1.808-1.49c.372-.746-.32-2.183-1.172-2.929-.106.746.107 1.97.905 2.716l.267.212-.32-.16c-.958-.425-2.236-.212-2.875.16 1.012.48 2.609.64 3.195 0zm-2.024-1.332c.32-.745-.586-2.13-1.49-2.822-.054.746.319 1.97 1.17 2.61l.32.212c-.48.692-2.13.692-3.195.32.586-.426 1.81-.8 2.822-.426l.373.106z" fill="#fff"/><path fill-rule="evenodd" clip-rule="evenodd" d="M46.88 15.88c-.427.745-2.024.904-3.142.638.533-.479 1.757-.958 2.769-.745l.372.106-.32-.213c-.904-.532-1.383-1.703-1.436-2.449.958.64 1.97 1.917 1.756 2.662zm-9.741 44.135c.372 0 .639.266.639.639 0 .319-.267.638-.64.638a.615.615 0 01-.638-.639c.053-.372.32-.638.639-.638zm8.304-44.775l-.266-.266c-.798-.692-2.076-.799-2.822-.586.906.746 2.396 1.331 3.088.852zm-16.505 0c.692.479 2.236-.107 3.087-.852-.745-.213-2.023-.053-2.821.585l-.267.267zm6.605 45.413c-.213.799-1.704 1.437-2.875 1.437.426-.638 1.437-1.384 2.449-1.437h.426c0-.852-1.331-1.81-2.396-2.076.213.692 1.012 1.703 2.023 1.97l.373.106zm-2.343-.319c.107-.852-1.118-1.916-2.183-2.342.16.745.852 1.81 1.81 2.183l.373.16-.373-.054c-1.064-.053-2.13.586-2.608 1.171 1.118.107 2.662-.32 2.981-1.118zm-2.343-.532c-.372.745-1.97 1.064-3.087.851.532-.532 1.65-1.118 2.715-.905l.372.054c.16-.799-.905-2.023-1.916-2.556.106.745.639 1.863 1.597 2.343l.32.213zm-2.24-.8c.267-.798-.691-2.076-1.65-2.715 0 .745.48 1.917 1.331 2.502l.32.213-.373-.106c-1.012-.266-2.236.16-2.768.639 1.064.32 2.715.16 3.14-.533zm-2.18-1.01c-.48.692-2.13.639-3.195.213.64-.426 1.864-.745 2.822-.373l.372.16c.32-.745-.479-2.13-1.384-2.875-.053.745.267 1.97 1.065 2.609l.32.266zm-2.075-1.171c.426-.746-.266-2.183-1.064-2.982-.16.745.053 1.97.798 2.715l.267.267-.32-.16c-.958-.48-2.183-.266-2.875.053 1.012.48 2.662.692 3.195.107zm-1.917-1.439c-.64.533-2.236.213-3.195-.426.692-.319 1.97-.372 2.875.213l.32.213-.267-.266c-.692-.798-.745-2.076-.532-2.768.745.852 1.278 2.342.799 3.034zm-1.76-1.596c-.693.479-2.237 0-3.142-.746.692-.213 2.023-.16 2.822.48l.32.266c.532-.64.159-2.183-.48-3.142-.266.693-.32 1.97.266 2.822l.213.32zm-1.592-1.758c-.745.426-2.236-.266-3.034-1.065.745-.16 2.023.053 2.768.799l.266.266c.64-.586.373-2.183-.16-3.194-.372.638-.532 1.916-.053 2.821l.213.373zm-1.387-1.916c-.8.372-2.183-.48-2.929-1.331.746-.053 1.97.266 2.662 1.065l.267.266-.16-.373c-.373-.958-.107-2.183.32-2.822.425 1.065.478 2.716-.16 3.195zm-1.227-2.023l-.106-.373c-.32-1.011.106-2.183.639-2.768.32 1.065.16 2.715-.533 3.14l-.213-.319c-.585-.851-1.81-1.33-2.555-1.33.639.958 1.97 1.916 2.768 1.65zm-1.01-2.183c-.798.213-2.022-.905-2.555-1.863.745.053 1.917.639 2.396 1.544l.16.32c.745-.373 1.011-1.97.798-3.089-.532.533-1.065 1.65-.905 2.715l.107.373zm-.745-2.236l-.053-.373c-.107-1.065.585-2.13 1.17-2.608.107 1.117-.318 2.715-1.117 2.98l-.16-.372c-.426-.958-1.49-1.65-2.236-1.81.426 1.118 1.544 2.29 2.396 2.183zm-.532-2.29v-.372c0-1.065.799-2.077 1.438-2.45-.054 1.065-.64 2.61-1.438 2.822l-.106-.372c-.32-1.012-1.331-1.757-2.024-2.024.32 1.118 1.278 2.396 2.13 2.396zm-.318-2.342c-.852-.053-1.704-1.437-1.917-2.555.692.266 1.597 1.17 1.81 2.182l.107.373c.851-.106 1.597-1.544 1.703-2.715-.692.32-1.544 1.278-1.65 2.29l-.053.425zm-.054-2.395c-.852-.16-1.544-1.597-1.597-2.715.638.372 1.49 1.33 1.597 2.342v.373c.852-.053 1.704-1.384 1.97-2.502-.692.266-1.65 1.118-1.864 2.13l-.106.372zm.163-2.343c-.798-.266-1.33-1.757-1.33-2.928.638.426 1.33 1.49 1.33 2.502v.426c.852.053 1.864-1.224 2.236-2.29-.745.214-1.757.96-2.076 1.918l-.16.372zm.425-2.342l.16-.32c.426-.958 1.544-1.597 2.29-1.704-.48.959-1.598 2.13-2.45 2.023l.053-.372c.107-1.065-.532-2.13-1.064-2.609-.16 1.065.266 2.662 1.011 2.982zm.693-2.29c-.745-.373-.958-1.97-.745-3.088.532.532 1.011 1.703.798 2.715l-.053.372c.798.213 2.076-.851 2.609-1.81-.746.054-1.917.586-2.45 1.491l-.159.32zm.85-2.183c-.693-.48-.746-2.076-.427-3.141.48.585.852 1.81.533 2.768l-.107.373c.799.32 2.13-.639 2.822-1.544-.745 0-1.97.373-2.609 1.225l-.213.319zm1.117-2.129c.746.373 2.183-.426 2.929-1.224-.746-.107-2.023.16-2.716.958l-.212.266.16-.32c.425-.958.159-2.182-.214-2.82-.479 1.01-.639 2.608.053 3.14zm1.276-1.97c-.586-.586-.32-2.183.266-3.195.32.693.48 1.917-.053 2.822l-.213.373.266-.267c.799-.692 2.023-.851 2.768-.692-.798.746-2.289 1.385-3.034.959zm1.546-1.864l.319-.212c.852-.64 2.13-.64 2.822-.426-.959.692-2.502 1.17-3.141.638l.212-.319c.64-.852.586-2.13.32-2.822-.639.959-1.065 2.503-.532 3.141zm1.647-1.649c-.479-.692.107-2.183.852-3.035.213.692.053 1.97-.639 2.769l-.213.266c.586.586 2.236.266 3.195-.32-.693-.319-1.97-.425-2.875.107l-.32.213zm1.866-1.545c-.372-.745.373-2.183 1.172-2.928.106.745-.107 1.97-.905 2.715l-.267.213.32-.16c.958-.425 2.236-.212 2.875.16-1.012.48-2.662.64-3.195 0zm1.971-1.277l.373-.107c1.011-.372 2.236 0 2.822.426-1.065.373-2.716.32-3.195-.32l.32-.212c.851-.64 1.224-1.864 1.17-2.609-.904.639-1.81 2.023-1.49 2.822zm2.127-1.118c-.213-.8.799-2.077 1.757-2.662-.053.745-.532 1.916-1.437 2.448l-.32.213.373-.106c1.012-.266 2.236.213 2.768.745-1.118.266-2.768.054-3.14-.639zm11.292 44.72c.213.799 1.704 1.437 2.875 1.437-.373-.638-1.438-1.384-2.45-1.437h-.425c0-.852 1.33-1.81 2.396-2.076-.213.692-1.012 1.703-2.023 1.97l-.373.106zm2.339-.319c-.107-.852 1.117-1.916 2.182-2.342-.16.745-.852 1.81-1.81 2.183l-.372.16.372-.054c1.065-.053 2.13.586 2.609 1.171-1.118.107-2.715-.32-2.981-1.118zm2.344-.533l.319-.16c.958-.479 1.49-1.597 1.597-2.342-1.011.479-2.13 1.65-1.916 2.502l.372-.053c1.065-.16 2.183.373 2.715.905-1.118.16-2.768-.107-3.087-.852zm2.237-.799c-.266-.798.692-2.076 1.65-2.715 0 .745-.479 1.917-1.33 2.502l-.32.213.373-.106c1.011-.266 2.236.16 2.768.639-1.065.32-2.715.16-3.14-.533zm2.183-1.01c.48.692 2.13.639 3.194.213-.639-.426-1.863-.745-2.821-.373l-.373.16c-.32-.745.48-2.13 1.384-2.875.053.745-.266 1.97-1.065 2.609l-.32.266zm2.019-1.225c-.426-.745.266-2.183 1.065-2.981.16.745-.053 1.97-.799 2.715l-.266.266.32-.16c.958-.479 2.182-.266 2.874.053-.958.533-2.608.746-3.194.107zm1.92-1.385c.639.533 2.236.213 3.194-.426-.692-.32-1.97-.372-2.875.213l-.32.213.267-.266c.692-.798.745-2.076.532-2.768-.692.798-1.277 2.342-.798 3.034zm1.807-1.596l.213-.32c.585-.852.532-2.13.266-2.821-.692.905-1.065 2.502-.48 3.14l.32-.212c.799-.639 2.13-.745 2.822-.48-.905.64-2.502 1.172-3.141.693zm1.595-1.758c.745.426 2.236-.266 3.034-1.065-.745-.16-2.023.053-2.768.799l-.266.266c-.64-.586-.373-2.183.16-3.194.372.638.532 1.916.053 2.821l-.213.373zm1.388-1.916c.745.372 2.182-.48 2.928-1.331-.745-.053-1.97.266-2.662 1.065l-.266.266.16-.373c.372-.958.106-2.183-.32-2.822-.426 1.065-.48 2.662.16 3.195zm1.221-2.077c.8.266 2.13-.692 2.769-1.65-.745 0-1.97.426-2.556 1.33l-.212.32c-.693-.426-.8-2.076-.48-3.141.48.586.905 1.757.586 2.769l-.107.372zm1.012-2.129c.798.213 2.023-.905 2.555-1.916-.745.053-1.916.639-2.395 1.543l-.16.373c-.745-.373-1.012-1.97-.799-3.088.533.533 1.065 1.65.905 2.715l-.106.373zm.749-2.236c.852.106 1.916-1.118 2.396-2.13-.746.16-1.81.799-2.236 1.81l-.16.32c-.799-.266-1.225-1.864-1.118-2.982.585.48 1.224 1.544 1.171 2.61l-.053.372zm.53-2.343c.852 0 1.81-1.277 2.13-2.342-.693.213-1.758 1.011-2.024 2.023l-.106.32c-.799-.213-1.385-1.704-1.438-2.822.64.426 1.384 1.437 1.438 2.449v.373zm.32-2.342c.852-.053 1.704-1.438 1.917-2.556-.692.266-1.65 1.171-1.81 2.183l-.106.373c-.852-.107-1.598-1.544-1.704-2.715.692.319 1.544 1.277 1.65 2.289l.054.426zm.052-2.342l-.107-.373c-.212-1.011-1.17-1.863-1.863-2.13.266 1.066 1.118 2.45 1.97 2.503l.053-.373c.107-1.065.958-2.023 1.597-2.342-.106 1.065-.798 2.555-1.65 2.715zm-.16-2.396c.799-.213 1.331-1.757 1.331-2.875-.639.426-1.33 1.49-1.33 2.502v.373c-.852.053-1.864-1.224-2.237-2.29.746.214 1.757.959 2.077 1.917l.16.373zm-.427-2.343c.798-.32 1.17-1.864 1.011-2.982-.585.48-1.224 1.598-1.065 2.61l.054.372c-.852.106-1.97-1.012-2.45-2.077.746.107 1.864.746 2.29 1.704l.16.373zm-.637-2.237c.745-.372.958-1.97.745-3.087-.533.532-1.012 1.703-.799 2.715l.053.372c-.798.213-2.076-.851-2.608-1.81.745.054 1.916.586 2.449 1.491l.16.32zm-.903-2.234l-.213-.32c-.64-.852-1.81-1.278-2.556-1.224.64.958 1.97 1.863 2.769 1.544l-.107-.373c-.32-1.012.053-2.183.533-2.768.32 1.064.266 2.715-.426 3.14zm-1.063-2.077c-.746.373-2.183-.426-2.928-1.224.745-.107 1.97.16 2.715.958l.213.266-.16-.319c-.426-.958-.16-2.183.213-2.822.48.959.586 2.609-.053 3.141zm-1.335-2.023c.585-.585.32-2.182-.213-3.194-.32.692-.48 1.917.053 2.822l.16.373-.266-.267c-.799-.692-2.023-.852-2.769-.692.799.799 2.343 1.438 3.035.959zm-1.488-1.81l-.319-.213c-.852-.64-2.13-.64-2.822-.426.905.692 2.45 1.17 3.141.639l-.213-.32c-.585-.852-.585-2.13-.319-2.822.639.905 1.065 2.503.532 3.142zm-1.708-1.704c.48-.692-.106-2.182-.852-3.034-.213.745-.053 1.97.64 2.768l.212.266c-.585.586-2.236.267-3.194-.32.692-.319 1.97-.425 2.875.107l.32.213zm-1.808-1.49c.372-.746-.32-2.183-1.172-2.929-.106.746.107 1.97.905 2.716l.267.212-.32-.16c-.958-.425-2.236-.212-2.875.16 1.012.48 2.609.64 3.195 0zm-2.024-1.332c.32-.745-.586-2.13-1.49-2.822-.054.746.319 1.97 1.17 2.61l.32.212c-.48.692-2.13.692-3.195.32.586-.426 1.81-.8 2.822-.426l.373.106z" fill="#fff"/><path fill-rule="evenodd" clip-rule="evenodd" d="M59.602 30.413v-.373c.053-1.064-.639-2.13-1.278-2.555 0 1.118.48 2.715 1.278 2.928zM14.772 30.413v-.373c-.053-1.064.64-2.13 1.278-2.555 0 1.118-.479 2.715-1.278 2.928z" fill="#fff"/></svg>