<?xml version="1.0" encoding="utf-8"?><svg width="109" height="22" fill="none" xmlns="http://www.w3.org/2000/svg" viewBox="0 0 109 22"><path d="M56.95 6.23v7.201c0 2.046-1.015 3.137-2.859 3.137-1.855 0-2.876-1.123-2.876-3.224V6.237h-2.551v7.194c0 3.54 1.966 5.568 5.393 5.568 3.46 0 5.445-2.067 5.445-5.672V6.23H56.95zm9.389 0l-5.542 12.573H63.4l1.07-2.435.077-.183h5.757l1.13 2.618h2.675l-5.49-12.5-.05-.074h-2.231zm15.172 0l-2.856 8.65-2.78-8.644H73.16l4.384 12.575h2.113l2.862-8.26 2.859 8.26h2.131l4.373-12.575h-2.646l-2.786 8.645-2.857-8.651h-2.081zm24.971 0v12.562H109V6.23h-2.518zm-72.225 0v12.58h2.553V13.7h5.763v5.11h2.553V6.23h-2.553v5.075H36.81V6.23h-2.553zm59.682.009V18.8h9.5v-2.29h-6.982v-3.115h4.642v-2.291h-4.642V8.529h6.738V6.24h-9.256zM67.42 9.413l1.82 4.212h-.007l.124.29h-3.86l.122-.29h-.002l1.803-4.212zM12.411 0c-.388.034-1.438.273-1.438.273-2.366.612-2.925 2.758-2.925 2.758-.115.361-.168.731-.183 1.08v.474c.031.733.194 1.28.194 1.28.79 3.503 4.675 9.26 5.51 10.47.06.058.107.037.107.037.09-.025.083-.111.083-.111h.002C15.047 3.407 12.41.001 12.41.001zm4.25 0S14.012 3.41 15.3 16.27h.002c.01.082.068.1.068.1.086.032.13-.05.13-.05.857-1.24 4.72-6.965 5.506-10.455 0 0 .426-1.69.015-2.834 0 0-.585-2.18-2.953-2.756 0 0-.683-.173-1.408-.275zM4.45 3.86S2.195 5.998 2.083 8.266h.001v.343l.005.079c.097 1.828 1.473 2.91 1.473 2.91 2.216 2.161 7.583 4.888 8.83 5.507.018.007.082.028.12-.02 0 0 .02-.015.029-.042v-.057l-.005-.01C9.124 9.516 4.45 3.86 4.45 3.86zm20.165 0s-4.659 5.638-8.073 13.084h.002s-.04.086.024.142c0 0 .02.015.047.02h.047a.09.09 0 00.027-.011c1.28-.635 6.606-3.345 8.812-5.495 0 0 1.397-1.122 1.47-2.923.162-2.502-2.357-4.817-2.357-4.817zm4.192 7.407s-7.594 4.076-11.52 6.724v.002s-.07.046-.046.13c0 0 .037.067.092.067 1.406.003 6.728.01 6.862-.016 0 0 .688-.027 1.538-.354 0 0 1.893-.602 2.876-2.751 0 0 .45-.899.456-2.161v-.054a5.133 5.133 0 00-.258-1.587zm-28.553.02c-.69 2.138.24 3.862.241 3.865.97 2.048 2.82 2.669 2.82 2.669a5.463 5.463 0 001.709.375c.133.024 5.314.002 6.702-.004.058 0 .09-.06.09-.06a.075.075 0 00.01-.019v-.053c-.011-.036-.042-.061-.042-.061C7.862 15.348.256 11.284.256 11.284zm11.313 7.562l-8.934.314c.969 1.727 2.6 3.069 4.3 2.657 1.173-.294 3.83-2.147 4.708-2.773l-.003-.003c.068-.061.044-.11.044-.11-.023-.08-.115-.08-.115-.08v-.005zm5.917.007v.003s-.079.01-.101.069c0 0-.019.08.034.12h-.001c.855.614 3.448 2.427 4.697 2.779 0 0 .19.064.507.076h.19c.837-.03 2.295-.46 3.62-2.736l-8.946-.311z" fill="#000"/></svg>