<?xml version="1.0" encoding="utf-8"?><svg width="88" height="18" fill="none" xmlns="http://www.w3.org/2000/svg" viewBox="0 0 88 18"><path d="M1.001 8.306V.769h1.695v7.537H1zm7.175.107c-1.262 0-2.351-.402-3.268-1.206l1.001-1.173c.756.61 1.522.915 2.3.915.344 0 .616-.065.814-.194a.61.61 0 00.297-.538c0-.215-.103-.388-.308-.517-.205-.136-.62-.283-1.243-.441-.44-.108-.796-.212-1.068-.313a3.906 3.906 0 01-.781-.42 1.592 1.592 0 01-.54-.646 2.468 2.468 0 01-.164-.947c0-.682.25-1.231.748-1.647C6.47.869 7.119.66 7.912.66c1.093 0 2.046.32 2.86.958l-.88 1.25c-.726-.496-1.394-.744-2.002-.744-.316 0-.562.065-.738.194a.57.57 0 00-.253.485c0 .244.107.427.32.549.212.122.66.27 1.342.441.836.216 1.452.492 1.848.83.396.337.595.821.595 1.453 0 .732-.26 1.306-.782 1.723-.513.409-1.195.613-2.046.613zm5.113-.107V.769h1.695v6.03h3.84v1.507h-5.535zm6.968 0l3.3-7.591h1.564l3.3 7.59H26.65l-.704-1.69h-3.257l-.705 1.69h-1.727zm3.037-3.155h2.046l-1.023-2.444-1.023 2.444zm7.131 3.155V.769h1.563l3.609 4.64V.77h1.673v7.537h-1.442l-3.73-4.792v4.792h-1.673zm9.509 0V.769h3.004c1.203 0 2.186.359 2.949 1.077.763.71 1.144 1.607 1.144 2.691 0 1.077-.385 1.974-1.155 2.692-.763.718-1.743 1.077-2.938 1.077h-3.004zm1.694-1.497h1.31c.697 0 1.258-.208 1.683-.624.426-.424.638-.973.638-1.648 0-.667-.216-1.213-.649-1.636-.425-.424-.983-.636-1.672-.636h-1.31V6.81zM56.21 8.413c-1.262 0-2.351-.402-3.268-1.206l1.001-1.173c.756.61 1.522.915 2.3.915.345 0 .616-.065.814-.194a.61.61 0 00.297-.538c0-.215-.103-.388-.308-.517-.205-.136-.62-.283-1.243-.441-.44-.108-.796-.212-1.068-.313a3.909 3.909 0 01-.78-.42 1.59 1.59 0 01-.54-.646 2.465 2.465 0 01-.165-.947c0-.682.25-1.231.748-1.647.506-.417 1.155-.625 1.948-.625 1.093 0 2.046.32 2.86.958l-.88 1.25c-.726-.496-1.394-.744-2.002-.744-.316 0-.561.065-.738.194a.57.57 0 00-.253.485c0 .244.107.427.32.549.212.122.66.27 1.342.441.836.216 1.452.492 1.849.83.396.337.594.821.594 1.453 0 .732-.26 1.306-.781 1.723-.514.409-1.196.613-2.047.613zm11.782-1.109c-.778.754-1.754 1.13-2.927 1.13-1.174 0-2.15-.376-2.927-1.13-.77-.753-1.156-1.676-1.156-2.767 0-1.084.39-2.002 1.167-2.756.785-.76 1.764-1.141 2.938-1.141 1.173 0 2.145.376 2.915 1.13.778.754 1.167 1.676 1.167 2.767 0 1.084-.393 2.006-1.177 2.767zm-4.578-1.087c.44.46.998.689 1.673.689.674 0 1.228-.226 1.661-.678.433-.46.65-1.023.65-1.69 0-.661-.22-1.221-.661-1.68-.44-.46-.997-.69-1.672-.69-.675 0-1.23.23-1.662.69-.433.452-.65 1.012-.65 1.68 0 .66.221 1.22.661 1.679zM74.7 8.424c-1.049 0-1.867-.283-2.454-.85-.586-.575-.88-1.407-.88-2.498V.769h1.695v4.264c0 .602.143 1.065.429 1.388.293.316.704.474 1.232.474s.935-.154 1.222-.463c.293-.308.44-.757.44-1.346V.77h1.694v4.253c0 1.12-.3 1.967-.902 2.54-.594.575-1.42.862-2.476.862zm5.92-.118V.769h1.694v6.03h3.84v1.507H80.62zM31.572 15.534c-.38 0-.674-.165-.88-.495l.232-.195c.092.135.187.236.285.303a.67.67 0 00.367.095c.166 0 .3-.057.404-.171.103-.117.154-.283.154-.498v-1.87h.326v1.866c0 .319-.087.563-.26.733a.876.876 0 01-.628.232zm2.464-.04v-2.792H36.1v.287h-1.74v.954h1.556v.287h-1.557v.977h1.76v.287h-2.082zm4.344.02l-1.018-2.812h.35l.815 2.325.783-2.333h.264l.783 2.333.815-2.325h.338l-1.018 2.812h-.273l-.783-2.265-.787 2.265h-.269zm4.53-.02v-2.792h2.062v.287h-1.74v.954h1.557v.287h-1.557v.977h1.76v.287H42.91zm3.545 0v-2.792h.322v2.5h1.606v.292h-1.928zm3.339 0v-2.792h1.226c.35 0 .62.093.811.28.147.143.22.33.22.558 0 .223-.07.404-.212.542a1.049 1.049 0 01-.562.271l.876 1.14h-.395l-.828-1.084h-.815v1.085h-.322zm.321-1.368h.877c.217 0 .394-.052.53-.156a.507.507 0 00.203-.426.47.47 0 00-.196-.403c-.127-.098-.305-.148-.533-.148h-.88v1.133zm4.228 1.368v-1.105l-1.186-1.687h.39l.963 1.396.97-1.396h.375l-1.186 1.683v1.109h-.326z" fill="#000"/></svg>