<?xml version="1.0" encoding="utf-8"?><svg width="120" height="26" fill="none" xmlns="http://www.w3.org/2000/svg" viewBox="0 0 120 26"><g clip-path="url(#cclip0_2_3)"><mask id="ca" style="mask-type:alpha" maskUnits="userSpaceOnUse" x="0" y="0" width="42" height="22"><path d="M.012.486h41.904v21.222H.012V.486z" fill="#fff"/></mask><g mask="url(#ca)" fill-rule="evenodd" clip-rule="evenodd" fill="#fff"><path d="M41.914 6.034V.486H22.352v5.548h6.207V16.16h-6.207v5.548h19.562V16.16h-6.208V6.034h6.208zM6.208 6.034H0V.486h19.563v5.548h-6.208v15.674H6.207V6.034z"/></g><path fill-rule="evenodd" clip-rule="evenodd" d="M84.244.486h-.12v11.46c0 1.557-.278 2.688-.834 3.396-.544.694-1.327 1.046-2.347 1.06-1.02-.014-1.802-.366-2.346-1.06-.556-.708-.833-1.84-.833-3.396V.486h-7.147v11.672c0 3.174.909 5.64 2.726 7.398 1.816 1.758 4.35 2.637 7.6 2.637 3.251 0 5.785-.879 7.601-2.637 1.817-1.759 2.726-4.224 2.726-7.398V.486h-7.026zM119.881.486h-5.875l-2.25 3.784-4.533 7.425-4.534-7.425-2.25-3.784h-5.935v21.222h6.511v-9.244l4.603 7.334h3.21l4.602-7.334v9.244h6.511V.486h-.06zM53.511 15.75c-.717-.434-1.287-1.05-1.71-1.85-.425-.798-.637-1.732-.637-2.804 0-1.07.212-2.005.636-2.804.424-.798.994-1.415 1.711-1.85.717-.434 1.519-.651 2.407-.651.889 0 1.691.217 2.408.651.717.435 1.287 1.052 1.711 1.85.424.799.636 1.733.636 2.804 0 1.072-.212 2.006-.636 2.805-.424.798-.994 1.415-1.71 1.849-.718.435-1.52.652-2.408.652-.89 0-1.691-.217-2.408-.652zm11.583 2.713c.463-.505.878-1.055 1.242-1.652 1.03-1.687 1.544-3.592 1.544-5.715 0-2.122-.515-4.027-1.544-5.715-1.03-1.687-2.453-3.006-4.27-3.956C60.249.475 58.2 0 55.918 0c-2.281 0-4.33.475-6.147 1.425-1.817.95-3.24 2.269-4.27 3.956-1.03 1.688-1.544 3.593-1.544 5.715 0 2.123.515 4.028 1.544 5.715 1.03 1.688 2.453 3.007 4.27 3.956 1.817.95 3.866 1.425 6.148 1.425l.118-.001c1.48 0 6.475.282 9.776 3.809l4.083-4.088c-1.342-1.393-2.976-2.556-4.802-3.45z" fill="#fff"/></g><defs><clipPath id="cclip0_2_3"><path fill="#fff" d="M0 0h120v26H0z"/></clipPath></defs></svg>