<?xml version="1.0" encoding="utf-8"?><svg width="248" height="69" fill="none" xmlns="http://www.w3.org/2000/svg" viewBox="0 0 248 69"><g clip-path="url(#jclip0_1_718)"><path fill-rule="evenodd" clip-rule="evenodd" d="M0 23.97h13.885c10.098 0 15.89 4.91 15.89 13.595v.227c0 8.534-5.717 13.368-15.741 13.368H8.539V67.4H0V23.97zm13.885 20.695c4.9 0 7.5-2.417 7.5-6.873v-.227c0-4.532-2.377-6.646-7.5-6.646H8.613v13.746h5.272zM43.66 41.04h6.98c9.8 0 15.221 4.607 15.221 12.915v.226c0 8.384-5.643 13.218-15.37 13.218h-15.37V23.97h27.102v7.024H43.66V41.04zm6.237 6.495h-6.311v12.99h6.608c4.9 0 7.351-2.19 7.351-6.42v-.226c0-4.305-2.45-6.344-7.648-6.344z" fill="#2A2A2A"/><path d="M86.948 44.734l17.672-20.77h-9.43L79.673 42.619v-18.58h-8.465v43.429h8.54v-19.26l15.518 19.184h10.172L86.948 44.734z" fill="#2A2A2A"/><path d="M135.688 22.43l-21.636 21.845h-.029c0-1.683.092-3.336.457-4.906.045-.202.202-.376.248-.57l15.461-15.422c.171-.044.232-.293.406-.332a22.747 22.747 0 014.235-.596c.264-.037.497-.02.858-.02zM144.241 24.15l-20.239 20.7h-4.846L140.517 23c1.273.267 2.52.652 3.724 1.15zM151.652 28.467L133.998 44.85h-5.15l19.828-18.4a23.336 23.336 0 012.976 2.017zM156.213 33.276L143.617 44.85h-5.078l15.5-14.375a22.15 22.15 0 012.174 2.8zM159.063 40.06l-5.019 4.789h-3.86l-.813.001 8.551-8.625c.497 1.24.878 2.524 1.141 3.835z" fill="#000"/><path d="M135.688 0h-21.665v44.85c0-6.182 2.53-11.669 6.453-15.712a21.748 21.748 0 0110.234-6.031c1.624-.416 3.304-.68 4.978-.682V0z" fill="#000"/><path d="M158.492 0h-22.804v22.425h22.804V0zM136.828 67.275c2.92 0 5.812-.58 8.51-1.707a22.236 22.236 0 007.213-4.861 22.412 22.412 0 004.819-7.275 22.58 22.58 0 001.692-8.582H136.83l-.002 22.425z" fill="#FC6"/><path d="M226.04 62.1l.294.486v4.207l-.294.482a24.52 24.52 0 01-4.837-.465l4.837-4.71zM225.765 51.75v5.073l-8.656 8.727a22.753 22.753 0 01-3.316-1.626l11.972-12.174zM226.07 43.98l.268.341v1.734l-.268.454L211.1 62.1a21.92 21.92 0 01-2.436-2.542l14.958-15.578.424-.28h1.716l.308.28zM218.355 44.542L206.878 56.35a22.72 22.72 0 01-1.636-3.354l8.214-8.443.583-.278h3.75l.566.267zM208.092 44.572l-4.139 4.878a28.108 28.108 0 01-.422-4.878l.293-.297h3.86l.408.297z" fill="#000"/><path d="M229.756 22.898l-4.839 4.702-.292-.58v-4.268l.296-.327a24.66 24.66 0 014.835.473zM237.168 25.8l-12.256 11.575-.287-.708V32.82l.291-.385 8.772-8.284 3.48 1.65zM227.676 44.85l15.193-14.652a23.469 23.469 0 00-2.612-2.598l-15.062 14.892v2.358h2.481zM246.859 36.863l-8.572 8.846-.54.291h-4.158l-.413-.291 11.972-12.359a23.575 23.575 0 011.711 3.513zM248.002 45.26l-.387.74h-4.701l-.613-.297 5.177-4.878c.349 1.605.525 2.797.524 4.436z" fill="#FC6"/><path d="M185.858 22.87l-4.561 4.73v-5.175c1.444-.002 3.147.148 4.561.445zM193.27 25.779l-11.973 11.596v-4.671l8.65-8.554s1.077.367 1.826.735c.749.367 1.497.893 1.497.893zM198.401 30.08l-14.772 14.77h-2.332v-2.472l.272-.273L195.955 27.6a22.22 22.22 0 012.446 2.48zM202.39 36.128l-8.981 8.722h-4.702l11.997-12.075a22.23 22.23 0 011.686 3.353zM203.533 44.85h-5.131l4.688-4.6c.296 1.427.444 3.143.443 4.6z" fill="#000"/><path d="M225.766 22.425a22.127 22.127 0 00-15.717 6.566 22.549 22.549 0 00-6.518 15.859h22.235V22.425z" fill="#FC6"/><path d="M225.766 67.275a22.13 22.13 0 0015.717-6.566A22.548 22.548 0 00248 44.85h-22.226v22.425h-.008zM176.734 66.8l4.561-4.7s0 4.436-.002 5.175c-1.518 0-3.038-.074-4.559-.475zM181.297 52.325v4.941l-8.164 8.284a21.497 21.497 0 01-3.238-1.65l11.402-11.575zM173.886 44.85l-11.475 12.075a23.448 23.448 0 01-1.638-3.43l8.218-8.645h4.895zM164.194 44.85l-4.662 4.6a22.502 22.502 0 01-.469-4.6h5.131zM181.299 44.85v2.514L166.695 62.1a22.541 22.541 0 01-2.5-2.52l14.596-14.73h2.508z" fill="#000"/><path d="M181.297 22.425a22.132 22.132 0 00-15.717 6.567 22.548 22.548 0 00-6.518 15.858h22.235V22.425zM181.297 67.275a22.127 22.127 0 0015.717-6.566 22.549 22.549 0 006.518-15.859h-22.235v22.425z" fill="#FC6"/></g><defs><clipPath id="jclip0_1_718"><path fill="#fff" d="M0 0h248v69H0z"/></clipPath></defs></svg>