<?xml version="1.0" encoding="utf-8"?><svg width="40" height="33" fill="none" xmlns="http://www.w3.org/2000/svg" viewBox="0 0 40 33"><path fill-rule="evenodd" clip-rule="evenodd" d="M2.75 14.206C13.487 9.55 20.647 6.48 24.23 4.996 34.459.76 36.584.024 37.97 0c.304-.005.985.07 1.427.427.372.3.475.708.524.992.049.285.11.936.061 1.444-.554 5.798-2.953 19.867-4.172 26.361-.517 2.748-1.534 3.67-2.518 3.76-2.139.195-3.763-1.408-5.835-2.759-3.241-2.116-5.073-3.433-8.22-5.497-3.636-2.386-1.279-3.697.794-5.84.542-.56 9.967-9.094 10.149-9.868.023-.098.044-.458-.172-.649-.215-.19-.533-.125-.762-.073-.325.073-5.504 3.482-15.536 10.223-1.47 1.005-2.801 1.494-3.995 1.469-1.315-.029-3.844-.741-5.725-1.35-2.307-.746-4.14-1.14-3.98-2.408.083-.66.996-1.335 2.74-2.026z" fill="#000"/></svg>