<?xml version="1.0" encoding="utf-8"?><svg width="95" height="18" fill="none" xmlns="http://www.w3.org/2000/svg" viewBox="0 0 95 18"><g clip-path="url(#mclip0_271_98)" fill="#000"><path d="M9.469.22v8.687a.674.674 0 01-.688.688H7.75c-.062 0-.094.062-.094.093v7.282c.25 0 .5.062.782.062 4.656 0 8.437-3.781 8.437-8.437 0-4.282-3.219-7.875-7.406-8.375zm-.188 13a1.04 1.04 0 01-1.031-1.032c0-.593.5-1.03 1.031-1.03.594 0 1.031.5 1.031 1.03.063.563-.437 1.032-1.03 1.032zm2.469 0a1.04 1.04 0 01-1.031-1.032c0-.593.5-1.03 1.031-1.03.594 0 1.031.5 1.031 1.03a1.02 1.02 0 01-1.031 1.032zm2.5 0a1.04 1.04 0 01-1.031-1.032c0-.593.5-1.03 1.031-1.03.594 0 1.031.5 1.031 1.03a1.04 1.04 0 01-1.031 1.032z"/><path d="M8.438.188C3.78.188 0 3.97 0 8.626c0 4.094 2.844 7.438 6.656 8.219V9.25c0-.344.313-.625.625-.688h1.032c.062 0 .093-.062.093-.093L8.437.188zM6.812 7.126a1.04 1.04 0 01-1.03-1.031c0-.594.5-1.032 1.03-1.032.594 0 1.032.5 1.032 1.032 0 .531-.469 1.031-1.032 1.031zM92.906 4.782V7.97h-4.25V4.782H86.5v8.438h2.156V9.813h4.25v3.407H95V4.782h-2.094zm-35.125.969c-.344-.75-1.031-1.156-1.719-1.156-.687 0-1.406.406-1.718 1.156l-3.407 7.5h2.25l.75-1.781h4.375l.75 1.781h2.25l-3.53-7.5zm-3.25 4.031l1.281-3.094c.063-.093.094-.093.157-.093.062 0 .156 0 .156.093l1.281 3.094h-2.875zm-21.875-6.5c-1 0-1.625.531-2.094 1.594l-2.718 6.344-2.75-6.375C24.656 3.813 24 3.25 23 3.25c-.938 0-1.875.625-1.875 2.094v7.843h2.094V5.626l2.78 6.281c.345.906 1 1.438 1.845 1.438.906 0 1.5-.532 1.843-1.438l2.782-6.281v7.656h2.093V5.438c-.03-1.468-.968-2.156-1.906-2.156zm5.594 8.156c-.094 0-.219-.093-.219-.218v-1.5h5.25V8h-5.25V6.72c0-.094.094-.219.219-.219h5.219V4.72h-6.25c-.75 0-1.25.593-1.25 1.25v5.906c0 .625.53 1.25 1.25 1.25h6.25v-1.781h-5.22v.093zM47 13.22V6.782c0-.094.094-.219.219-.219h5.218v-1.78h-6.25c-.75 0-1.25.593-1.25 1.25v7.155L47 13.22zm38.125-4.188c0-2.937-1.281-4.312-4.469-4.312h-.75c-3.187 0-4.469 1.406-4.469 4.312 0 2.875 1.282 4.313 4.47 4.313h.687c3.25-.063 4.53-1.438 4.53-4.313zm-4.531 2.531h-.688c-1.719 0-2.437-.78-2.437-2.53 0-1.688.593-2.532 2.437-2.532h.688c1.78 0 2.437.844 2.437 2.531 0 1.719-.656 2.531-2.437 2.531zm-11-8.093h-4.188c-3.125 0-4.375 1.593-4.375 4.312 0 .438.063.844.094 1.188.344 1.937 1.5 3.125 4.406 3.125h.938v1.093h2.093v-1.093h.907c2.937 0 4.093-1.188 4.406-3.125a6.78 6.78 0 00.094-1.188c-.032-2.719-1.313-4.312-4.375-4.312zm-3.188 6.875h-.937c-1.438 0-1.938-.532-2.25-1.407-.094-.312-.094-.75-.094-1.187 0-1.781.844-2.531 2.031-2.531h1.281v5.125h-.03zm5.375-1.313c-.312.844-.844 1.406-2.25 1.406h-.937V5.282h1.28c1.188 0 2.032.75 2.032 2.531-.031.47-.031.844-.125 1.22z"/></g><defs><clipPath id="mclip0_271_98"><path fill="#fff" d="M0 0h95v17.188H0z"/></clipPath></defs></svg>