<?xml version="1.0" encoding="utf-8"?><svg width="100" height="13" fill="none" xmlns="http://www.w3.org/2000/svg" viewBox="0 0 100 13"><path fill-rule="evenodd" clip-rule="evenodd" d="M24.171 2.629l-2.145 5.726-2.162-5.726h-2.681v7.635h1.609V4.458l2.24 5.806h1.766l2.24-5.837v5.837h1.72V2.629H24.17zM37.991 2.629h5.916v7.635h-1.83V4.238h-2.414a161.651 161.651 0 01-.079 3.313c-.062 2.003-.646 2.713-2.366 2.713h-.82v-1.61h.457c.774 0 1.025-.346 1.073-1.434.048-1.168.063-3.487.063-4.591zM53.263 2.629h6.956v1.609h-2.571v6.026h-1.815V4.238h-2.57v-1.61zM11.416 8.93c-.716-.02-1.13-.434-1.13-.96 0-.433.195-.646.454-.796.271-.159.623-.213 1.17-.233.527-.018.956-.042 1.772-.042 0 1.303-.82 1.958-1.838 2.028-.16.01-.26.01-.428.004zm1.029-6.46h-.655c-1.573 0-2.765.958-3.039 2.382l1.672.268c.228-.678.754-1.141 1.419-1.172.214-.01.162-.007.377 0 .989.036 1.435.509 1.435 1.679-1.872 0-3.152-.088-4.093.532-.768.507-1.098 1.069-1.098 1.957 0 1.286 1 2.304 2.615 2.304h.222c1.14 0 2.061-.444 2.436-.98v.823h1.685V5.663c0-1.776-.95-3.191-2.976-3.191zM48.87 3.947c.192-.01.26-.01.452 0 .798.04 1.637.557 1.718 1.587h-3.928c.091-.92.83-1.537 1.758-1.587zM52.84 6.96v-.715c0-2.464-1.548-3.738-3.547-3.738h-.391c-2.15 0-3.523 1.466-3.594 3.536-.01.303-.01.43 0 .843.05 2.06 1.494 3.446 3.423 3.496.354.01.308.01.642 0 1.679-.047 2.95-1.016 3.325-2.283l-1.625-.284c-.397.794-1.154 1.099-1.76 1.129-.192.01-.219.008-.411 0-.949-.039-1.799-.783-1.799-1.863V6.96h5.737zM34.097 7.016c-.021 1.079-.806 1.812-1.862 1.865-.203.01-.19.01-.392 0-1.067-.053-1.842-.786-1.863-1.865-.01-.448-.01-.703 0-1.152.021-1.068.796-1.8 1.863-1.854.202-.01.19-.01.392 0 1.056.053 1.84.786 1.862 1.865.01.449.01.693 0 1.141zm1.799-1.245c-.04-1.848-1.531-3.263-3.5-3.263h-.714c-1.97 0-3.46 1.415-3.5 3.273-.011.514-.011.815 0 1.33.04 1.858 1.53 3.272 3.5 3.272h.714c1.969 0 3.46-1.414 3.5-3.272.01-.515.01-.825 0-1.34zM5.627 7.568c-.212.708-.782 1.193-1.547 1.3-.22.03-.439.022-.616-.002-.95-.134-1.621-.847-1.641-1.85-.01-.448-.01-.703 0-1.152.02-1.01.723-1.749 1.692-1.852.056-.007.267-.025.472-.003.815.087 1.427.577 1.648 1.32l1.773-.343c-.38-1.449-1.695-2.478-3.374-2.478h-.51c-1.969 0-3.46 1.415-3.5 3.273-.01.514-.01.815 0 1.33.04 1.858 1.531 3.272 3.5 3.272h.51c1.712 0 3.038-1.07 3.388-2.57l-1.795-.245zM98.474.358H64.628c-.785 0-1.422.637-1.422 1.422v8.65c0 .785.637 1.422 1.422 1.422h33.846c.786 0 1.422-.637 1.422-1.422V1.78c0-.785-.636-1.422-1.422-1.422zM67.05 3.171h5.638l-1.32 6.316h-1.596l.993-4.783h-2.433l-1.004 4.783H65.73l1.319-6.316zm13.067 0h-4.82a120.399 120.399 0 01-.864 3.91c-.149.595-.455.827-.994.827h-.316l-.325 1.58h.715c1.338 0 2.025-.465 2.425-2.146.123-.531.243-1.074.357-1.586.083-.376.162-.736.237-1.062h1.663L77.19 9.487h1.607l1.319-6.316zm8.495 2.665c0-.79-.445-1.31-1.254-1.31-1.18 0-1.904 1.161-1.904 2.323 0 .77.493 1.281 1.245 1.281 1.216 0 1.913-1.105 1.913-2.294zM83.81 7.09h-.957l-.501 2.397h-1.598l1.32-6.317h1.597l-.502 2.388h.873c.437-1.357 1.533-2.48 3.446-2.48 1.737 0 2.769 1.002 2.769 2.572 0 1.914-1.078 3.93-3.689 3.93-1.662 0-2.73-.948-2.758-2.49zm13.595.334l-1.56-.288c-.27.595-.8.994-1.487.994-.706 0-1.152-.464-1.152-1.281 0-1.19.697-2.323 1.802-2.323.706 0 1.04.428 1.106.976l1.634-.27c-.074-1.337-.975-2.155-2.6-2.155-2.407 0-3.577 2.016-3.577 3.948 0 1.57 1.078 2.554 2.666 2.554 1.7 0 2.685-.827 3.168-2.155z" fill="#000"/></svg>