<?xml version="1.0" encoding="utf-8"?><svg width="48" height="13" fill="none" xmlns="http://www.w3.org/2000/svg" viewBox="0 0 48 13"><g clip-path="url(#nclip0_271_107)"><path fill-rule="evenodd" clip-rule="evenodd" d="M2.023.008C1.82-.008 1.253.177.951.96l-.95 2.1h4.868l.038 9.63h5.005l-.038-9.63h3.805V.008H2.023zm19.416 0v3.084H19.86v1.684h1.578v2.731h-1.6V9.93h1.6v2.746h-6.583V1.238C14.954.446 15.483 0 16.147 0l5.292.008zm0 3.084V.008h6.688c-.823 1.776-1.004 3.022-2.22 3.084H21.44zm6.832 4.107v3.116c-.438 1.3-1.646 2.36-4.953 2.36h-1.88V9.93h.28c.891-.008 1.17-.47 1.336-1.154 0-.723-.415-1.269-1.419-1.269h-.196v-2.73h2.302c2.839 0 4.077 1.046 4.53 2.422zm0 4.861l-.234.57h.234v-.57zm0-1.745V7.199a5.24 5.24 0 01.234 1.623c-.015.5-.076 1.016-.234 1.493zM44.1 0h-2.363c-.642.008-1.08.323-1.291.954L38.77 5.723V0h-4.71c-.642.008-1.072.323-1.291.954l-4.5 11.106v.57h2.582c.71 0 1.238-.27 1.503-.908l2.385-5.93v6.876h3.827c.71 0 1.238-.308 1.502-.946l2.167-5.946v6.846h4.944V0H44.1z" fill="#000"/></g><defs><clipPath id="nclip0_271_107"><path fill="#fff" d="M0 0h47.275v12.691H0z"/></clipPath></defs></svg>