<?xml version="1.0" encoding="utf-8"?><svg width="117" height="29" fill="none" xmlns="http://www.w3.org/2000/svg" viewBox="0 0 117 29"><path d="M109.402 15.196h-2.378v-2.32h-1.218v5.916h1.218V16.24h2.378v2.552h1.218v-5.974h-1.218v2.378zm-6.67-2.32h-1.392l-2.378 5.974h1.334l.464-1.334h2.552l.464 1.334h1.334l-2.378-5.974zm-1.624 3.538l.87-2.378.87 2.378h-1.74zM117 18.792l-2.61-3.248 2.494-2.726h-1.508l-2.146 2.552v-2.552h-1.218v5.974h1.218v-3.016l2.262 3.016H117zM98.034 15.66c-.348-.348-.812-.522-1.276-.58h-1.276v-1.16h2.61v-1.044h-3.828v5.916h2.494c.232 0 .464-.058.696-.116.232-.058.406-.232.58-.406.174-.174.29-.348.406-.58.116-.232.116-.464.116-.696 0-.522-.232-.986-.522-1.334zm-1.044 1.914c-.174.174-.348.232-.58.29h-.986v-1.74h.986c.116 0 .232 0 .348.058.116.058.232.116.29.174.058.058.174.174.174.29.058.116.058.232.058.348 0 .174-.116.406-.29.58zm-71.456 2.204h-2.842l1.276-2.262-3.19-5.626h2.9l1.682 3.306 1.624-3.306h2.784l-4.234 7.888zm35.496 0h-3.538c-1.914 0-3.48-1.624-3.48-3.828 0-2.552 1.566-4.06 3.48-4.06h3.538v1.972h-2.262c-1.334 0-2.146.406-2.146 2.03 0 1.624.754 1.972 2.146 1.972h2.262v1.914zm9.222 0h-2.61V14.21l-2.958 5.568h-3.132V11.89h2.61v5.394l2.958-5.394h3.132v7.888zM51.344 11.89h-2.842l-2.784 6.554-2.784-6.554h-2.9l-3.364 7.946h2.726l.58-1.682h2.9l.638 1.682h4.292l2.088-5.742 2.03 5.742h2.726l-3.306-7.946zM40.73 16.356l.87-2.262.812 2.262H40.73zm-5.394-4.466H30v7.946h2.552v-2.32h2.784c2.668 0 2.668-2.378 2.668-2.9 0-.522 0-2.726-2.668-2.726zm-.87 3.654H32.61v-1.682h1.856c.29 0 1.044 0 1.044.812s-.754.87-1.044.87zm41.528-.696h-2.61v-1.044h4.93v-1.972h-7.54v7.946h5.22c2.726 0 2.726-1.624 2.726-2.494 0-.87 0-2.378-2.726-2.436zm-.464 3.132h-2.204v-1.276h2.204c.58 0 .58.406.58.58 0 .174 0 .696-.58.696zM9.294 7.888c.174 0 .406 0 .58.058l-.058-5.394h.638c-.058 1.856.058 3.654.232 5.51a7.939 7.939 0 014.002 2.262 7.998 7.998 0 012.088 4.118c.29 1.566.058 3.132-.58 4.582-.638 1.45-1.682 2.61-3.016 3.48-.058-.058-.116-.174-.232-.29-2.378-3.016-2.958-7.482-3.132-11.368.348.058.638.116.986.174.522 3.306 1.972 6.438 4.292 8.874.812-.986 1.276-2.32 1.16-3.596-.058-1.334-.638-2.552-1.508-3.48-1.044-1.102-2.32-1.914-3.77-2.262-.696-.174-1.392-.29-2.088-.29-.696 0-1.45.116-2.146.29-3.016.754-5.278 3.132-5.278 5.974 0 1.218.406 2.378 1.16 3.364 2.32-2.436 3.77-5.568 4.292-8.874.348-.058.638-.058 1.044-.174-.174 3.944-.754 8.352-3.132 11.31a1.265 1.265 0 01-.232.29c-1.334-.87-2.32-2.088-2.958-3.538a7.756 7.756 0 01-.522-4.582 8.035 8.035 0 012.088-4.06 7.616 7.616 0 014.002-2.204c.232-4.002.174-5.51.174-5.51h.638L7.96 7.946c.174-.058.348-.116.522-.058V0h.696c.058 0 .058 7.888.116 7.888z" fill="#000"/><path d="M9.294 10.788c.058 3.77.348 8.41 1.566 11.6.116.348.29.696.522 1.044-.812.232-1.624.348-2.436.406a7.16 7.16 0 01-2.436-.406c.232-.406.406-.754.58-1.16C8.192 19.14 8.482 14.5 8.54 10.788h.754zm76.85-.928h.522v11.948h-.522V9.86z" fill="#000"/></svg>