<?xml version="1.0" encoding="utf-8"?><svg width="154" height="24" fill="none" xmlns="http://www.w3.org/2000/svg" viewBox="0 0 154 24"><path d="M24.554 19.778h-2.842l1.276-2.262-3.19-5.626h2.9l1.682 3.306 1.624-3.306h2.784l-4.234 7.888zm35.496 0h-3.538c-1.914 0-3.48-1.624-3.48-3.828 0-2.552 1.566-4.06 3.48-4.06h3.538v1.972h-2.262c-1.334 0-2.146.406-2.146 2.03 0 1.624.754 1.972 2.146 1.972h2.262v1.914zm9.222 0h-2.61V14.21l-2.958 5.568h-3.132V11.89h2.61v5.394l2.958-5.394h3.132v7.888zM50.364 11.89h-2.842l-2.784 6.554-2.784-6.554h-2.9l-3.364 7.946h2.726l.58-1.682h2.9l.638 1.682h4.292l2.088-5.742 2.03 5.742h2.726l-3.306-7.946zM39.75 16.356l.87-2.262.812 2.262H39.75zm-5.394-4.466H29.02v7.946h2.552v-2.32h2.784c2.668 0 2.668-2.378 2.668-2.9 0-.522 0-2.726-2.668-2.726zm-.87 3.654H31.63v-1.682h1.856c.29 0 1.044 0 1.044.812s-.754.87-1.044.87zm41.528-.696h-2.61v-1.044h4.93v-1.972h-7.54v7.946h5.22c2.726 0 2.726-1.624 2.726-2.494 0-.87 0-2.378-2.726-2.436zm-.464 3.132h-2.204v-1.276h2.204c.58 0 .58.406.58.58 0 .174 0 .696-.58.696zM8.314 7.888c.174 0 .406 0 .58.058l-.058-5.394h.638c-.058 1.856.058 3.654.232 5.51a7.939 7.939 0 014.002 2.262 7.998 7.998 0 012.088 4.118c.29 1.566.058 3.132-.58 4.582-.638 1.45-1.682 2.61-3.016 3.48-.058-.058-.116-.174-.232-.29-2.378-3.016-2.958-7.482-3.132-11.368.348.058.638.116.986.174.522 3.306 1.972 6.438 4.292 8.874.812-.986 1.276-2.32 1.16-3.596-.058-1.334-.638-2.552-1.508-3.48-1.044-1.102-2.32-1.914-3.77-2.262-.696-.174-1.392-.29-2.088-.29-.696 0-1.45.116-2.146.29C2.746 11.31.484 13.688.484 16.53c0 1.218.406 2.378 1.16 3.364 2.32-2.436 3.77-5.568 4.292-8.874.348-.058.638-.058 1.044-.174-.174 3.944-.754 8.352-3.132 11.31a1.265 1.265 0 01-.232.29c-1.334-.87-2.32-2.088-2.958-3.538a7.756 7.756 0 01-.522-4.582 8.035 8.035 0 012.088-4.06 7.616 7.616 0 014.002-2.204c.232-4.002.174-5.51.174-5.51h.638L6.98 7.946c.174-.058.348-.116.522-.058V0h.696c.058 0 .058 7.888.116 7.888z" fill="#000"/><path d="M8.314 10.788c.058 3.77.348 8.41 1.566 11.6.116.348.29.696.522 1.044-.812.232-1.624.348-2.436.406a7.16 7.16 0 01-2.436-.406c.232-.406.406-.754.58-1.16C7.212 19.14 7.502 14.5 7.56 10.788h.754zm76.85-.928h.522v11.948h-.522V9.86zM96.089 13.936c-.239 0-.45.047-.635.14a1.263 1.263 0 00-.462.399 1.921 1.921 0 00-.282.63 3.301 3.301 0 00-.096.833c0 .415.05.77.152 1.065.105.292.266.516.483.671.217.153.497.23.84.23.238 0 .477-.027.715-.08.242-.054.503-.13.784-.23v1.045c-.26.108-.516.184-.767.23a4.534 4.534 0 01-.849.072c-.605 0-1.104-.125-1.495-.374a2.253 2.253 0 01-.864-1.053c-.188-.453-.282-.981-.282-1.584 0-.445.06-.852.181-1.222.12-.37.298-.69.53-.96.234-.271.522-.48.865-.628a2.97 2.97 0 011.182-.221c.292 0 .584.038.876.113.295.072.576.172.844.301l-.402 1.013a6.662 6.662 0 00-.663-.273 1.976 1.976 0 00-.655-.117zm4.856 4.924h-1.246v-4.84h-1.596v-1.037h4.438v1.037h-1.596v4.84zm4.213-5.877c.758 0 1.312.164 1.66.49.348.325.523.773.523 1.343 0 .258-.039.504-.117.74-.078.233-.205.44-.382.623a1.809 1.809 0 01-.699.434c-.292.105-.653.157-1.082.157h-.534v2.09h-1.246v-5.877h1.877zm-.064 1.021h-.567v1.745h.41a1.8 1.8 0 00.607-.092.812.812 0 00.398-.29.85.85 0 00.14-.506c0-.29-.08-.504-.241-.644-.161-.142-.41-.213-.747-.213zm6.789 4.856l-.426-1.398h-2.142l-.427 1.398h-1.342l2.074-5.9h1.524l2.082 5.9h-1.343zm-.723-2.444l-.426-1.366a14.76 14.76 0 00-.109-.35c-.043-.145-.087-.29-.133-.438-.043-.15-.077-.28-.104-.39-.027.11-.065.246-.113.41-.045.16-.09.313-.132.458l-.093.31-.422 1.366h1.532zm7.396 2.444h-1.423l-1.367-2.223-1.366 2.223h-1.335l1.95-3.03-1.825-2.847h1.375l1.266 2.115 1.242-2.115h1.343l-1.846 2.915 1.986 2.962zm5.909-2.946c0 .453-.056.865-.168 1.238-.113.37-.284.689-.515.957a2.237 2.237 0 01-.868.619c-.351.142-.767.213-1.246.213-.48 0-.895-.071-1.246-.213a2.27 2.27 0 01-.873-.62 2.63 2.63 0 01-.51-.96 4.269 4.269 0 01-.169-1.242c0-.609.099-1.138.297-1.588.201-.453.51-.804.925-1.053.415-.25.943-.374 1.584-.374.638 0 1.161.125 1.571.374.413.249.719.6.917 1.053.201.453.301.985.301 1.596zm-4.289 0c0 .41.051.764.153 1.061.105.295.267.523.486.683.22.159.504.238.853.238.353 0 .64-.08.86-.238.22-.16.379-.388.478-.683.102-.297.153-.651.153-1.061 0-.617-.115-1.102-.346-1.455-.23-.354-.609-.53-1.137-.53-.351 0-.638.08-.861.24a1.38 1.38 0 00-.486.684 3.26 3.26 0 00-.153 1.06zm5.343-2.93h1.829c.782 0 1.375.11 1.777.329.402.22.603.606.603 1.158 0 .222-.037.423-.109.603-.07.18-.171.327-.305.442-.134.115-.298.19-.491.225v.04c.196.04.373.11.531.21.158.096.284.238.378.425.096.185.144.432.144.74 0 .356-.087.662-.261.917-.174.254-.423.45-.748.586-.321.134-.704.201-1.149.201h-2.199v-5.877zm1.246 2.327h.724c.361 0 .612-.056.751-.169.14-.115.209-.284.209-.506 0-.226-.083-.386-.249-.483-.163-.099-.423-.149-.78-.149h-.655v1.307zm0 .989v1.531h.812c.375 0 .636-.072.784-.217.147-.145.221-.339.221-.583a.735.735 0 00-.097-.381.63.63 0 00-.325-.258c-.15-.061-.358-.092-.623-.092h-.772zm7.718 2.56l-.426-1.398h-2.143l-.426 1.398h-1.342l2.074-5.9h1.524l2.082 5.9h-1.343zm-.723-2.444l-.427-1.366a10.783 10.783 0 00-.108-.35c-.043-.145-.087-.29-.133-.438-.043-.15-.077-.28-.104-.39-.027.11-.065.246-.113.41-.045.16-.09.313-.132.458l-.093.31-.422 1.366h1.532zm7.461 2.444h-1.243v-2.536h-2.327v2.536h-1.246v-5.877h1.246v2.304h2.327v-2.304h1.243v5.877zm1.322-5.877h1.122v2.838c0 .14-.003.294-.008.463a16.04 16.04 0 01-.016.498l-.016.422c-.006.12-.011.201-.017.241h.025l2.713-4.462h1.491v5.877h-1.109v-2.822a25.914 25.914 0 01.028-1.005l.028-.43.016-.245h-.032l-2.725 4.502h-1.5v-5.877zm9.998 5.877h-3.385v-5.877h3.385v1.021h-2.139v1.29h1.99v1.022h-1.99v1.515h2.139v1.03z" fill="#000"/></svg>